<svg version="1.1" id="Layer_1" xmlns="http://www.w3.org/2000/svg" xmlns:xlink="http://www.w3.org/1999/xlink" x="0px" y="0px"
	 width="100%" viewBox="0 0 225 225" enable-background="new 0 0 225 225" xml:space="preserve">
<path fill="#FFFFFF" opacity="1.000000" stroke="none" 
	d="
M127.000000,226.000000 
	C84.666672,226.000000 42.833340,226.000000 1.000006,226.000000 
	C1.000004,151.000000 1.000004,76.000015 1.000002,1.000016 
	C75.999992,1.000010 150.999985,1.000010 225.999969,1.000005 
	C225.999985,75.999985 225.999985,150.999969 226.000000,225.999969 
	C193.166672,226.000000 160.333328,226.000000 127.000000,226.000000 
M193.370026,120.957405 
	C192.766159,112.205460 193.220734,103.219627 191.348740,94.747902 
	C186.770493,74.028969 174.898926,57.895164 157.173386,46.261177 
	C139.716568,34.803577 120.470764,31.293114 99.990768,34.551228 
	C56.719112,41.435223 26.291702,84.661896 34.589897,127.278862 
	C42.914982,170.033890 79.264938,197.276138 122.528221,193.183670 
	C159.241898,189.710770 190.335663,158.359283 193.370026,120.957405 
z"/>
<path fill="#9B0637" opacity="1.000000" stroke="none" 
	d="
M193.318985,121.407532 
	C190.335663,158.359283 159.241898,189.710770 122.528221,193.183670 
	C79.264938,197.276138 42.914982,170.033890 34.589897,127.278862 
	C26.291702,84.661896 56.719112,41.435223 99.990768,34.551228 
	C120.470764,31.293114 139.716568,34.803577 157.173386,46.261177 
	C174.898926,57.895164 186.770493,74.028969 191.348740,94.747902 
	C193.220734,103.219627 192.766159,112.205460 193.318985,121.407532 
M180.654709,135.991425 
	C181.818726,128.971222 183.817596,121.973953 184.011108,114.927101 
	C185.255829,69.601700 142.890396,34.630249 98.866631,44.325394 
	C63.691051,52.071949 39.714497,84.613060 43.182556,120.554337 
	C46.378738,153.677994 74.025276,183.146240 111.702957,184.111099 
	C142.448059,184.898422 170.098343,165.874451 180.654709,135.991425 
z"/>
<path fill="#FDFBFB" opacity="1.000000" stroke="none" 
	d="
M180.474274,136.345612 
	C170.098343,165.874451 142.448059,184.898422 111.702957,184.111099 
	C74.025276,183.146240 46.378738,153.677994 43.182556,120.554337 
	C39.714497,84.613060 63.691051,52.071949 98.866631,44.325394 
	C142.890396,34.630249 185.255829,69.601700 184.011108,114.927101 
	C183.817596,121.973953 181.818726,128.971222 180.474274,136.345612 
M83.864777,101.247787 
	C83.478493,99.662903 83.092209,98.078018 82.606918,96.086929 
	C77.098694,96.086929 71.729897,96.086929 65.902885,96.086929 
	C72.947853,79.539680 84.481171,68.922218 101.229805,64.173782 
	C107.614838,62.363548 108.178970,61.627434 106.690605,54.901691 
	C86.992813,52.173382 58.260860,74.856117 53.995766,102.936424 
	C53.995766,104.197571 53.995766,105.458725 53.995766,106.736183 
	C64.083817,106.736183 74.059364,106.736183 84.233902,106.736183 
	C84.074219,104.979469 83.940742,103.511002 83.864777,101.247787 
M149.948746,106.991882 
	C157.811966,106.991882 165.675186,106.991882 173.765518,106.991882 
	C173.394196,104.932526 173.131958,103.478195 172.936020,101.253136 
	C166.722290,76.192368 151.069580,60.519077 126.036018,54.294289 
	C120.010582,52.796021 118.410805,54.098907 119.702057,60.023739 
	C120.065147,61.689747 123.142326,63.361683 125.273163,63.950569 
	C142.465042,68.701828 154.125931,79.428856 161.385117,96.478012 
	C155.292664,96.478012 149.892944,96.478012 144.351013,96.478012 
	C143.891510,100.237289 143.500443,103.436699 143.083725,106.845848 
	C145.418793,106.845848 147.221680,106.845848 149.948746,106.991882 
M92.667168,112.029732 
	C90.054581,124.602806 87.442001,137.175873 84.889450,149.460052 
	C94.257767,150.810867 104.455681,151.854919 106.555023,137.374283 
	C110.177467,137.374283 113.850754,137.171249 117.479332,137.485062 
	C118.738968,137.593994 120.784981,138.833939 120.947853,139.811264 
	C122.491013,149.070648 128.314133,151.137024 136.561966,149.776230 
	C138.465485,149.462173 140.464996,149.729889 142.997437,149.729889 
	C134.817215,130.397781 131.795425,110.630821 133.987320,90.274086 
	C130.843750,89.976555 128.175461,89.724007 125.025726,89.425896 
	C127.344887,83.981453 129.325607,79.331505 131.306824,74.680412 
	C118.817505,74.680412 106.919647,74.680412 94.364624,74.680412 
	C96.539345,79.747986 98.437714,84.171585 100.505486,88.989944 
	C99.145134,88.989944 98.490692,88.983696 97.836388,88.990921 
	C91.562111,89.060173 91.810898,89.038826 92.352264,95.160683 
	C92.819565,100.444916 92.634933,105.786812 92.667168,112.029732 
M106.077972,173.641434 
	C143.998444,178.023315 172.735748,148.341888 173.753403,117.344337 
	C163.526794,117.344337 153.306610,117.344337 142.994263,117.344337 
	C142.994263,118.350647 142.980789,119.015266 142.996338,119.679207 
	C143.162674,126.787392 143.716843,127.343521 150.622711,127.345581 
	C154.353561,127.346695 158.084412,127.345779 161.943741,127.345779 
	C157.068268,148.340439 135.099030,164.786102 113.140083,164.458038 
	C91.045441,164.127914 69.437462,147.466614 65.292336,127.144394 
	C71.439011,127.144394 77.502037,127.144394 83.824516,127.144394 
	C84.074509,123.596527 84.290871,120.525986 84.521690,117.250320 
	C73.890030,117.250320 63.625202,117.250320 53.350060,117.250320 
	C54.633434,145.703323 76.548347,169.347900 106.077972,173.641434 
z"/>
<path fill="#9B0438" opacity="1.000000" stroke="none" 
	d="
M92.702843,111.566467 
	C92.634933,105.786812 92.819565,100.444916 92.352264,95.160683 
	C91.810898,89.038826 91.562111,89.060173 97.836388,88.990921 
	C98.490692,88.983696 99.145134,88.989944 100.505486,88.989944 
	C98.437714,84.171585 96.539345,79.747986 94.364624,74.680412 
	C106.919647,74.680412 118.817505,74.680412 131.306824,74.680412 
	C129.325607,79.331505 127.344887,83.981453 125.025726,89.425896 
	C128.175461,89.724007 130.843750,89.976555 133.987320,90.274086 
	C131.795425,110.630821 134.817215,130.397781 142.997437,149.729889 
	C140.464996,149.729889 138.465485,149.462173 136.561966,149.776230 
	C128.314133,151.137024 122.491013,149.070648 120.947853,139.811264 
	C120.784981,138.833939 118.738968,137.593994 117.479332,137.485062 
	C113.850754,137.171249 110.177467,137.374283 106.555023,137.374283 
	C104.455681,151.854919 94.257767,150.810867 84.889450,149.460052 
	C87.442001,137.175873 90.054581,124.602806 92.702843,111.566467 
z"/>
<path fill="#9B0537" opacity="1.000000" stroke="none" 
	d="
M105.643417,173.539703 
	C76.548347,169.347900 54.633434,145.703323 53.350060,117.250320 
	C63.625202,117.250320 73.890030,117.250320 84.521690,117.250320 
	C84.290871,120.525986 84.074509,123.596527 83.824516,127.144394 
	C77.502037,127.144394 71.439011,127.144394 65.292336,127.144394 
	C69.437462,147.466614 91.045441,164.127914 113.140083,164.458038 
	C135.099030,164.786102 157.068268,148.340439 161.943741,127.345779 
	C158.084412,127.345779 154.353561,127.346695 150.622711,127.345581 
	C143.716843,127.343521 143.162674,126.787392 142.996338,119.679207 
	C142.980789,119.015266 142.994263,118.350647 142.994263,117.344337 
	C153.306610,117.344337 163.526794,117.344337 173.753403,117.344337 
	C172.735748,148.341888 143.998444,178.023315 105.643417,173.539703 
z"/>
<path fill="#9B0638" opacity="1.000000" stroke="none" 
	d="
M149.024582,106.845848 
	C147.221680,106.845848 145.418793,106.845848 143.083725,106.845848 
	C143.500443,103.436699 143.891510,100.237289 144.351013,96.478012 
	C149.892944,96.478012 155.292664,96.478012 161.385117,96.478012 
	C154.125931,79.428856 142.465042,68.701828 125.273163,63.950569 
	C123.142326,63.361683 120.065147,61.689747 119.702057,60.023739 
	C118.410805,54.098907 120.010582,52.796021 126.036018,54.294289 
	C151.069580,60.519077 166.722290,76.192368 172.641190,101.913651 
	C172.102997,105.138519 170.849884,106.063240 168.141251,106.076897 
	C161.767899,106.109039 155.396667,106.562729 149.024582,106.845848 
z"/>
<path fill="#9B0638" opacity="1.000000" stroke="none" 
	d="
M54.228455,102.039291 
	C58.260860,74.856117 86.992813,52.173382 106.690605,54.901691 
	C108.178970,61.627434 107.614838,62.363548 101.229805,64.173782 
	C84.481171,68.922218 72.947853,79.539680 65.902885,96.086929 
	C71.729897,96.086929 77.098694,96.086929 82.606918,96.086929 
	C83.092209,98.078018 83.478493,99.662903 83.587425,101.928383 
	C83.134644,105.282486 81.743973,106.125450 79.076111,106.048164 
	C72.777969,105.865692 66.457794,105.755074 60.172512,106.095276 
	C56.799095,106.277870 54.940449,105.260437 54.228455,102.039291 
z"/>
<path fill="#950322" opacity="1.000000" stroke="none" 
	d="
M54.112110,102.487854 
	C54.940449,105.260437 56.799095,106.277870 60.172512,106.095276 
	C66.457794,105.755074 72.777969,105.865692 79.076111,106.048164 
	C81.743973,106.125450 83.134644,105.282486 83.558670,102.325760 
	C83.940742,103.511002 84.074219,104.979469 84.233902,106.736183 
	C74.059364,106.736183 64.083817,106.736183 53.995766,106.736183 
	C53.995766,105.458725 53.995766,104.197571 54.112110,102.487854 
z"/>
<path fill="#970628" opacity="1.000000" stroke="none" 
	d="
M149.486664,106.918869 
	C155.396667,106.562729 161.767899,106.109039 168.141251,106.076897 
	C170.849884,106.063240 172.102997,105.138519 172.608047,102.299011 
	C173.131958,103.478195 173.394196,104.932526 173.765518,106.991882 
	C165.675186,106.991882 157.811966,106.991882 149.486664,106.918869 
z"/>
</svg>