<svg version="1.1" id="Layer_1" xmlns="http://www.w3.org/2000/svg" xmlns:xlink="http://www.w3.org/1999/xlink" x="0px" y="0px"
	 width="100%" viewBox="0 0 78 74" enable-background="new 0 0 78 74" xml:space="preserve">
<path fill="#FDFAFB" opacity="1.000000" stroke="none" 
	d="
M50.000000,75.000000 
	C33.333332,75.000000 17.166666,75.000000 1.000000,75.000000 
	C1.000000,50.333332 1.000000,25.666666 1.000000,1.000000 
	C27.000000,1.000000 53.000000,1.000000 79.000000,1.000000 
	C79.000000,25.666666 79.000000,50.333332 79.000000,75.000000 
	C69.500000,75.000000 60.000000,75.000000 50.000000,75.000000 
M58.090340,12.695701 
	C55.368526,8.455220 53.688942,8.127387 49.901478,11.097349 
	C41.859406,17.403584 35.758816,17.410048 27.578485,10.949966 
	C25.187822,9.062037 22.845404,8.293679 20.537779,10.687850 
	C18.232349,13.079745 18.921032,15.515792 21.087439,17.682266 
	C25.546526,22.141489 29.822880,26.816984 34.602795,30.902279 
	C36.120625,32.199535 40.139389,33.068432 41.064144,32.156460 
	C47.070335,26.233284 52.538761,19.764811 58.090340,12.695701 
M14.613494,30.112995 
	C18.105036,37.209919 16.796507,43.413902 11.747629,49.406918 
	C10.639173,50.722652 11.497588,53.695400 11.450237,55.905075 
	C13.681626,55.842762 16.681808,56.684795 18.007858,55.557510 
	C23.049810,51.271320 27.782932,46.549080 32.107128,41.537395 
	C33.342209,40.105957 33.895775,36.201065 32.895779,35.046185 
	C28.027927,29.424404 22.675200,24.184088 17.111694,19.238974 
	C16.127974,18.364595 12.624073,18.852324 11.571479,19.947969 
	C10.543541,21.017948 10.733547,23.780094 11.195200,25.594206 
	C11.565884,27.050846 13.142350,28.200638 14.613494,30.112995 
M55.844498,23.315014 
	C52.784691,26.368181 49.701992,29.398830 46.670689,32.480042 
	C42.602356,36.615368 42.548988,38.968136 46.491600,42.971424 
	C50.340405,46.879456 54.290836,50.687428 58.137421,54.597603 
	C60.442238,56.940517 63.027855,58.637760 65.859192,55.918568 
	C68.638893,53.248970 67.145210,50.709572 64.957436,48.150589 
	C59.793064,42.109982 59.518188,34.570721 64.098022,28.479090 
	C66.194893,25.690050 69.490761,22.849031 65.770790,19.552750 
	C61.762127,16.000664 59.307182,20.077206 56.724789,22.482868 
	C56.603210,22.596127 56.488850,22.717134 55.844498,23.315014 
M41.060963,60.055714 
	C43.977581,61.508919 46.787834,63.278034 49.846943,64.308052 
	C52.009373,65.036156 55.380478,65.789749 56.659725,64.703651 
	C58.733219,62.943222 58.808441,59.962105 56.127197,57.509239 
	C51.719902,53.477325 47.598934,49.131439 43.377151,44.898075 
	C40.355167,41.867805 37.322433,41.812813 34.279507,44.818993 
	C30.024302,49.022804 25.817528,53.275864 21.542721,57.459511 
	C19.275560,59.678318 17.955063,62.170795 20.483494,64.794601 
	C22.932505,67.335983 25.252762,65.834068 27.991936,64.371803 
	C31.769920,62.354973 36.113792,61.398178 41.060963,60.055714 
z"/>
<path fill="#FC0634" opacity="1.000000" stroke="none" 
	d="
M58.136806,13.085295 
	C52.538761,19.764811 47.070335,26.233284 41.064144,32.156460 
	C40.139389,33.068432 36.120625,32.199535 34.602795,30.902279 
	C29.822880,26.816984 25.546526,22.141489 21.087439,17.682266 
	C18.921032,15.515792 18.232349,13.079745 20.537779,10.687850 
	C22.845404,8.293679 25.187822,9.062037 27.578485,10.949966 
	C35.758816,17.410048 41.859406,17.403584 49.901478,11.097349 
	C53.688942,8.127387 55.368526,8.455220 58.136806,13.085295 
z"/>
<path fill="#FD0533" opacity="1.000000" stroke="none" 
	d="
M14.398624,29.799793 
	C13.142350,28.200638 11.565884,27.050846 11.195200,25.594206 
	C10.733547,23.780094 10.543541,21.017948 11.571479,19.947969 
	C12.624073,18.852324 16.127974,18.364595 17.111694,19.238974 
	C22.675200,24.184088 28.027927,29.424404 32.895779,35.046185 
	C33.895775,36.201065 33.342209,40.105957 32.107128,41.537395 
	C27.782932,46.549080 23.049810,51.271320 18.007858,55.557510 
	C16.681808,56.684795 13.681626,55.842762 11.450237,55.905075 
	C11.497588,53.695400 10.639173,50.722652 11.747629,49.406918 
	C16.796507,43.413902 18.105036,37.209919 14.398624,29.799793 
z"/>
<path fill="#FC0432" opacity="1.000000" stroke="none" 
	d="
M56.107811,23.074774 
	C56.488850,22.717134 56.603210,22.596127 56.724789,22.482868 
	C59.307182,20.077206 61.762127,16.000664 65.770790,19.552750 
	C69.490761,22.849031 66.194893,25.690050 64.098022,28.479090 
	C59.518188,34.570721 59.793064,42.109982 64.957436,48.150589 
	C67.145210,50.709572 68.638893,53.248970 65.859192,55.918568 
	C63.027855,58.637760 60.442238,56.940517 58.137421,54.597603 
	C54.290836,50.687428 50.340405,46.879456 46.491600,42.971424 
	C42.548988,38.968136 42.602356,36.615368 46.670689,32.480042 
	C49.701992,29.398830 52.784691,26.368181 56.107811,23.074774 
z"/>
<path fill="#FD0332" opacity="1.000000" stroke="none" 
	d="
M40.638115,60.021523 
	C36.113792,61.398178 31.769920,62.354973 27.991936,64.371803 
	C25.252762,65.834068 22.932505,67.335983 20.483494,64.794601 
	C17.955063,62.170795 19.275560,59.678318 21.542721,57.459511 
	C25.817528,53.275864 30.024302,49.022804 34.279507,44.818993 
	C37.322433,41.812813 40.355167,41.867805 43.377151,44.898075 
	C47.598934,49.131439 51.719902,53.477325 56.127197,57.509239 
	C58.808441,59.962105 58.733219,62.943222 56.659725,64.703651 
	C55.380478,65.789749 52.009373,65.036156 49.846943,64.308052 
	C46.787834,63.278034 43.977581,61.508919 40.638115,60.021523 
z"/>
</svg>