<svg version="1.1" id="Layer_1" xmlns="http://www.w3.org/2000/svg" xmlns:xlink="http://www.w3.org/1999/xlink" x="0px" y="0px"
	 width="100%" viewBox="0 0 1280 1280" enable-background="new 0 0 1280 1280" xml:space="preserve">
<path fill="#0B8F7A" opacity="1.000000" stroke="none" 
	d="
M1.000003,689.000000 
	C1.000000,655.645752 1.000000,622.291565 1.425752,588.547302 
	C2.222088,587.478088 2.850564,586.825439 2.923428,586.115662 
	C3.664053,578.901428 4.098904,571.649780 5.034763,564.462769 
	C6.923360,549.959106 8.488774,535.377869 11.232965,521.028564 
	C16.815662,491.836792 23.938738,462.974823 34.176601,435.033905 
	C41.407349,415.300018 48.746197,395.531677 57.478916,376.438263 
	C73.465134,341.485718 92.654816,308.276794 114.990784,276.914673 
	C131.472382,253.772720 149.045593,231.465652 168.758743,211.075104 
	C185.693359,193.558517 203.539566,176.824203 221.960815,160.873642 
	C238.237411,146.780106 255.309311,133.444473 273.010590,121.190643 
	C308.922363,96.330467 346.658539,74.497368 386.806976,57.048603 
	C412.173767,46.024025 438.277100,37.102100 464.999115,30.036734 
	C497.924377,21.331215 531.253723,14.734816 565.256714,11.983222 
	C582.696533,10.571949 600.139648,8.413230 617.598938,8.224497 
	C640.645020,7.975372 663.712708,9.210857 686.762390,10.047953 
	C696.662659,10.407498 706.616943,10.821086 716.413025,12.176508 
	C734.950867,14.741488 753.567932,17.196888 771.830566,21.174191 
	C796.803467,26.612858 821.778320,32.447189 846.187073,39.950695 
	C867.641541,46.546040 888.434998,55.380741 909.309570,63.752010 
	C936.599854,74.696205 962.022827,89.301262 986.626770,105.260017 
	C1000.267029,114.107422 1013.646912,123.440765 1026.522339,133.362030 
	C1043.354126,146.332047 1059.833740,159.794540 1075.948242,173.646118 
	C1084.833130,181.283264 1092.853027,189.968719 1100.916260,198.508926 
	C1111.142334,209.339905 1121.612793,220.025467 1130.906616,231.631516 
	C1146.118286,250.627563 1161.095947,269.877655 1174.976440,289.851593 
	C1185.926270,305.608337 1195.874756,322.194183 1204.833130,339.169128 
	C1217.193237,362.590118 1229.454712,386.214417 1239.419800,410.703308 
	C1248.360474,432.675018 1255.005249,455.705048 1261.062134,478.690033 
	C1266.779297,500.386444 1270.864624,522.552002 1274.787720,544.667297 
	C1277.083374,557.608704 1277.617920,570.860046 1279.076904,583.957153 
	C1279.196411,585.029541 1280.334961,585.988403 1281.000000,587.000000 
	C1281.000000,620.020874 1281.000000,653.041809 1280.575562,686.450256 
	C1279.779663,687.516602 1279.149414,688.168823 1279.076538,688.878235 
	C1278.335815,696.094116 1277.930298,703.352234 1276.961426,710.535217 
	C1274.720825,727.146484 1272.961914,743.871948 1269.662842,760.280579 
	C1263.678955,790.041138 1256.532349,819.588257 1245.804199,848.052612 
	C1237.695312,869.567749 1229.421631,891.086182 1219.817749,911.957275 
	C1204.650024,944.919678 1186.209839,976.078003 1165.187500,1005.737854 
	C1147.110596,1031.241943 1127.113770,1055.094604 1105.629883,1077.722778 
	C1097.862305,1085.904053 1089.520142,1093.556152 1081.220093,1101.211060 
	C1071.981567,1109.731323 1062.965332,1118.598267 1053.010986,1126.214722 
	C1033.697021,1140.992554 1014.147827,1155.520752 994.043518,1169.192627 
	C970.472595,1185.222046 945.433594,1198.810425 919.558716,1210.862793 
	C892.405701,1223.510620 864.827026,1235.075195 836.027466,1243.366089 
	C815.075195,1249.398193 794.036194,1255.374512 772.706665,1259.782349 
	C751.181702,1264.230591 729.309265,1267.182861 707.478577,1269.905396 
	C690.795410,1271.985840 673.959229,1273.367188 657.156677,1273.842163 
	C631.129761,1274.577881 605.084839,1274.080322 579.158020,1271.027710 
	C566.563171,1269.545044 553.790039,1269.089355 541.366394,1266.744507 
	C518.331909,1262.396606 495.370117,1257.511353 472.603882,1251.928833 
	C435.633423,1242.863647 400.180054,1229.315796 365.729156,1213.237427 
	C330.733551,1196.904663 297.521912,1177.456665 266.028198,1155.049438 
	C241.523941,1137.615112 218.320724,1118.591064 196.605270,1097.852417 
	C183.656815,1085.486328 171.457001,1072.279907 159.566650,1058.878174 
	C147.760544,1045.571533 136.203934,1031.966797 125.537521,1017.743164 
	C107.475266,993.657410 91.207947,968.319641 76.994308,941.754700 
	C60.819351,911.524109 46.704102,880.338928 35.496716,847.904175 
	C25.672739,819.473145 17.906137,790.467163 12.135289,760.944336 
	C10.213919,751.114929 8.349680,741.249878 7.094069,731.320862 
	C5.400033,717.924927 4.346806,704.448486 2.900491,691.019348 
	C2.821561,690.286499 1.658447,689.670410 1.000003,689.000000 
M591.802673,538.784180 
	C587.485596,541.024963 582.235596,542.080933 579.733398,548.169067 
	C585.768982,546.317322 590.522339,544.296875 593.431824,538.854553 
	C593.113525,538.763306 592.795227,538.672058 591.802673,538.784180 
M597.773010,634.005615 
	C601.945068,632.176208 605.812195,628.444885 611.082397,631.699890 
	C607.846313,640.179077 596.731689,642.124084 595.204041,651.547607 
	C599.566650,647.886536 603.467224,643.827698 607.536194,639.945251 
	C612.272583,635.426147 616.063782,634.830994 620.895630,637.644592 
	C620.176331,641.325928 613.681152,642.892822 616.974548,648.536804 
	C623.789917,646.072815 630.529663,637.772888 637.042053,646.532776 
	C641.598206,646.267334 645.541260,646.300659 649.394470,645.728638 
	C652.397827,645.282776 656.472046,645.029114 658.040039,643.067383 
	C668.761292,629.652893 683.705200,624.711426 699.472961,620.966980 
	C710.950745,618.241394 722.338501,615.137817 733.779663,612.255554 
	C737.141174,611.408691 738.959900,609.915649 737.965942,605.986328 
	C736.888123,601.725098 739.154846,598.393066 742.426758,596.152710 
	C745.111389,594.314453 748.238098,592.756470 751.388672,592.037354 
	C758.679321,590.373169 766.159424,589.533386 773.438965,587.830139 
	C775.644897,587.314087 777.446228,585.066040 779.430969,583.608582 
	C782.027832,581.701721 784.378540,579.145630 787.281006,578.049866 
	C790.791565,576.724426 794.909607,577.064819 798.503296,575.886780 
	C802.014648,574.735840 805.879211,573.255676 808.381104,570.725830 
	C813.542053,565.506897 815.917297,564.106323 822.115234,567.250061 
	C828.010986,570.240417 833.323059,570.477905 839.679688,568.334656 
	C847.666809,565.641602 856.155945,564.426270 864.442200,562.637085 
	C867.646240,561.945312 870.880920,560.972839 874.114075,560.922119 
	C881.929810,560.799438 888.965942,563.879456 894.755371,568.697571 
	C902.918945,575.491516 911.177063,582.456604 917.999023,590.528137 
	C946.310120,624.025024 979.709595,651.132629 1017.975891,672.375977 
	C1025.498047,676.551880 1033.078125,680.623413 1040.631592,684.743164 
	C1040.893555,684.310791 1041.155640,683.878479 1041.417603,683.446106 
	C1021.976929,670.741394 1000.872131,660.529907 982.214600,645.795898 
	C986.089294,642.377563 989.346985,642.865479 992.704285,645.108643 
	C998.794312,649.177795 1004.849060,653.302673 1011.007935,657.265381 
	C1024.723999,666.090393 1039.251221,673.851746 1052.102051,683.787292 
	C1090.666626,713.603394 1132.355469,737.896423 1176.891357,757.480042 
	C1178.392700,758.140259 1179.993530,758.573975 1181.338745,759.040710 
	C1180.772949,756.116760 1180.318848,753.769653 1179.607544,750.093811 
	C1183.997681,752.531189 1186.972046,754.182495 1188.647339,755.112610 
	C1193.699707,752.670044 1197.697144,750.737549 1201.838013,748.735596 
	C1198.030396,742.249939 1191.666016,739.002258 1185.337158,735.645691 
	C1165.949219,725.362976 1146.431763,715.308105 1127.279663,704.601318 
	C1105.455688,692.400696 1084.372803,679.003235 1065.495117,662.437500 
	C1063.452148,660.644714 1061.548096,658.693481 1059.579590,656.815796 
	C1061.490234,656.533264 1062.771240,657.079285 1063.944214,657.800903 
	C1070.750244,661.987793 1077.535278,666.209351 1084.319702,670.431519 
	C1112.867798,688.197876 1141.547852,705.729187 1172.173218,719.798340 
	C1177.236450,722.124390 1182.599243,723.715820 1186.035034,728.893127 
	C1187.247192,730.719666 1190.540771,731.645203 1193.030396,732.026917 
	C1196.431152,732.548401 1199.972046,732.157104 1203.621948,732.157104 
	C1203.354126,730.749390 1203.137451,729.609802 1202.803833,727.856323 
	C1209.729126,727.856323 1216.244995,727.856323 1223.014893,727.856323 
	C1221.253906,722.684265 1217.448853,720.671021 1213.328735,719.188293 
	C1209.109497,717.669800 1204.645386,716.759216 1200.560913,714.962769 
	C1197.465698,713.601501 1194.798462,711.267212 1191.940796,709.365845 
	C1192.224121,708.713257 1192.507446,708.060669 1192.790649,707.408142 
	C1198.445190,708.054260 1204.099609,708.700439 1209.593872,709.328247 
	C1208.877808,708.178345 1207.216675,706.743774 1207.329834,705.466248 
	C1207.703369,701.248291 1204.695923,700.846680 1201.990967,699.681458 
	C1191.761230,695.274841 1181.452026,691.020386 1171.416870,686.200439 
	C1131.626831,667.088562 1095.267822,642.418457 1059.729980,616.489929 
	C1044.687500,605.514893 1029.057739,595.069519 1015.436279,582.496765 
	C1000.921814,569.099792 988.595337,553.351807 975.071960,538.855652 
	C963.651917,526.614136 951.318665,515.261719 935.520203,508.976257 
	C928.912048,506.347168 924.820251,502.209015 922.085083,496.081238 
	C921.136292,493.955536 920.073853,491.880737 919.074768,489.777252 
	C916.377197,484.097382 913.685852,478.414551 910.940918,472.625092 
	C908.760193,473.582245 907.141968,474.292542 904.770325,475.333527 
	C902.049988,470.153931 899.275146,465.267609 896.878174,460.202515 
	C894.107666,454.348206 892.048218,448.134033 889.001282,442.439240 
	C884.103882,433.285553 867.200806,426.790100 857.638367,429.336273 
	C852.908081,430.595825 847.834412,431.227203 842.947693,431.081543 
	C835.818054,430.869019 828.730164,429.477966 821.596802,429.054047 
	C818.926270,428.895355 816.178406,430.039612 812.117126,430.863342 
	C815.914429,432.970764 818.171387,434.223328 820.438599,435.481567 
	C815.528442,443.304596 811.496338,444.080078 804.543152,438.784760 
	C803.747925,438.179138 802.969849,437.550629 802.190430,436.924561 
	C775.725891,415.666626 754.845215,389.203613 733.562622,363.128235 
	C732.738403,362.118500 732.487244,360.068329 732.854370,358.749298 
	C735.896301,347.817780 733.075195,338.440491 724.818665,331.095490 
	C717.873352,324.916992 710.067688,319.716858 702.892761,313.781586 
	C697.139771,309.022644 691.785706,303.783691 686.205078,298.813293 
	C683.996826,296.846527 681.880493,294.617523 679.331421,293.221954 
	C671.440002,288.901611 662.686096,287.491272 654.141602,289.652313 
	C640.800171,293.026489 627.769470,297.617645 614.555176,301.517151 
	C612.297913,302.183258 609.596497,302.653809 607.412476,302.062195 
	C575.217896,293.341248 542.387146,288.137054 509.481110,282.973755 
	C493.463531,280.460419 482.313385,285.470215 473.240173,297.774902 
	C472.153076,299.249176 471.027130,300.694763 469.933197,302.164062 
	C457.466370,318.908630 446.973083,336.821167 437.883606,355.606750 
	C426.789459,378.535370 415.540771,401.357086 399.350464,421.364563 
	C395.172089,426.528076 390.331879,429.441467 384.177155,430.979584 
	C378.226593,432.466736 371.764374,433.165009 366.574921,436.077301 
	C361.604218,438.866791 356.730286,439.505768 351.473938,439.943878 
	C331.982239,441.568451 314.313416,448.604401 297.694855,458.494537 
	C295.434021,459.840088 294.033997,462.581757 292.101776,464.545502 
	C290.500671,466.172729 288.199829,467.301727 287.067627,469.171387 
	C271.702515,494.545074 252.430649,515.380981 223.975113,526.506470 
	C196.767715,537.143982 171.296295,551.346130 146.792679,567.116760 
	C123.031815,582.409424 98.275261,596.607666 83.009018,622.103394 
	C79.093887,628.641968 72.450394,633.582825 66.903381,639.099915 
	C58.639198,647.319519 50.215984,655.379089 41.913864,663.560913 
	C40.762909,664.695129 39.916859,666.138855 38.929665,667.439270 
	C39.485115,667.888245 40.040565,668.337219 40.596016,668.786194 
	C44.320042,664.716675 48.294689,660.844971 51.702572,656.526001 
	C55.668610,651.499634 60.251774,648.767883 66.848297,650.305542 
	C70.336540,660.124695 59.954666,663.174316 56.952892,670.076233 
	C62.448086,668.389587 67.587975,666.812012 72.727867,665.234436 
	C73.209030,666.002258 73.690186,666.770081 74.171349,667.537903 
	C69.366669,672.548828 64.561989,677.559753 61.966190,680.267029 
	C62.479507,681.998535 62.996738,683.662354 63.465137,685.339722 
	C64.536530,689.176636 67.176437,689.145752 70.119057,687.918884 
	C73.800026,686.384338 77.289330,684.269470 81.082230,683.160461 
	C84.367180,682.200012 87.960457,682.294006 91.417450,681.921936 
	C91.491882,682.384949 91.566315,682.847900 91.640747,683.310852 
	C84.732750,690.937683 77.824753,698.564453 71.086220,706.004150 
	C84.773506,704.967346 93.410042,693.327515 104.505882,686.386963 
	C104.761742,686.790405 105.017601,687.193848 105.273453,687.597351 
	C101.784828,692.596619 98.296211,697.595947 94.807587,702.595276 
	C95.070389,702.787598 95.333191,702.979980 95.595985,703.172302 
	C99.665886,700.152405 103.735779,697.132507 108.042267,693.937073 
	C110.719322,699.646118 100.339241,702.360962 106.290382,709.253784 
	C114.057693,701.437195 121.540062,693.907349 129.022415,686.377563 
	C129.428543,686.771301 129.834671,687.165039 130.240799,687.558777 
	C127.782890,697.094971 119.511223,702.860535 114.748383,711.147705 
	C119.551918,708.516052 124.026482,705.503601 128.183701,702.103088 
	C129.463333,701.056458 130.613510,698.914917 130.538483,697.335754 
	C130.359344,693.565002 132.685745,691.690186 135.001694,689.538940 
	C142.680511,682.406250 150.779739,675.649109 157.837280,667.941711 
	C169.863358,654.808289 180.990128,640.854431 192.920486,627.629395 
	C206.425720,612.658447 221.540588,599.390137 240.925751,592.740479 
	C252.519669,588.763306 263.522919,583.955322 274.440460,578.427063 
	C285.213928,572.971741 296.971863,569.470886 308.265259,565.029663 
	C322.545441,559.413818 335.666718,552.223999 344.783112,539.180969 
	C348.232178,534.246399 353.068817,531.032776 359.460449,531.777527 
	C360.780090,525.404602 363.973633,521.710938 369.131195,521.659241 
	C371.162323,521.638855 373.215179,523.783936 375.854980,525.281555 
	C383.428680,517.192749 394.661560,513.774719 406.073517,510.401764 
	C414.627380,507.873535 423.104279,504.804169 431.173340,501.030396 
	C435.470154,499.020844 439.595703,496.464844 443.828796,494.244812 
	C452.386993,489.756378 460.597931,483.984070 467.624603,477.337769 
	C479.156189,466.430298 487.989014,453.218323 495.995056,439.474426 
	C498.989044,434.334686 502.938263,429.751862 506.445892,424.910736 
	C509.630585,420.515228 512.984436,416.229401 515.944824,411.687378 
	C520.203491,405.153412 523.828979,398.177124 528.445923,391.921997 
	C530.147400,389.616821 533.814209,387.766144 536.727112,387.539612 
	C545.169556,386.883087 553.700256,386.820099 562.163330,387.220764 
	C565.792725,387.392639 570.520264,388.202850 572.714478,390.591644 
	C580.786743,399.379456 590.793274,402.184296 602.005676,401.844391 
	C610.820129,401.577179 619.604797,400.421326 628.419067,400.015930 
	C633.158997,399.797943 638.889648,397.544220 641.373901,404.400208 
	C641.463684,404.647980 641.901978,404.920532 642.182678,404.925873 
	C648.242249,405.040497 652.414612,407.718842 656.208191,412.685394 
	C660.676270,418.534943 667.396362,422.707275 671.647156,428.670929 
	C680.385315,440.930115 688.129761,453.897644 696.419678,466.785797 
	C695.032654,467.758453 692.979675,469.134064 690.994507,470.601410 
	C682.841370,476.627625 675.663391,483.533813 672.207520,493.364075 
	C671.212219,496.195190 669.825989,497.732941 667.125549,499.255768 
	C664.800964,500.566711 663.212219,503.880249 662.213379,506.639618 
	C661.296143,509.173889 661.600525,512.150391 661.428894,514.192078 
	C665.771179,515.933594 669.749207,517.528992 673.727173,519.124390 
	C673.783936,519.878662 673.840759,520.632996 673.897522,521.387329 
	C663.416138,527.272339 652.848450,533.010010 642.477417,539.083496 
	C631.860718,545.300842 621.436768,551.847229 610.730896,558.370056 
	C614.138489,563.319336 608.800049,564.052063 607.021118,566.414734 
	C604.859680,569.285400 602.236267,571.808289 600.405334,573.827942 
	C602.312561,575.624268 604.340210,577.533936 606.549561,579.614807 
	C611.944641,579.612976 615.773438,572.196594 623.085388,575.548645 
	C628.362427,577.967773 634.430237,578.661926 640.145386,580.125488 
	C640.139160,580.731018 640.132996,581.336548 640.126770,581.942139 
	C630.158630,589.801270 620.190430,597.660339 609.527466,606.067322 
	C613.261108,606.271301 615.983215,606.419983 619.283325,606.600281 
	C614.532959,617.749817 600.624756,615.261414 595.827332,624.177673 
	C596.884338,626.512268 597.429443,628.821411 597.690796,631.162292 
	C597.802429,632.161865 597.321838,633.227478 596.890869,633.760376 
	C596.695496,633.960388 596.500061,634.160461 596.304688,634.360474 
	C596.553345,634.274963 596.801941,634.189392 597.773010,634.005615 
M602.999451,546.547241 
	C599.664978,547.914185 596.228943,549.081848 593.028381,550.711609 
	C590.509155,551.994446 588.280212,553.847168 585.922363,555.446777 
	C586.255981,556.064270 586.589600,556.681763 586.923157,557.299255 
	C588.899048,556.721924 590.987854,556.386230 592.830750,555.524414 
	C599.826477,552.252808 605.796326,546.537537 614.220642,546.683533 
	C614.629089,546.690613 615.154846,546.310913 615.441528,545.960388 
	C617.802673,543.073181 620.120117,540.150330 622.341431,537.374817 
	C619.989502,537.138977 617.374817,536.876770 614.760132,536.614624 
	C614.536682,535.966797 614.313171,535.319031 614.089722,534.671265 
	C610.546875,538.432129 607.004028,542.193054 602.999451,546.547241 
z"/>
<path fill="#000000" opacity="1.000000" stroke="none" 
	d="
M1.000003,689.468628 
	C1.658447,689.670410 2.821561,690.286499 2.900491,691.019348 
	C4.346806,704.448486 5.400033,717.924927 7.094069,731.320862 
	C8.349680,741.249878 10.213919,751.114929 12.135289,760.944336 
	C17.906137,790.467163 25.672739,819.473145 35.496716,847.904175 
	C46.704102,880.338928 60.819351,911.524109 76.994308,941.754700 
	C91.207947,968.319641 107.475266,993.657410 125.537521,1017.743164 
	C136.203934,1031.966797 147.760544,1045.571533 159.566650,1058.878174 
	C171.457001,1072.279907 183.656815,1085.486328 196.605270,1097.852417 
	C218.320724,1118.591064 241.523941,1137.615112 266.028198,1155.049438 
	C297.521912,1177.456665 330.733551,1196.904663 365.729156,1213.237427 
	C400.180054,1229.315796 435.633423,1242.863647 472.603882,1251.928833 
	C495.370117,1257.511353 518.331909,1262.396606 541.366394,1266.744507 
	C553.790039,1269.089355 566.563171,1269.545044 579.158020,1271.027710 
	C605.084839,1274.080322 631.129761,1274.577881 657.156677,1273.842163 
	C673.959229,1273.367188 690.795410,1271.985840 707.478577,1269.905396 
	C729.309265,1267.182861 751.181702,1264.230591 772.706665,1259.782349 
	C794.036194,1255.374512 815.075195,1249.398193 836.027466,1243.366089 
	C864.827026,1235.075195 892.405701,1223.510620 919.558716,1210.862793 
	C945.433594,1198.810425 970.472595,1185.222046 994.043518,1169.192627 
	C1014.147827,1155.520752 1033.697021,1140.992554 1053.010986,1126.214722 
	C1062.965332,1118.598267 1071.981567,1109.731323 1081.220093,1101.211060 
	C1089.520142,1093.556152 1097.862305,1085.904053 1105.629883,1077.722778 
	C1127.113770,1055.094604 1147.110596,1031.241943 1165.187500,1005.737854 
	C1186.209839,976.078003 1204.650024,944.919678 1219.817749,911.957275 
	C1229.421631,891.086182 1237.695312,869.567749 1245.804199,848.052612 
	C1256.532349,819.588257 1263.678955,790.041138 1269.662842,760.280579 
	C1272.961914,743.871948 1274.720825,727.146484 1276.961426,710.535217 
	C1277.930298,703.352234 1278.335815,696.094116 1279.076538,688.878235 
	C1279.149414,688.168823 1279.779663,687.516602 1280.575562,686.918945 
	C1281.000000,884.964966 1281.000000,1082.929932 1281.000000,1280.947510 
	C854.443787,1280.947510 427.887604,1280.947510 1.000000,1280.947510 
	C1.000000,1083.979248 1.000000,886.958252 1.000003,689.468628 
z"/>
<path fill="#000000" opacity="1.000000" stroke="none" 
	d="
M1281.000000,586.531372 
	C1280.334961,585.988403 1279.196411,585.029541 1279.076904,583.957153 
	C1277.617920,570.860046 1277.083374,557.608704 1274.787720,544.667297 
	C1270.864624,522.552002 1266.779297,500.386444 1261.062134,478.690033 
	C1255.005249,455.705048 1248.360474,432.675018 1239.419800,410.703308 
	C1229.454712,386.214417 1217.193237,362.590118 1204.833130,339.169128 
	C1195.874756,322.194183 1185.926270,305.608337 1174.976440,289.851593 
	C1161.095947,269.877655 1146.118286,250.627563 1130.906616,231.631516 
	C1121.612793,220.025467 1111.142334,209.339905 1100.916260,198.508926 
	C1092.853027,189.968719 1084.833130,181.283264 1075.948242,173.646118 
	C1059.833740,159.794540 1043.354126,146.332047 1026.522339,133.362030 
	C1013.646912,123.440765 1000.267029,114.107422 986.626770,105.260017 
	C962.022827,89.301262 936.599854,74.696205 909.309570,63.752010 
	C888.434998,55.380741 867.641541,46.546040 846.187073,39.950695 
	C821.778320,32.447189 796.803467,26.612858 771.830566,21.174191 
	C753.567932,17.196888 734.950867,14.741488 716.413025,12.176508 
	C706.616943,10.821086 696.662659,10.407498 686.762390,10.047953 
	C663.712708,9.210857 640.645020,7.975372 617.598938,8.224497 
	C600.139648,8.413230 582.696533,10.571949 565.256714,11.983222 
	C531.253723,14.734816 497.924377,21.331215 464.999115,30.036734 
	C438.277100,37.102100 412.173767,46.024025 386.806976,57.048603 
	C346.658539,74.497368 308.922363,96.330467 273.010590,121.190643 
	C255.309311,133.444473 238.237411,146.780106 221.960815,160.873642 
	C203.539566,176.824203 185.693359,193.558517 168.758743,211.075104 
	C149.045593,231.465652 131.472382,253.772720 114.990784,276.914673 
	C92.654816,308.276794 73.465134,341.485718 57.478916,376.438263 
	C48.746197,395.531677 41.407349,415.300018 34.176601,435.033905 
	C23.938738,462.974823 16.815662,491.836792 11.232965,521.028564 
	C8.488774,535.377869 6.923360,549.959106 5.034763,564.462769 
	C4.098904,571.649780 3.664053,578.901428 2.923428,586.115662 
	C2.850564,586.825439 2.222088,587.478088 1.425752,588.078613 
	C1.000000,392.368134 1.000000,196.736252 1.000000,1.052185 
	C427.556030,1.052185 854.112061,1.052185 1281.000000,1.052185 
	C1281.000000,196.020767 1281.000000,391.041718 1281.000000,586.531372 
z"/>
<path fill="#FEFFFE" opacity="1.000000" stroke="none" 
	d="
M597.110352,634.263123 
	C597.321838,633.227478 597.802429,632.161865 597.690796,631.162292 
	C597.429443,628.821411 596.884338,626.512268 595.827332,624.177673 
	C600.624756,615.261414 614.532959,617.749817 619.283325,606.600281 
	C615.983215,606.419983 613.261108,606.271301 609.527466,606.067322 
	C620.190430,597.660339 630.158630,589.801270 640.126770,581.942139 
	C640.132996,581.336548 640.139160,580.731018 640.145386,580.125488 
	C634.430237,578.661926 628.362427,577.967773 623.085388,575.548645 
	C615.773438,572.196594 611.944641,579.612976 606.549561,579.614807 
	C604.340210,577.533936 602.312561,575.624268 600.405334,573.827942 
	C602.236267,571.808289 604.859680,569.285400 607.021118,566.414734 
	C608.800049,564.052063 614.138489,563.319336 610.730896,558.370056 
	C621.436768,551.847229 631.860718,545.300842 642.477417,539.083496 
	C652.848450,533.010010 663.416138,527.272339 673.897522,521.387329 
	C673.840759,520.632996 673.783936,519.878662 673.727173,519.124390 
	C669.749207,517.528992 665.771179,515.933594 661.428894,514.192078 
	C661.600525,512.150391 661.296143,509.173889 662.213379,506.639618 
	C663.212219,503.880249 664.800964,500.566711 667.125549,499.255768 
	C669.825989,497.732941 671.212219,496.195190 672.207520,493.364075 
	C675.663391,483.533813 682.841370,476.627625 690.994507,470.601410 
	C692.979675,469.134064 695.032654,467.758453 696.419678,466.785797 
	C688.129761,453.897644 680.385315,440.930115 671.647156,428.670929 
	C667.396362,422.707275 660.676270,418.534943 656.208191,412.685394 
	C652.414612,407.718842 648.242249,405.040497 642.182678,404.925873 
	C641.901978,404.920532 641.463684,404.647980 641.373901,404.400208 
	C638.889648,397.544220 633.158997,399.797943 628.419067,400.015930 
	C619.604797,400.421326 610.820129,401.577179 602.005676,401.844391 
	C590.793274,402.184296 580.786743,399.379456 572.714478,390.591644 
	C570.520264,388.202850 565.792725,387.392639 562.163330,387.220764 
	C553.700256,386.820099 545.169556,386.883087 536.727112,387.539612 
	C533.814209,387.766144 530.147400,389.616821 528.445923,391.921997 
	C523.828979,398.177124 520.203491,405.153412 515.944824,411.687378 
	C512.984436,416.229401 509.630585,420.515228 506.445892,424.910736 
	C502.938263,429.751862 498.989044,434.334686 495.995056,439.474426 
	C487.989014,453.218323 479.156189,466.430298 467.624603,477.337769 
	C460.597931,483.984070 452.386993,489.756378 443.828796,494.244812 
	C439.595703,496.464844 435.470154,499.020844 431.173340,501.030396 
	C423.104279,504.804169 414.627380,507.873535 406.073517,510.401764 
	C394.661560,513.774719 383.428680,517.192749 375.854980,525.281555 
	C373.215179,523.783936 371.162323,521.638855 369.131195,521.659241 
	C363.973633,521.710938 360.780090,525.404602 359.460449,531.777527 
	C353.068817,531.032776 348.232178,534.246399 344.783112,539.180969 
	C335.666718,552.223999 322.545441,559.413818 308.265259,565.029663 
	C296.971863,569.470886 285.213928,572.971741 274.440460,578.427063 
	C263.522919,583.955322 252.519669,588.763306 240.925751,592.740479 
	C221.540588,599.390137 206.425720,612.658447 192.920486,627.629395 
	C180.990128,640.854431 169.863358,654.808289 157.837280,667.941711 
	C150.779739,675.649109 142.680511,682.406250 135.001694,689.538940 
	C132.685745,691.690186 130.359344,693.565002 130.538483,697.335754 
	C130.613510,698.914917 129.463333,701.056458 128.183701,702.103088 
	C124.026482,705.503601 119.551918,708.516052 114.748383,711.147705 
	C119.511223,702.860535 127.782890,697.094971 130.240799,687.558777 
	C129.834671,687.165039 129.428543,686.771301 129.022415,686.377563 
	C121.540062,693.907349 114.057693,701.437195 106.290382,709.253784 
	C100.339241,702.360962 110.719322,699.646118 108.042267,693.937073 
	C103.735779,697.132507 99.665886,700.152405 95.595985,703.172302 
	C95.333191,702.979980 95.070389,702.787598 94.807587,702.595276 
	C98.296211,697.595947 101.784828,692.596619 105.273453,687.597351 
	C105.017601,687.193848 104.761742,686.790405 104.505882,686.386963 
	C93.410042,693.327515 84.773506,704.967346 71.086220,706.004150 
	C77.824753,698.564453 84.732750,690.937683 91.640747,683.310852 
	C91.566315,682.847900 91.491882,682.384949 91.417450,681.921936 
	C87.960457,682.294006 84.367180,682.200012 81.082230,683.160461 
	C77.289330,684.269470 73.800026,686.384338 70.119057,687.918884 
	C67.176437,689.145752 64.536530,689.176636 63.465137,685.339722 
	C62.996738,683.662354 62.479507,681.998535 61.966190,680.267029 
	C64.561989,677.559753 69.366669,672.548828 74.171349,667.537903 
	C73.690186,666.770081 73.209030,666.002258 72.727867,665.234436 
	C67.587975,666.812012 62.448086,668.389587 56.952892,670.076233 
	C59.954666,663.174316 70.336540,660.124695 66.848297,650.305542 
	C60.251774,648.767883 55.668610,651.499634 51.702572,656.526001 
	C48.294689,660.844971 44.320042,664.716675 40.596016,668.786194 
	C40.040565,668.337219 39.485115,667.888245 38.929665,667.439270 
	C39.916859,666.138855 40.762909,664.695129 41.913864,663.560913 
	C50.215984,655.379089 58.639198,647.319519 66.903381,639.099915 
	C72.450394,633.582825 79.093887,628.641968 83.009018,622.103394 
	C98.275261,596.607666 123.031815,582.409424 146.792679,567.116760 
	C171.296295,551.346130 196.767715,537.143982 223.975113,526.506470 
	C252.430649,515.380981 271.702515,494.545074 287.067627,469.171387 
	C288.199829,467.301727 290.500671,466.172729 292.101776,464.545502 
	C294.033997,462.581757 295.434021,459.840088 297.694855,458.494537 
	C314.313416,448.604401 331.982239,441.568451 351.473938,439.943878 
	C356.730286,439.505768 361.604218,438.866791 366.574921,436.077301 
	C371.764374,433.165009 378.226593,432.466736 384.177155,430.979584 
	C390.331879,429.441467 395.172089,426.528076 399.350464,421.364563 
	C415.540771,401.357086 426.789459,378.535370 437.883606,355.606750 
	C446.973083,336.821167 457.466370,318.908630 469.933197,302.164062 
	C471.027130,300.694763 472.153076,299.249176 473.240173,297.774902 
	C482.313385,285.470215 493.463531,280.460419 509.481110,282.973755 
	C542.387146,288.137054 575.217896,293.341248 607.412476,302.062195 
	C609.596497,302.653809 612.297913,302.183258 614.555176,301.517151 
	C627.769470,297.617645 640.800171,293.026489 654.141602,289.652313 
	C662.686096,287.491272 671.440002,288.901611 679.331421,293.221954 
	C681.880493,294.617523 683.996826,296.846527 686.205078,298.813293 
	C691.785706,303.783691 697.139771,309.022644 702.892761,313.781586 
	C710.067688,319.716858 717.873352,324.916992 724.818665,331.095490 
	C733.075195,338.440491 735.896301,347.817780 732.854370,358.749298 
	C732.487244,360.068329 732.738403,362.118500 733.562622,363.128235 
	C754.845215,389.203613 775.725891,415.666626 802.190430,436.924561 
	C802.969849,437.550629 803.747925,438.179138 804.543152,438.784760 
	C811.496338,444.080078 815.528442,443.304596 820.438599,435.481567 
	C818.171387,434.223328 815.914429,432.970764 812.117126,430.863342 
	C816.178406,430.039612 818.926270,428.895355 821.596802,429.054047 
	C828.730164,429.477966 835.818054,430.869019 842.947693,431.081543 
	C847.834412,431.227203 852.908081,430.595825 857.638367,429.336273 
	C867.200806,426.790100 884.103882,433.285553 889.001282,442.439240 
	C892.048218,448.134033 894.107666,454.348206 896.878174,460.202515 
	C899.275146,465.267609 902.049988,470.153931 904.770325,475.333527 
	C907.141968,474.292542 908.760193,473.582245 910.940918,472.625092 
	C913.685852,478.414551 916.377197,484.097382 919.074768,489.777252 
	C920.073853,491.880737 921.136292,493.955536 922.085083,496.081238 
	C924.820251,502.209015 928.912048,506.347168 935.520203,508.976257 
	C951.318665,515.261719 963.651917,526.614136 975.071960,538.855652 
	C988.595337,553.351807 1000.921814,569.099792 1015.436279,582.496765 
	C1029.057739,595.069519 1044.687500,605.514893 1059.729980,616.489929 
	C1095.267822,642.418457 1131.626831,667.088562 1171.416870,686.200439 
	C1181.452026,691.020386 1191.761230,695.274841 1201.990967,699.681458 
	C1204.695923,700.846680 1207.703369,701.248291 1207.329834,705.466248 
	C1207.216675,706.743774 1208.877808,708.178345 1209.593872,709.328247 
	C1204.099609,708.700439 1198.445190,708.054260 1192.790649,707.408142 
	C1192.507446,708.060669 1192.224121,708.713257 1191.940796,709.365845 
	C1194.798462,711.267212 1197.465698,713.601501 1200.560913,714.962769 
	C1204.645386,716.759216 1209.109497,717.669800 1213.328735,719.188293 
	C1217.448853,720.671021 1221.253906,722.684265 1223.014893,727.856323 
	C1216.244995,727.856323 1209.729126,727.856323 1202.803833,727.856323 
	C1203.137451,729.609802 1203.354126,730.749390 1203.621948,732.157104 
	C1199.972046,732.157104 1196.431152,732.548401 1193.030396,732.026917 
	C1190.540771,731.645203 1187.247192,730.719666 1186.035034,728.893127 
	C1182.599243,723.715820 1177.236450,722.124390 1172.173218,719.798340 
	C1141.547852,705.729187 1112.867798,688.197876 1084.319702,670.431519 
	C1077.535278,666.209351 1070.750244,661.987793 1063.944214,657.800903 
	C1062.771240,657.079285 1061.490234,656.533264 1059.579590,656.815796 
	C1061.548096,658.693481 1063.452148,660.644714 1065.495117,662.437500 
	C1084.372803,679.003235 1105.455688,692.400696 1127.279663,704.601318 
	C1146.431763,715.308105 1165.949219,725.362976 1185.337158,735.645691 
	C1191.666016,739.002258 1198.030396,742.249939 1201.838013,748.735596 
	C1197.697144,750.737549 1193.699707,752.670044 1188.647339,755.112610 
	C1186.972046,754.182495 1183.997681,752.531189 1179.607544,750.093811 
	C1180.318848,753.769653 1180.772949,756.116760 1181.338745,759.040710 
	C1179.993530,758.573975 1178.392700,758.140259 1176.891357,757.480042 
	C1132.355469,737.896423 1090.666626,713.603394 1052.102051,683.787292 
	C1039.251221,673.851746 1024.723999,666.090393 1011.007935,657.265381 
	C1004.849060,653.302673 998.794312,649.177795 992.704285,645.108643 
	C989.346985,642.865479 986.089294,642.377563 982.214600,645.795898 
	C1000.872131,660.529907 1021.976929,670.741394 1041.417603,683.446106 
	C1041.155640,683.878479 1040.893555,684.310791 1040.631592,684.743164 
	C1033.078125,680.623413 1025.498047,676.551880 1017.975891,672.375977 
	C979.709595,651.132629 946.310120,624.025024 917.999023,590.528137 
	C911.177063,582.456604 902.918945,575.491516 894.755371,568.697571 
	C888.965942,563.879456 881.929810,560.799438 874.114075,560.922119 
	C870.880920,560.972839 867.646240,561.945312 864.442200,562.637085 
	C856.155945,564.426270 847.666809,565.641602 839.679688,568.334656 
	C833.323059,570.477905 828.010986,570.240417 822.115234,567.250061 
	C815.917297,564.106323 813.542053,565.506897 808.381104,570.725830 
	C805.879211,573.255676 802.014648,574.735840 798.503296,575.886780 
	C794.909607,577.064819 790.791565,576.724426 787.281006,578.049866 
	C784.378540,579.145630 782.027832,581.701721 779.430969,583.608582 
	C777.446228,585.066040 775.644897,587.314087 773.438965,587.830139 
	C766.159424,589.533386 758.679321,590.373169 751.388672,592.037354 
	C748.238098,592.756470 745.111389,594.314453 742.426758,596.152710 
	C739.154846,598.393066 736.888123,601.725098 737.965942,605.986328 
	C738.959900,609.915649 737.141174,611.408691 733.779663,612.255554 
	C722.338501,615.137817 710.950745,618.241394 699.472961,620.966980 
	C683.705200,624.711426 668.761292,629.652893 658.040039,643.067383 
	C656.472046,645.029114 652.397827,645.282776 649.394470,645.728638 
	C645.541260,646.300659 641.598206,646.267334 637.042053,646.532776 
	C630.529663,637.772888 623.789917,646.072815 616.974548,648.536804 
	C613.681152,642.892822 620.176331,641.325928 620.895630,637.644592 
	C616.063782,634.830994 612.272583,635.426147 607.536194,639.945251 
	C603.467224,643.827698 599.566650,647.886536 595.204041,651.547607 
	C596.731689,642.124084 607.846313,640.179077 611.082397,631.699890 
	C605.812195,628.444885 601.945068,632.176208 597.429810,634.093384 
	C597.086670,634.181152 597.110352,634.263123 597.110352,634.263123 
M966.948364,622.587097 
	C961.976929,617.896667 957.005493,613.206238 952.034058,608.515747 
	C951.569214,608.964539 951.104370,609.413330 950.639587,609.862122 
	C956.021790,617.521545 961.404053,625.181030 966.959473,633.086914 
	C969.217712,631.324890 970.581299,630.260986 971.877563,629.249512 
	C969.927063,626.637268 968.638672,624.911743 966.948364,622.587097 
M637.232788,606.893677 
	C638.884521,605.593750 640.536255,604.293762 642.812622,602.502197 
	C634.229248,600.760681 626.922241,604.879578 626.346008,610.980286 
	C629.785095,609.677490 633.155701,608.400696 637.232788,606.893677 
M290.895477,482.430084 
	C288.674316,484.396118 286.310974,486.226776 284.272491,488.366821 
	C282.287842,490.450348 280.926147,492.886841 284.092712,496.908356 
	C287.173676,491.807312 289.924377,487.253021 292.675110,482.698730 
	C292.251099,482.443848 291.827087,482.188965 290.895477,482.430084 
M379.816040,510.240021 
	C380.579346,509.130310 381.342621,508.020599 382.317932,506.602600 
	C376.840607,506.385254 375.363098,507.648041 375.036163,512.335815 
	C375.667389,512.335815 376.365906,512.519287 376.889160,512.294617 
	C377.764435,511.918732 378.527771,511.282196 379.816040,510.240021 
z"/>
<path fill="#EFF7F6" opacity="1.000000" stroke="none" 
	d="
M603.230347,546.250610 
	C607.004028,542.193054 610.546875,538.432129 614.089722,534.671265 
	C614.313171,535.319031 614.536682,535.966797 614.760132,536.614624 
	C617.374817,536.876770 619.989502,537.138977 622.341431,537.374817 
	C620.120117,540.150330 617.802673,543.073181 615.441528,545.960388 
	C615.154846,546.310913 614.629089,546.690613 614.220642,546.683533 
	C605.796326,546.537537 599.826477,552.252808 592.830750,555.524414 
	C590.987854,556.386230 588.899048,556.721924 586.923157,557.299255 
	C586.589600,556.681763 586.255981,556.064270 585.922363,555.446777 
	C588.280212,553.847168 590.509155,551.994446 593.028381,550.711609 
	C596.228943,549.081848 599.664978,547.914185 603.230347,546.250610 
z"/>
<path fill="#E1F1EE" opacity="1.000000" stroke="none" 
	d="
M593.012817,539.010315 
	C590.522339,544.296875 585.768982,546.317322 579.733398,548.169067 
	C582.235596,542.080933 587.485596,541.024963 592.272339,538.791687 
	C592.741943,538.799194 593.012817,539.010315 593.012817,539.010315 
z"/>
<path fill="#E1F1EE" opacity="1.000000" stroke="none" 
	d="
M592.609436,538.690002 
	C592.795227,538.672058 593.113525,538.763306 593.222290,538.932434 
	C593.012817,539.010315 592.741943,538.799194 592.609436,538.690002 
z"/>
<path fill="#FEFFFE" opacity="1.000000" stroke="none" 
	d="
M597.068604,634.142517 
	C596.801941,634.189392 596.553345,634.274963 596.304688,634.360474 
	C596.500061,634.160461 596.695496,633.960388 597.000610,634.011719 
	C597.110352,634.263123 597.086670,634.181152 597.068604,634.142517 
z"/>
<path fill="#937932" opacity="1.000000" stroke="none" 
	d="
M967.149292,622.886719 
	C968.638672,624.911743 969.927063,626.637268 971.877563,629.249512 
	C970.581299,630.260986 969.217712,631.324890 966.959473,633.086914 
	C961.404053,625.181030 956.021790,617.521545 950.639587,609.862122 
	C951.104370,609.413330 951.569214,608.964539 952.034058,608.515747 
	C957.005493,613.206238 961.976929,617.896667 967.149292,622.886719 
z"/>
<path fill="#977E38" opacity="1.000000" stroke="none" 
	d="
M636.879517,607.008789 
	C633.155701,608.400696 629.785095,609.677490 626.346008,610.980286 
	C626.922241,604.879578 634.229248,600.760681 642.812622,602.502197 
	C640.536255,604.293762 638.884521,605.593750 636.879517,607.008789 
z"/>
<path fill="#967E38" opacity="1.000000" stroke="none" 
	d="
M291.149292,482.182068 
	C291.827087,482.188965 292.251099,482.443848 292.675110,482.698730 
	C289.924377,487.253021 287.173676,491.807312 284.092712,496.908356 
	C280.926147,492.886841 282.287842,490.450348 284.272491,488.366821 
	C286.310974,486.226776 288.674316,484.396118 291.149292,482.182068 
z"/>
<path fill="#9D8644" opacity="1.000000" stroke="none" 
	d="
M379.577148,510.497681 
	C378.527771,511.282196 377.764435,511.918732 376.889160,512.294617 
	C376.365906,512.519287 375.667389,512.335815 375.036163,512.335815 
	C375.363098,507.648041 376.840607,506.385254 382.317932,506.602600 
	C381.342621,508.020599 380.579346,509.130310 379.577148,510.497681 
z"/>
</svg>