<svg version="1.1" id="Layer_1" xmlns="http://www.w3.org/2000/svg" xmlns:xlink="http://www.w3.org/1999/xlink" x="0px" y="0px"
	 width="100%" viewBox="0 0 137 122" enable-background="new 0 0 137 122" xml:space="preserve">
<path fill="#FEFEFE" opacity="1.000000" stroke="none" 
	d="
M1.000000,48.000000 
	C1.000000,32.000000 1.000000,16.500004 1.000000,1.000004 
	C46.666660,1.000003 92.333321,1.000003 138.000000,1.000001 
	C138.000000,41.666653 138.000000,82.333305 138.000000,122.999969 
	C92.333351,122.999985 46.666702,122.999985 1.000026,122.999992 
	C1.000000,98.166664 1.000000,73.333336 1.000000,48.000000 
M102.294052,103.056816 
	C103.397667,102.071053 104.501282,101.085289 106.187004,99.978012 
	C107.482635,98.523109 108.778267,97.068207 110.689575,95.281677 
	C111.771164,93.844673 112.852753,92.407661 114.416489,90.588875 
	C115.008308,89.535667 115.600121,88.482460 116.750710,87.025024 
	C117.721031,84.990929 118.691360,82.956825 120.033638,80.252182 
	C120.996986,76.498741 121.960327,72.745300 123.179298,68.205452 
	C122.964027,62.441620 123.721062,56.437061 122.364014,50.955914 
	C116.699089,28.075148 95.693611,15.403766 70.524483,19.333502 
	C70.018707,19.557150 69.512924,19.780800 68.306206,19.928316 
	C67.213196,20.320978 66.120178,20.713642 64.289040,21.069529 
	C55.476997,24.596397 53.268353,26.105244 52.256138,28.368481 
	C59.337631,27.310556 67.165176,26.141176 75.692841,25.257849 
	C80.745064,27.248724 86.162720,28.623962 90.772453,31.360281 
	C100.003883,36.840019 104.619110,45.788170 106.890152,56.919189 
	C107.779373,66.427414 105.737679,75.389931 101.296181,84.374214 
	C98.195404,88.240776 95.094627,92.107338 91.464798,96.081596 
	C91.255348,96.363152 91.045898,96.644699 90.903084,96.948204 
	C90.903084,96.948204 90.871796,96.885368 90.214012,97.090530 
	C86.602386,99.060760 83.100578,101.276466 79.356827,102.951363 
	C70.935143,106.719109 61.966671,106.520065 52.208881,105.808258 
	C49.367748,104.904144 46.532433,103.981163 43.683346,103.102844 
	C41.913551,102.557251 40.122890,102.079330 38.341595,101.571037 
	C38.197392,102.012794 38.053188,102.454552 37.908985,102.896309 
	C42.073360,105.079636 46.077145,107.677612 50.433655,109.364861 
	C61.415993,113.618256 72.665222,115.193466 84.901375,111.090271 
	C87.685806,110.087845 90.470245,109.085419 93.917824,108.050819 
	C95.257408,107.295090 96.596992,106.539360 98.587021,105.665092 
	C99.618813,104.840698 100.650604,104.016312 102.294052,103.056816 
M33.679634,51.819996 
	C34.527424,48.537746 35.375214,45.255493 36.702251,41.505867 
	C39.098331,37.785423 41.516144,34.078716 43.880863,30.338444 
	C44.980885,28.598543 45.977829,26.793472 47.712173,24.800127 
	C50.157379,23.592546 52.602589,22.384964 55.781517,21.020433 
	C57.242466,20.362761 58.677082,19.637224 60.168621,19.058374 
	C70.208298,15.162092 80.519127,15.024209 91.711189,17.097084 
	C94.047684,17.903635 96.384178,18.710184 98.843636,19.559181 
	C97.067795,11.761000 69.023827,4.495883 51.904987,11.588507 
	C49.081654,13.035646 46.258324,14.482787 42.791340,15.785531 
	C41.186489,16.845461 39.581642,17.905390 37.394554,19.168865 
	C36.608498,19.802811 35.822437,20.436758 34.425690,21.306589 
	C32.641460,23.216787 30.857229,25.126987 28.624475,27.312351 
	C28.379511,27.758039 28.134544,28.203726 27.332170,29.053617 
	C25.849037,31.511278 24.365904,33.968937 22.281807,36.857597 
	C21.233377,39.253788 20.184950,41.649975 18.862881,44.753078 
	C18.259432,47.503262 17.655983,50.253448 16.834332,53.804317 
	C17.116085,59.887119 16.519003,66.168442 17.840050,72.016472 
	C22.267971,91.618080 43.511066,107.548431 69.698090,102.685059 
	C76.171005,100.994362 82.490479,99.001114 87.052498,93.208794 
	C81.028198,94.859192 75.003899,96.509590 68.228889,98.030846 
	C66.473045,97.505737 64.717209,96.980629 62.211784,96.183746 
	C47.699574,92.947350 38.560463,83.899910 33.925533,69.195107 
	C33.561474,66.465157 33.197418,63.735210 32.975300,60.149220 
	C33.066299,57.594200 33.157295,55.039177 33.679634,51.819996 
M81.518051,66.000885 
	C82.899635,63.979919 84.281219,61.958958 85.216034,60.591534 
	C80.738617,55.866940 75.332947,50.162849 70.517555,45.081623 
	C64.939980,50.663322 59.366825,56.240604 54.741165,60.869690 
	C59.908020,66.082130 65.434647,71.657516 69.868820,76.130814 
	C73.263260,73.197395 77.139885,69.847275 81.518051,66.000885 
z"/>
<path fill="#B3884E" opacity="1.000000" stroke="none" 
	d="
M62.961365,96.455521 
	C64.717209,96.980629 66.473045,97.505737 68.611618,98.469604 
	C68.980972,100.153137 68.967613,101.397919 68.954247,102.642693 
	C43.511066,107.548431 22.267971,91.618080 17.840050,72.016472 
	C16.519003,66.168442 17.116085,59.887119 17.288925,53.439491 
	C20.812977,54.713055 23.882435,56.351444 26.978954,58.245575 
	C27.020306,58.672169 27.034592,58.843021 27.034140,59.446095 
	C27.651094,63.274994 28.282791,66.671669 28.944775,70.449127 
	C31.646374,84.268280 45.138176,95.303009 60.286060,97.801895 
	C61.082127,97.933228 62.065300,96.930367 62.961365,96.455521 
z"/>
<path fill="#055D45" opacity="1.000000" stroke="none" 
	d="
M71.078094,19.382994 
	C95.693611,15.403766 116.699089,28.075148 122.364014,50.955914 
	C123.721062,56.437061 122.964027,62.441620 122.795181,68.359863 
	C121.264641,64.213547 118.580612,61.896778 114.010384,61.631084 
	C113.334801,59.501339 112.664154,57.747864 112.135468,55.667664 
	C112.235657,53.932278 112.691399,52.233162 112.067451,51.164371 
	C109.100548,46.082230 106.219940,40.872341 102.595909,36.269020 
	C96.915573,29.053738 88.525833,26.264908 80.133041,23.798347 
	C79.194153,23.720060 78.114235,23.847984 76.695404,23.982819 
	C75.904541,23.994379 75.452591,23.999029 74.969101,23.678972 
	C73.651070,22.030508 72.364578,20.706751 71.078094,19.382994 
z"/>
<path fill="#B48A4F" opacity="1.000000" stroke="none" 
	d="
M81.267281,66.249016 
	C77.139885,69.847275 73.263260,73.197395 69.868820,76.130814 
	C65.434647,71.657516 59.908020,66.082130 54.741165,60.869690 
	C59.366825,56.240604 64.939980,50.663322 70.517555,45.081623 
	C75.332947,50.162849 80.738617,55.866940 85.216034,60.591534 
	C84.281219,61.958958 82.899635,63.979919 81.267281,66.249016 
z"/>
<path fill="#074E37" opacity="1.000000" stroke="none" 
	d="
M75.000641,24.003677 
	C75.452591,23.999029 75.904541,23.994379 77.064392,23.989876 
	C78.512199,23.994869 79.252098,23.999712 79.992004,24.004557 
	C88.525833,26.264908 96.915573,29.053738 102.595909,36.269020 
	C106.219940,40.872341 109.100548,46.082230 112.067451,51.164371 
	C112.691399,52.233162 112.235657,53.932278 111.804680,55.640564 
	C109.891724,55.959641 108.451508,55.979099 107.011299,55.998558 
	C104.619110,45.788170 100.003883,36.840019 90.772453,31.360281 
	C86.162720,28.623962 80.745064,27.248724 75.340881,24.872770 
	C74.988922,24.487692 75.000641,24.003677 75.000641,24.003677 
z"/>
<path fill="#03533C" opacity="1.000000" stroke="none" 
	d="
M106.950729,56.458874 
	C108.451508,55.979099 109.891724,55.959641 111.662720,55.967285 
	C112.664154,57.747864 113.334801,59.501339 114.005768,62.012772 
	C113.343460,66.851906 112.680824,70.933083 111.799026,75.306885 
	C111.053352,77.408470 110.526848,79.217445 109.729477,81.202301 
	C108.678864,82.941917 107.899109,84.505638 107.095085,86.072105 
	C107.070816,86.074860 107.031944,86.045654 106.677628,85.980057 
	C104.831017,85.278999 103.338730,84.643539 101.846436,84.008080 
	C105.737679,75.389931 107.779373,66.427414 106.950729,56.458874 
z"/>
<path fill="#B48A52" opacity="1.000000" stroke="none" 
	d="
M52.612274,11.406372 
	C69.023827,4.495883 97.067795,11.761000 98.843636,19.559181 
	C96.384178,18.710184 94.047684,17.903635 91.282410,16.641855 
	C87.168724,15.123762 83.478386,13.165976 79.800079,13.188338 
	C72.618248,13.232000 65.443146,14.382668 57.876938,15.021903 
	C55.863171,13.781338 54.237724,12.593855 52.612274,11.406372 
z"/>
<path fill="#88583D" opacity="1.000000" stroke="none" 
	d="
M62.586578,96.319641 
	C62.065300,96.930367 61.082127,97.933228 60.286060,97.801895 
	C45.138176,95.303009 31.646374,84.268280 29.156036,70.192520 
	C30.858521,69.705803 32.380032,69.856453 33.901543,70.007103 
	C38.560463,83.899910 47.699574,92.947350 62.586578,96.319641 
z"/>
<path fill="#045E46" opacity="1.000000" stroke="none" 
	d="
M84.130699,111.051750 
	C72.665222,115.193466 61.415993,113.618256 50.433655,109.364861 
	C46.077145,107.677612 42.073360,105.079636 37.908985,102.896309 
	C38.053188,102.454552 38.197392,102.012794 38.341595,101.571037 
	C40.122890,102.079330 41.913551,102.557251 43.683346,103.102844 
	C46.532433,103.981163 49.367748,104.904144 52.690456,106.304276 
	C61.424477,110.372673 69.716949,109.238808 78.220390,107.274841 
	C80.324936,108.709274 82.227821,109.880508 84.130699,111.051750 
z"/>
<path fill="#0B533C" opacity="1.000000" stroke="none" 
	d="
M78.018730,107.011650 
	C69.716949,109.238808 61.424477,110.372673 53.087311,106.422714 
	C61.966671,106.520065 70.935143,106.719109 79.356827,102.951363 
	C83.100578,101.276466 86.602386,99.060760 90.624756,97.330627 
	C91.743126,98.070976 92.450768,98.571236 93.116257,99.391373 
	C93.055641,100.142426 93.037163,100.573608 92.692787,101.139503 
	C89.244492,102.847656 86.122086,104.421089 82.631332,106.002777 
	C80.848228,106.344566 79.433479,106.678108 78.018730,107.011650 
z"/>
<path fill="#02634B" opacity="1.000000" stroke="none" 
	d="
M112.018188,75.014259 
	C112.680824,70.933083 113.343460,66.851906 114.010712,62.389042 
	C118.580612,61.896778 121.264641,64.213547 122.667358,68.753067 
	C121.960327,72.745300 120.996986,76.498741 119.635353,80.353088 
	C116.830772,78.640747 114.424484,76.827507 112.018188,75.014259 
z"/>
<path fill="#8C5D42" opacity="1.000000" stroke="none" 
	d="
M58.265255,15.074986 
	C65.443146,14.382668 72.618248,13.232000 79.800079,13.188338 
	C83.478386,13.165976 87.168724,15.123762 90.910393,16.546520 
	C80.519127,15.024209 70.208298,15.162092 60.168621,19.058374 
	C58.677082,19.637224 57.242466,20.362761 55.398399,20.741629 
	C54.667149,19.637735 54.319019,18.812645 54.182701,17.738483 
	C55.684761,16.684605 56.975010,15.879795 58.265255,15.074986 
z"/>
<path fill="#AE844E" opacity="1.000000" stroke="none" 
	d="
M47.021500,25.017944 
	C45.977829,26.793472 44.980885,28.598543 43.880863,30.338444 
	C41.516144,34.078716 39.098331,37.785423 36.068279,41.741573 
	C33.945034,41.642776 32.455761,41.308270 31.000565,40.627029 
	C31.711216,38.577946 32.387794,36.875599 33.368526,35.095940 
	C34.131245,34.402889 34.589813,33.787163 35.346210,33.008232 
	C37.465038,30.569042 39.286030,28.293055 41.355019,25.917185 
	C42.054272,25.525450 42.505524,25.233595 43.361454,24.950123 
	C44.575542,24.972296 45.384953,24.986086 46.400307,24.988361 
	C46.606247,24.976849 47.021496,25.017942 47.021500,25.017944 
z"/>
<path fill="#B78D56" opacity="1.000000" stroke="none" 
	d="
M26.951893,57.989838 
	C23.882435,56.351444 20.812977,54.713055 17.398027,53.039146 
	C17.655983,50.253448 18.259432,47.503262 19.291842,44.559013 
	C22.476496,45.907894 25.232187,47.450832 27.996429,49.250351 
	C28.014233,49.677780 28.023487,49.848629 28.023388,50.425701 
	C27.659986,53.217899 27.305939,55.603867 26.951893,57.989838 
z"/>
<path fill="#0C5D45" opacity="1.000000" stroke="none" 
	d="
M93.158401,99.071487 
	C92.450768,98.571236 91.743126,98.070976 90.953644,97.228043 
	C90.871796,96.885368 90.903084,96.948204 91.119324,96.855598 
	C91.555000,96.499962 91.774422,96.236931 91.993851,95.973900 
	C95.094627,92.107338 98.195404,88.240776 101.571304,84.191147 
	C103.338730,84.643539 104.831017,85.278999 106.544289,86.273193 
	C106.156319,87.731506 105.547363,88.831085 104.639786,90.088776 
	C103.206238,91.479225 102.071327,92.711563 100.619614,93.994057 
	C99.518730,94.701912 98.734642,95.359619 97.728783,96.139008 
	C97.351021,96.554909 97.195023,96.849129 97.044090,97.363983 
	C97.049149,97.584625 97.078346,98.025040 97.058044,98.026489 
	C97.037750,98.027931 97.047714,98.067383 96.724930,98.180847 
	C95.320892,98.553368 94.239647,98.812424 93.158401,99.071487 
z"/>
<path fill="#0B6751" opacity="1.000000" stroke="none" 
	d="
M74.969101,23.678972 
	C75.000641,24.003677 74.988922,24.487692 74.990822,24.729744 
	C67.165176,26.141176 59.337631,27.310556 52.256138,28.368481 
	C53.268353,26.105244 55.476997,24.596397 64.891212,21.336153 
	C66.664642,21.070002 67.835899,20.537228 69.007149,20.004452 
	C69.512924,19.780800 70.018707,19.557150 70.801285,19.358248 
	C72.364578,20.706751 73.651070,22.030508 74.969101,23.678972 
z"/>
<path fill="#C6A276" opacity="1.000000" stroke="none" 
	d="
M33.064373,35.173256 
	C32.387794,36.875599 31.711216,38.577946 30.791836,40.748898 
	C30.287727,41.423889 30.105330,41.685329 29.635103,41.995693 
	C27.139837,40.135239 25.011305,38.280918 22.882772,36.426598 
	C24.365904,33.968937 25.849037,31.511278 27.663521,29.225033 
	C29.684706,31.322050 31.374540,33.247654 33.064373,35.173256 
z"/>
<path fill="#BE9765" opacity="1.000000" stroke="none" 
	d="
M22.582291,36.642097 
	C25.011305,38.280918 27.139837,40.135239 29.603146,42.360794 
	C29.287907,44.819279 28.637896,46.906525 27.987881,48.993774 
	C25.232187,47.450832 22.476496,45.907894 19.428661,44.205559 
	C20.184950,41.649975 21.233377,39.253788 22.582291,36.642097 
z"/>
<path fill="#B99262" opacity="1.000000" stroke="none" 
	d="
M69.326172,102.663879 
	C68.967613,101.397919 68.980972,100.153137 68.986969,98.534180 
	C75.003899,96.509590 81.028198,94.859192 87.052498,93.208794 
	C82.490479,99.001114 76.171005,100.994362 69.326172,102.663879 
z"/>
<path fill="#036E58" opacity="1.000000" stroke="none" 
	d="
M111.799026,75.306885 
	C114.424484,76.827507 116.830772,78.640747 119.449371,80.688354 
	C118.691360,82.956825 117.721031,84.990929 116.332626,86.891876 
	C113.943138,84.847954 111.971741,82.937187 110.000343,81.026413 
	C110.526848,79.217445 111.053352,77.408470 111.799026,75.306885 
z"/>
<path fill="#D7B997" opacity="1.000000" stroke="none" 
	d="
M41.107025,26.017067 
	C39.286030,28.293055 37.465038,30.569042 35.291740,32.660072 
	C32.983955,30.662472 31.028479,28.849829 29.072998,27.037186 
	C30.857229,25.126987 32.641460,23.216787 34.875195,21.482426 
	C37.252140,23.111197 39.179585,24.564133 41.107025,26.017067 
z"/>
<path fill="#599783" opacity="1.000000" stroke="none" 
	d="
M100.936409,93.943909 
	C102.071327,92.711563 103.206238,91.479225 104.953003,90.255432 
	C107.067863,92.047096 108.570877,93.830200 110.073898,95.613304 
	C108.778267,97.068207 107.482635,98.523109 105.524399,99.933990 
	C103.553337,97.907944 102.244873,95.925926 100.936409,93.943909 
z"/>
<path fill="#C7A376" opacity="1.000000" stroke="none" 
	d="
M46.194366,24.999874 
	C45.384953,24.986086 44.575542,24.972296 43.227089,24.655876 
	C41.117634,22.557274 39.547215,20.761297 37.976795,18.965321 
	C39.581642,17.905390 41.186489,16.845461 43.517296,15.872049 
	C46.228138,16.990534 48.213024,18.022499 49.996460,19.343184 
	C48.594799,21.421227 47.394585,23.210552 46.194366,24.999874 
z"/>
<path fill="#BD9665" opacity="1.000000" stroke="none" 
	d="
M50.197906,19.054464 
	C48.213024,18.022499 46.228138,16.990534 43.839123,15.944247 
	C46.258324,14.482787 49.081654,13.035646 52.258629,11.497439 
	C54.237724,12.593855 55.863171,13.781338 57.876938,15.021904 
	C56.975010,15.879795 55.684761,16.684605 53.869225,17.855034 
	C52.295261,18.498590 51.246582,18.776527 50.197906,19.054464 
z"/>
<path fill="#976941" opacity="1.000000" stroke="none" 
	d="
M26.978954,58.245579 
	C27.305939,55.603867 27.659986,53.217899 28.414249,50.417831 
	C30.292408,50.830544 31.770351,51.657352 33.248295,52.484158 
	C33.157295,55.039177 33.066299,57.594200 32.551865,60.570183 
	C30.435249,60.332054 28.742064,59.672962 27.048880,59.013870 
	C27.034592,58.843021 27.020306,58.672169 26.978954,58.245579 
z"/>
<path fill="#906240" opacity="1.000000" stroke="none" 
	d="
M27.034140,59.446095 
	C28.742064,59.672962 30.435249,60.332054 32.480896,60.998207 
	C33.197418,63.735210 33.561474,66.465157 33.913536,69.601105 
	C32.380032,69.856453 30.858521,69.705803 29.125748,69.811745 
	C28.282791,66.671669 27.651094,63.274994 27.034140,59.446095 
z"/>
<path fill="#A37748" opacity="1.000000" stroke="none" 
	d="
M33.463966,52.152077 
	C31.770351,51.657352 30.292408,50.830544 28.423603,50.011604 
	C28.023487,49.848629 28.014233,49.677780 27.996429,49.250351 
	C28.637896,46.906525 29.287907,44.819279 29.969879,42.366928 
	C30.105330,41.685329 30.287727,41.423889 30.757761,41.095634 
	C32.455761,41.308270 33.945034,41.642776 35.828655,41.975258 
	C35.375214,45.255493 34.527424,48.537746 33.463966,52.152077 
z"/>
<path fill="#056F59" opacity="1.000000" stroke="none" 
	d="
M82.999680,105.994522 
	C86.122086,104.421089 89.244492,102.847656 92.725388,101.481354 
	C94.701447,103.053528 96.319016,104.418571 97.936577,105.783623 
	C96.596992,106.539360 95.257408,107.295090 93.159782,108.046532 
	C89.267723,107.359673 86.133705,106.677101 82.999680,105.994522 
z"/>
<path fill="#33856F" opacity="1.000000" stroke="none" 
	d="
M110.381729,95.447495 
	C108.570877,93.830200 107.067863,92.047096 105.251625,90.097328 
	C105.547363,88.831085 106.156319,87.731506 106.898605,86.338791 
	C107.031944,86.045654 107.070816,86.074860 107.444946,86.058472 
	C109.857506,87.684937 111.895927,89.327797 113.934341,90.970657 
	C112.852753,92.407661 111.771164,93.844673 110.381729,95.447495 
z"/>
<path fill="#177964" opacity="1.000000" stroke="none" 
	d="
M114.175415,90.779770 
	C111.895927,89.327797 109.857506,87.684937 107.469223,86.055717 
	C107.899109,84.505638 108.678864,82.941917 109.729477,81.202301 
	C111.971741,82.937187 113.943138,84.847954 116.053238,87.093994 
	C115.600121,88.482460 115.008308,89.535667 114.175415,90.779770 
z"/>
<path fill="#056750" opacity="1.000000" stroke="none" 
	d="
M82.631332,106.002777 
	C86.133705,106.677101 89.267723,107.359673 92.828217,108.062614 
	C90.470245,109.085419 87.685806,110.087845 84.516037,111.071014 
	C82.227821,109.880508 80.324936,108.709274 78.220390,107.274841 
	C79.433479,106.678108 80.848228,106.344566 82.631332,106.002777 
z"/>
<path fill="#32856F" opacity="1.000000" stroke="none" 
	d="
M100.619614,93.994057 
	C102.244873,95.925926 103.553337,97.907944 105.233353,99.994751 
	C104.501282,101.085289 103.397667,102.071053 101.607170,102.999924 
	C99.629433,101.317818 98.338570,99.692604 97.047714,98.067383 
	C97.047714,98.067383 97.037750,98.027931 97.262970,97.906311 
	C97.738609,97.568741 97.898621,97.299118 97.976532,96.735970 
	C97.984833,96.496117 97.950562,96.017334 97.950562,96.017334 
	C98.734642,95.359619 99.518730,94.701912 100.619614,93.994057 
z"/>
<path fill="#986A43" opacity="1.000000" stroke="none" 
	d="
M49.996460,19.343184 
	C51.246582,18.776527 52.295261,18.498590 53.657413,18.104103 
	C54.319019,18.812645 54.667149,19.637735 55.031540,20.820103 
	C52.602589,22.384964 50.157379,23.592546 47.366837,24.909035 
	C47.021496,25.017942 46.606247,24.976849 46.400307,24.988361 
	C47.394585,23.210552 48.594799,21.421227 49.996460,19.343184 
z"/>
<path fill="#177963" opacity="1.000000" stroke="none" 
	d="
M96.724930,98.180847 
	C98.338570,99.692604 99.629433,101.317818 101.301346,103.067482 
	C100.650604,104.016312 99.618813,104.840698 98.261795,105.724358 
	C96.319016,104.418571 94.701447,103.053528 93.051285,101.346634 
	C93.037163,100.573608 93.055641,100.142426 93.116257,99.391365 
	C94.239647,98.812424 95.320892,98.553368 96.724930,98.180847 
z"/>
<path fill="#D0AF88" opacity="1.000000" stroke="none" 
	d="
M28.848738,27.174767 
	C31.028479,28.849829 32.983955,30.662472 34.993904,32.823273 
	C34.589813,33.787163 34.131245,34.402889 33.368526,35.095940 
	C31.374540,33.247654 29.684706,31.322050 27.942226,29.022930 
	C28.134544,28.203726 28.379511,27.758039 28.848738,27.174767 
z"/>
<path fill="#D0B089" opacity="1.000000" stroke="none" 
	d="
M37.685677,19.067093 
	C39.547215,20.761297 41.117634,22.557274 42.822418,24.647495 
	C42.505524,25.233595 42.054272,25.525450 41.355019,25.917185 
	C39.179585,24.564133 37.252140,23.111197 35.180538,21.364483 
	C35.822437,20.436758 36.608498,19.802811 37.685677,19.067093 
z"/>
<path fill="#055D45" opacity="1.000000" stroke="none" 
	d="
M68.656677,19.966385 
	C67.835899,20.537228 66.664642,21.070002 65.260277,21.354542 
	C66.120178,20.713642 67.213196,20.320978 68.656677,19.966385 
z"/>
<path fill="#0B533C" opacity="1.000000" stroke="none" 
	d="
M91.729324,96.027748 
	C91.774422,96.236931 91.555000,96.499962 91.086014,96.844620 
	C91.045898,96.644699 91.255348,96.363152 91.729324,96.027748 
z"/>
<path fill="#0B6751" opacity="1.000000" stroke="none" 
	d="
M80.133041,23.798347 
	C79.252098,23.999712 78.512199,23.994869 77.403305,23.982967 
	C78.114235,23.847984 79.194153,23.720060 80.133041,23.798347 
z"/>
<path fill="#177963" opacity="1.000000" stroke="none" 
	d="
M97.968231,96.975822 
	C97.898621,97.299118 97.738609,97.568741 97.283264,97.904861 
	C97.078346,98.025040 97.049149,97.584625 97.274826,97.313217 
	C97.500504,97.041809 97.968231,96.975822 97.968231,96.975822 
z"/>
<path fill="#0B533C" opacity="1.000000" stroke="none" 
	d="
M97.976532,96.735970 
	C97.968231,96.975822 97.500504,97.041809 97.269768,97.092575 
	C97.195023,96.849129 97.351021,96.554909 97.728790,96.139008 
	C97.950562,96.017334 97.984833,96.496117 97.976532,96.735970 
z"/>
</svg>