<svg version="1.1" id="Layer_1" xmlns="http://www.w3.org/2000/svg" xmlns:xlink="http://www.w3.org/1999/xlink" x="0px" y="0px"
	 width="100%" viewBox="0 0 1280 1327" enable-background="new 0 0 1280 1327" xml:space="preserve">
<path fill="#000000" opacity="1.000000" stroke="none" 
	d="
M430.000000,1.000000 
	C494.354218,1.000000 558.708435,1.000000 623.531494,1.468657 
	C624.000305,122.152039 624.000305,242.366760 624.000305,363.003235 
	C621.420837,363.003235 619.456421,363.003235 617.491943,363.003235 
	C556.186890,363.003235 494.881866,362.994781 433.576874,363.043518 
	C431.715668,363.044983 429.854919,363.642944 427.597839,364.156616 
	C427.135010,365.009308 427.009949,365.668152 427.009857,366.327026 
	C427.000458,431.017731 426.995850,495.708405 427.038086,560.399109 
	C427.038849,561.552612 427.608734,562.705688 428.384277,563.915222 
	C561.115540,563.971436 693.375610,563.971436 826.238159,563.971436 
	C826.238159,444.282959 826.238159,325.239594 826.238159,206.328369 
	C900.100464,206.328369 973.358765,206.328369 1046.999756,206.328369 
	C1046.999756,208.789917 1046.999756,210.926834 1046.999756,213.063751 
	C1046.999878,313.562012 1047.088867,414.060455 1046.869751,514.558228 
	C1046.846558,525.200684 1045.687378,535.953247 1043.898682,546.457825 
	C1038.700806,576.981079 1023.863831,602.752747 1003.128845,625.295593 
	C992.125244,637.258728 979.166931,646.950317 965.530640,655.700134 
	C962.924561,657.372253 962.140564,658.598938 964.420410,661.003906 
	C965.767700,662.425232 966.694885,664.298218 968.174744,665.531799 
	C977.132080,672.998352 986.646179,679.859924 995.108643,687.841492 
	C1006.039612,698.151428 1016.408936,709.092773 1026.569092,720.175720 
	C1042.839478,737.923706 1054.773560,758.544678 1063.754883,780.722107 
	C1075.954346,810.846252 1080.454468,842.670715 1081.872925,874.891052 
	C1082.832886,896.698669 1081.604492,918.417908 1077.142090,939.972717 
	C1071.696289,966.277283 1061.880859,990.747986 1047.873047,1013.480286 
	C1033.785767,1036.341431 1016.378723,1056.394653 995.362000,1073.351318 
	C981.392090,1084.622559 966.692566,1094.634399 950.860962,1103.028564 
	C933.721985,1112.116089 915.822510,1119.290771 897.105408,1124.428467 
	C878.248047,1129.604614 859.165710,1133.328979 839.555115,1134.045532 
	C833.830750,1134.254639 828.125793,1134.994873 822.000000,1135.527344 
	C822.000000,1199.741455 822.000000,1263.870728 822.000000,1328.000000 
	C757.645752,1328.000000 693.291565,1328.000000 628.468872,1327.531372 
	C628.000366,1208.141968 628.000366,1089.221191 628.000366,969.895874 
	C694.308594,969.895874 759.904541,969.895874 825.668823,969.895874 
	C825.668823,902.110046 825.668823,834.730591 825.668823,767.000000 
	C823.534119,767.000000 821.727844,767.000000 819.921509,767.000000 
	C690.923523,767.000000 561.925476,766.999390 432.927490,767.006104 
	C431.263519,767.006165 429.599548,767.099304 427.533478,767.306580 
	C427.087585,769.458801 427.005737,771.453369 427.005432,773.447937 
	C426.986542,891.954102 426.974426,1010.460266 426.495544,1128.980103 
	C351.121429,1128.993774 276.213379,1128.993774 200.999115,1128.993774 
	C200.999115,1125.984619 200.999115,1123.672852 200.999115,1121.361084 
	C200.999374,869.413452 201.017609,617.465820 200.948578,365.518158 
	C200.944992,352.439453 202.083954,339.608521 204.845032,326.785553 
	C211.550369,295.644653 225.606018,268.859192 249.225021,247.115997 
	C266.354736,231.346725 286.370239,220.855148 308.132355,213.481934 
	C335.136017,204.332809 363.286804,202.247589 391.512451,201.027405 
	C403.940063,200.490173 416.380615,200.253265 428.814514,199.855423 
	C429.090393,199.846573 429.356750,199.541580 430.000000,199.145279 
	C430.000000,133.243073 430.000000,67.121536 430.000000,1.000000 
z"/>
<path fill="#0095B8" opacity="1.000000" stroke="none" 
	d="
M429.531342,1.000000 
	C430.000000,67.121536 430.000000,133.243073 430.000000,199.145279 
	C429.356750,199.541580 429.090393,199.846573 428.814514,199.855423 
	C416.380615,200.253265 403.940063,200.490173 391.512451,201.027405 
	C363.286804,202.247589 335.136017,204.332809 308.132355,213.481934 
	C286.370239,220.855148 266.354736,231.346725 249.225021,247.115997 
	C225.606018,268.859192 211.550369,295.644653 204.845032,326.785553 
	C202.083954,339.608521 200.944992,352.439453 200.948578,365.518158 
	C201.017609,617.465820 200.999374,869.413452 200.999115,1121.361084 
	C200.999115,1123.672852 200.999115,1125.984619 200.999115,1128.993774 
	C276.213379,1128.993774 351.121429,1128.993774 426.809357,1128.700562 
	C427.726135,1126.257812 427.981201,1124.108276 427.982452,1121.958618 
	C428.006134,1080.980469 428.007019,1040.002319 427.998444,999.024231 
	C427.982239,921.732483 427.957062,844.440735 427.935577,767.148926 
	C429.599548,767.099304 431.263519,767.006165 432.927490,767.006104 
	C561.925476,766.999390 690.923523,767.000000 819.921509,767.000000 
	C821.727844,767.000000 823.534119,767.000000 825.668823,767.000000 
	C825.668823,834.730591 825.668823,902.110046 825.668823,969.895874 
	C759.904541,969.895874 694.308594,969.895874 628.000366,969.895874 
	C628.000366,1089.221191 628.000366,1208.141968 628.000183,1327.531372 
	C419.056244,1328.000000 210.112518,1328.000000 1.000000,1328.000000 
	C1.000000,995.979126 1.000000,663.958191 1.418241,331.619263 
	C2.555771,325.352661 3.225488,319.397552 4.004088,313.456757 
	C5.961855,298.518799 7.460377,283.498444 10.052532,268.670105 
	C17.458157,226.306458 33.635803,187.571671 58.721863,152.507095 
	C74.405388,130.585114 91.469818,109.957153 112.094391,92.522240 
	C122.114006,84.052200 132.332367,75.737869 143.049408,68.188728 
	C165.522369,52.358696 189.800674,39.597214 215.647278,30.370678 
	C235.420853,23.312052 255.590576,16.959824 276.044647,12.326363 
	C295.779907,7.855730 316.107758,6.006233 336.160400,2.909020 
	C336.855316,2.801687 337.390411,1.659732 338.000000,1.000003 
	C368.354218,1.000000 398.708466,1.000000 429.531342,1.000000 
z"/>
<path fill="#00A29D" opacity="1.000000" stroke="none" 
	d="
M822.468628,1328.000000 
	C822.000000,1263.870728 822.000000,1199.741455 822.000000,1135.527344 
	C828.125793,1134.994873 833.830750,1134.254639 839.555115,1134.045532 
	C859.165710,1133.328979 878.248047,1129.604614 897.105408,1124.428467 
	C915.822510,1119.290771 933.721985,1112.116089 950.860962,1103.028564 
	C966.692566,1094.634399 981.392090,1084.622559 995.362000,1073.351318 
	C1016.378723,1056.394653 1033.785767,1036.341431 1047.873047,1013.480286 
	C1061.880859,990.747986 1071.696289,966.277283 1077.142090,939.972717 
	C1081.604492,918.417908 1082.832886,896.698669 1081.872925,874.891052 
	C1080.454468,842.670715 1075.954346,810.846252 1063.754883,780.722107 
	C1054.773560,758.544678 1042.839478,737.923706 1026.569092,720.175720 
	C1016.408936,709.092773 1006.039612,698.151428 995.108643,687.841492 
	C986.646179,679.859924 977.132080,672.998352 968.174744,665.531799 
	C966.694885,664.298218 965.767700,662.425232 964.420410,661.003906 
	C962.140564,658.598938 962.924561,657.372253 965.530640,655.700134 
	C979.166931,646.950317 992.125244,637.258728 1003.128845,625.295593 
	C1023.863831,602.752747 1038.700806,576.981079 1043.898682,546.457825 
	C1045.687378,535.953247 1046.846558,525.200684 1046.869751,514.558228 
	C1047.088867,414.060455 1046.999878,313.562012 1046.999756,213.063751 
	C1046.999756,210.926834 1046.999756,208.789917 1046.999756,206.328369 
	C973.358765,206.328369 900.100464,206.328369 826.238159,206.328369 
	C826.238159,325.239594 826.238159,444.282959 826.238159,563.971436 
	C693.375610,563.971436 561.115540,563.971436 428.412231,563.456177 
	C427.977295,496.614868 427.985626,430.288849 427.993958,363.962830 
	C429.854919,363.642944 431.715668,363.044983 433.576874,363.043518 
	C494.881866,362.994781 556.186890,363.003235 617.491943,363.003235 
	C619.456421,363.003235 621.420837,363.003235 624.000305,363.003235 
	C624.000305,242.366760 624.000305,122.152039 624.000122,1.468657 
	C829.687561,1.000000 1035.375122,1.000000 1241.531250,1.468657 
	C1241.999878,158.568298 1242.019165,315.199280 1241.957275,471.830231 
	C1241.953125,482.437103 1241.361328,493.044525 1240.999878,503.650208 
	C1240.350708,522.689331 1240.046753,541.750977 1238.853516,560.756470 
	C1238.177979,571.517883 1236.627075,582.313843 1234.406372,592.870422 
	C1229.473877,616.318604 1215.437012,634.985535 1201.040161,653.303833 
	C1199.127441,655.737488 1198.930542,656.887573 1200.748779,659.536438 
	C1219.709106,687.157471 1236.217285,716.145996 1249.059570,747.162720 
	C1260.986938,775.970093 1269.789917,805.678833 1274.935669,836.425476 
	C1276.666260,846.764771 1277.633789,857.230591 1279.082275,867.620117 
	C1279.203003,868.485718 1280.336792,869.210083 1281.000000,870.000000 
	C1281.000000,897.354248 1281.000000,924.708435 1280.584839,952.391602 
	C1279.783936,953.564331 1279.158936,954.378357 1279.049438,955.256653 
	C1277.952393,964.055542 1277.467529,972.966187 1275.801025,981.651794 
	C1271.493774,1004.100647 1266.016602,1026.253662 1258.020874,1047.749634 
	C1248.215820,1074.109375 1235.795654,1099.133301 1220.675537,1122.820435 
	C1209.176392,1140.834961 1196.800415,1158.255981 1181.822266,1173.548340 
	C1166.522583,1189.169189 1151.441284,1205.179321 1134.737183,1219.199097 
	C1118.745972,1232.620361 1101.092651,1244.157715 1083.626831,1255.701538 
	C1060.480957,1270.999390 1035.457153,1282.773315 1009.737610,1293.165039 
	C986.500244,1302.553833 962.667358,1309.950073 938.341187,1315.793579 
	C928.334045,1318.197388 918.222351,1320.273071 908.063477,1321.909546 
	C897.223511,1323.655762 886.268250,1324.682373 875.378296,1326.135376 
	C874.845459,1326.206421 874.456177,1327.353882 874.000000,1328.000000 
	C856.979126,1328.000000 839.958191,1328.000000 822.468628,1328.000000 
z"/>
<path fill="#000000" opacity="1.000000" stroke="none" 
	d="
M874.468628,1328.000000 
	C874.456177,1327.353882 874.845459,1326.206421 875.378296,1326.135376 
	C886.268250,1324.682373 897.223511,1323.655762 908.063477,1321.909546 
	C918.222351,1320.273071 928.334045,1318.197388 938.341187,1315.793579 
	C962.667358,1309.950073 986.500244,1302.553833 1009.737610,1293.165039 
	C1035.457153,1282.773315 1060.480957,1270.999390 1083.626831,1255.701538 
	C1101.092651,1244.157715 1118.745972,1232.620361 1134.737183,1219.199097 
	C1151.441284,1205.179321 1166.522583,1189.169189 1181.822266,1173.548340 
	C1196.800415,1158.255981 1209.176392,1140.834961 1220.675537,1122.820435 
	C1235.795654,1099.133301 1248.215820,1074.109375 1258.020874,1047.749634 
	C1266.016602,1026.253662 1271.493774,1004.100647 1275.801025,981.651794 
	C1277.467529,972.966187 1277.952393,964.055542 1279.049438,955.256653 
	C1279.158936,954.378357 1279.783936,953.564331 1280.584839,952.860229 
	C1281.000000,1077.930054 1281.000000,1202.860107 1281.000000,1328.000000 
	C1145.645874,1328.000000 1010.291565,1328.000000 874.468628,1328.000000 
z"/>
<path fill="#000000" opacity="1.000000" stroke="none" 
	d="
M1281.000000,869.531372 
	C1280.336792,869.210083 1279.203003,868.485718 1279.082275,867.620117 
	C1277.633789,857.230591 1276.666260,846.764771 1274.935669,836.425476 
	C1269.789917,805.678833 1260.986938,775.970093 1249.059570,747.162720 
	C1236.217285,716.145996 1219.709106,687.157471 1200.748779,659.536438 
	C1198.930542,656.887573 1199.127441,655.737488 1201.040161,653.303833 
	C1215.437012,634.985535 1229.473877,616.318604 1234.406372,592.870422 
	C1236.627075,582.313843 1238.177979,571.517883 1238.853516,560.756470 
	C1240.046753,541.750977 1240.350708,522.689331 1240.999878,503.650208 
	C1241.361328,493.044525 1241.953125,482.437103 1241.957275,471.830231 
	C1242.019165,315.199280 1241.999878,158.568298 1241.999878,1.468657 
	C1254.993774,1.000000 1267.987427,1.000000 1281.000000,1.000000 
	C1281.000000,290.354218 1281.000000,579.708435 1281.000000,869.531372 
z"/>
<path fill="#000000" opacity="1.000000" stroke="none" 
	d="
M337.531342,1.000003 
	C337.390411,1.659732 336.855316,2.801687 336.160400,2.909020 
	C316.107758,6.006233 295.779907,7.855730 276.044647,12.326363 
	C255.590576,16.959824 235.420853,23.312052 215.647278,30.370678 
	C189.800674,39.597214 165.522369,52.358696 143.049408,68.188728 
	C132.332367,75.737869 122.114006,84.052200 112.094391,92.522240 
	C91.469818,109.957153 74.405388,130.585114 58.721863,152.507095 
	C33.635803,187.571671 17.458157,226.306458 10.052532,268.670105 
	C7.460377,283.498444 5.961855,298.518799 4.004088,313.456757 
	C3.225488,319.397552 2.555771,325.352661 1.418241,331.150635 
	C1.000000,221.072174 1.000000,111.144333 1.000000,1.000000 
	C113.020798,1.000000 225.041748,1.000000 337.531342,1.000003 
z"/>
<path fill="#00FFFF" opacity="1.000000" stroke="none" 
	d="
M427.533478,767.306641 
	C427.957062,844.440735 427.982239,921.732483 427.998444,999.024231 
	C428.007019,1040.002319 428.006134,1080.980469 427.982452,1121.958618 
	C427.981201,1124.108276 427.726135,1126.257812 427.275452,1128.686890 
	C426.974426,1010.460266 426.986542,891.954102 427.005432,773.447937 
	C427.005737,771.453369 427.087585,769.458801 427.533478,767.306641 
z"/>
<path fill="#00FFFF" opacity="1.000000" stroke="none" 
	d="
M427.597839,364.156647 
	C427.985626,430.288849 427.977295,496.614868 427.941040,563.399902 
	C427.608734,562.705688 427.038849,561.552612 427.038086,560.399109 
	C426.995850,495.708405 427.000458,431.017731 427.009857,366.327026 
	C427.009949,365.668152 427.135010,365.009308 427.597839,364.156647 
z"/>
</svg>