<svg version="1.1" id="Layer_1" xmlns="http://www.w3.org/2000/svg" xmlns:xlink="http://www.w3.org/1999/xlink" x="0px" y="0px"
	 width="100%" viewBox="0 0 225 225" enable-background="new 0 0 225 225" xml:space="preserve">
<path fill="#FEFDFD" opacity="1.000000" stroke="none" 
	d="
M126.000000,226.000000 
	C84.000000,226.000000 42.500004,226.000000 1.000005,226.000000 
	C1.000004,151.000000 1.000004,76.000015 1.000002,1.000016 
	C75.999992,1.000010 150.999985,1.000010 225.999969,1.000005 
	C225.999985,75.999985 225.999985,150.999969 226.000000,225.999969 
	C192.833328,226.000000 159.666672,226.000000 126.000000,226.000000 
M71.916710,49.263626 
	C72.391159,48.886448 72.865601,48.509266 73.726105,48.107330 
	C73.726105,48.107330 73.989578,47.824062 74.613594,47.719219 
	C75.857224,46.961140 77.100853,46.203064 77.963577,45.178406 
	C77.963577,45.178406 78.325508,45.470470 78.984253,45.302937 
	C79.535782,44.939785 80.087311,44.576633 80.862686,44.248837 
	C80.862686,44.248837 81.000854,44.069210 81.702621,44.034195 
	C83.575218,43.251469 85.447815,42.468742 87.456627,41.636375 
	C87.456627,41.636375 87.599831,41.613632 88.250282,41.485397 
	C89.247780,41.071442 90.245277,40.657490 91.129356,40.199474 
	C91.129356,40.199474 91.157204,40.317924 91.913017,40.273315 
	C93.606491,39.828121 95.299957,39.382923 97.613647,39.025986 
	C98.075951,38.682823 98.538261,38.339661 99.428520,37.844555 
	C99.726723,37.638515 99.803543,37.369301 99.905792,36.124573 
	C99.852386,29.409657 99.798981,22.694740 99.869415,15.481888 
	C99.639282,15.250467 99.409142,15.019047 99.011894,14.930902 
	C99.011894,14.930902 99.201660,14.819387 98.811150,14.115793 
	C96.777046,14.279961 94.742935,14.444128 92.787560,14.541922 
	C92.787560,14.541922 92.693817,14.499309 91.925323,14.527844 
	C89.954384,15.050179 87.983437,15.572514 85.258156,16.078291 
	C39.063892,30.775597 10.970789,68.284256 10.974527,115.258484 
	C10.978394,163.836975 46.950893,206.424210 94.930702,214.561111 
	C96.195198,214.775558 97.594589,214.194595 99.611862,213.435593 
	C99.645782,196.548615 99.679710,179.661621 99.883026,161.894028 
	C99.893600,154.729630 99.747025,147.558838 100.037445,140.405792 
	C100.101250,138.834335 101.346313,136.740250 102.684685,135.890030 
	C108.431274,132.239426 114.386963,128.912170 120.323692,125.568710 
	C124.184174,123.394554 125.112129,123.969604 125.256577,128.611252 
	C125.546684,137.933426 125.657349,147.261826 126.016983,156.580917 
	C126.224350,161.954361 126.773506,167.314621 127.168823,172.680832 
	C127.404884,172.677185 127.640945,172.673553 127.877007,172.669907 
	C128.412720,161.135300 128.948441,149.600693 129.484161,138.066071 
	C129.902725,138.087509 130.321289,138.108932 130.739868,138.130371 
	C131.248138,148.822021 131.756424,159.513657 132.264709,170.205307 
	C132.476227,170.203293 132.687744,170.201279 132.899261,170.199249 
	C133.616074,158.172226 134.332901,146.145187 135.869156,134.398010 
	C136.401337,143.893280 136.933517,153.388535 137.465698,162.883804 
	C137.932663,162.886917 138.399628,162.890030 138.866592,162.893158 
	C139.179199,156.258926 139.491806,149.624695 139.973022,142.118118 
	C139.973022,139.358109 139.973022,136.598083 139.973022,133.838074 
	C140.740875,133.840393 141.508728,133.842712 142.276581,133.845032 
	C142.276581,143.793518 142.276581,153.741989 142.276581,163.690475 
	C142.788330,163.676880 143.300064,163.663300 143.811813,163.649719 
	C144.342224,152.503326 144.872635,141.356934 145.403046,130.210541 
	C145.804535,130.240021 146.206024,130.269516 146.607513,130.298996 
	C147.059555,140.423553 147.511612,150.548111 147.963669,160.672668 
	C149.395126,151.154938 149.811447,141.643768 150.261917,132.134201 
	C150.438049,128.415863 150.690903,124.701149 151.082870,120.063087 
	C151.099548,97.444962 151.116226,74.826843 151.502869,51.567963 
	C153.375504,48.264194 155.371933,50.245159 157.232147,51.510849 
	C181.573975,68.072975 194.565430,99.814331 188.342422,128.848801 
	C181.858932,159.098480 163.225266,178.573120 133.257141,188.243240 
	C131.643890,188.615906 129.784332,188.612457 128.484497,189.463715 
	C127.096687,190.372559 125.381142,192.037582 125.296600,193.460892 
	C124.942871,199.416382 124.991081,205.412582 125.276962,211.375397 
	C125.335625,212.598999 127.049034,213.743256 128.803833,214.964996 
	C131.252457,214.482956 133.738937,214.142181 136.144073,213.497833 
	C176.721863,202.626465 203.187393,177.000671 212.382111,136.068054 
	C221.409988,95.878250 208.074799,62.086514 177.232910,35.247997 
	C164.297089,23.991293 148.847061,17.499395 132.111084,14.077958 
	C125.732109,12.773866 125.222992,13.257207 125.225136,19.718510 
	C125.232719,42.551228 125.305542,65.384232 125.174942,88.216103 
	C125.164589,90.027466 124.298523,92.627480 122.949524,93.500916 
	C116.956947,97.380951 110.631691,100.745117 104.450562,104.336823 
	C101.171646,106.242126 99.975861,105.120934 99.888885,101.578117 
	C99.684471,93.251411 99.352158,84.927460 99.021713,76.604378 
	C98.739449,69.494766 98.387703,62.387924 98.066681,55.279854 
	C97.741310,55.280396 97.415939,55.280933 97.090569,55.281475 
	C96.417130,67.330109 95.743683,79.378746 95.070236,91.427383 
	C94.785019,91.416481 94.499794,91.405579 94.214577,91.394676 
	C94.085327,89.599564 93.956085,87.804459 93.961090,85.081062 
	C93.614502,76.082497 93.267906,67.083939 92.921318,58.085373 
	C92.498657,58.077579 92.076004,58.069786 91.653343,58.061993 
	C91.179749,68.712776 90.706146,79.363556 90.079262,90.830078 
	C89.753708,91.541611 89.428146,92.253143 89.102592,92.964684 
	C87.304962,84.085190 89.827194,75.072556 86.163551,65.146980 
	C85.686401,75.051697 85.280556,83.476357 84.346306,91.920212 
	C83.997154,91.878799 83.648003,91.837387 83.240364,90.886185 
	C82.958954,82.017113 82.677551,73.148041 82.396141,64.278969 
	C82.057007,64.304123 81.717880,64.329269 81.378746,64.354424 
	C80.729866,73.346626 80.080994,82.338829 79.432114,91.331032 
	C79.039711,91.297073 78.647316,91.263107 78.254913,91.229141 
	C77.843399,83.259674 77.431892,75.290199 77.020378,67.320732 
	C76.676651,67.327927 76.332924,67.335121 75.989197,67.342316 
	C75.379494,80.238297 74.769783,93.134277 73.997002,106.951149 
	C73.917374,113.770355 73.805122,120.589363 73.764580,127.408798 
	C73.665703,144.038849 73.600044,160.669098 72.957039,177.646332 
	C71.328011,177.296448 69.384766,177.402771 68.116432,176.529205 
	C43.786179,159.771362 31.387896,127.904366 37.558189,98.873764 
	C41.646549,79.638458 51.920185,64.443420 67.740967,52.113689 
	C68.940460,51.213013 70.139946,50.312332 70.996010,49.141857 
	C70.996010,49.141857 71.316803,49.438282 71.916710,49.263626 
z"/>
<path fill="#E50313" opacity="1.000000" stroke="none" 
	d="
M98.931068,213.984558 
	C97.594589,214.194595 96.195198,214.775558 94.930702,214.561111 
	C46.950893,206.424210 10.978394,163.836975 10.974527,115.258484 
	C10.970789,68.284256 39.063892,30.775597 85.881546,16.335243 
	C88.567894,15.894565 90.630852,15.196936 92.693817,14.499308 
	C92.693817,14.499309 92.787560,14.541922 93.204849,14.697853 
	C95.481972,14.842318 97.341820,14.830853 99.201660,14.819387 
	C99.201660,14.819387 99.011894,14.930902 99.098503,15.093521 
	C99.271286,15.575307 99.458115,15.816535 99.745583,15.979824 
	C99.798981,22.694740 99.852386,29.409657 99.618423,36.698387 
	C99.140076,37.476749 99.029915,37.718182 99.000572,37.996498 
	C98.538261,38.339661 98.075951,38.682823 97.072395,38.731449 
	C94.739830,39.063915 92.948517,39.690922 91.157204,40.317924 
	C91.157204,40.317924 91.129356,40.199474 90.783340,40.147987 
	C89.491501,40.602211 88.545662,41.107922 87.599831,41.613632 
	C87.599831,41.613632 87.456627,41.636375 87.021408,41.467213 
	C84.724403,42.221771 82.862625,43.145489 81.000854,44.069206 
	C81.000854,44.069210 80.862686,44.248837 80.364021,44.197659 
	C79.352074,44.587811 78.838791,45.029140 78.325508,45.470467 
	C78.325508,45.470470 77.963577,45.178406 77.787689,45.188507 
	C76.404396,46.073765 75.196983,46.948914 73.989578,47.824062 
	C73.989578,47.824062 73.726105,48.107330 73.180183,48.110256 
	C72.195107,48.554882 71.755951,48.996582 71.316803,49.438278 
	C71.316803,49.438282 70.996010,49.141857 70.810722,49.180611 
	C69.457367,50.253532 68.289299,51.287704 67.121231,52.321873 
	C51.920185,64.443420 41.646549,79.638458 37.558189,98.873764 
	C31.387896,127.904366 43.786179,159.771362 68.116432,176.529205 
	C69.384766,177.402771 71.328011,177.296448 73.605057,177.180969 
	C74.501976,175.449539 74.965134,174.183929 74.967842,172.917343 
	C75.012939,151.870209 75.014618,130.822937 74.964615,109.775826 
	C74.961639,108.526672 74.440239,107.278755 74.160080,106.030258 
	C74.769783,93.134277 75.379494,80.238297 75.989197,67.342316 
	C76.332924,67.335121 76.676651,67.327927 77.020378,67.320732 
	C77.431892,75.290199 77.843399,83.259674 78.254913,91.229141 
	C78.647316,91.263107 79.039711,91.297073 79.432114,91.331032 
	C80.080994,82.338829 80.729866,73.346626 81.378746,64.354424 
	C81.717880,64.329269 82.057007,64.304123 82.396141,64.278969 
	C82.677551,73.148041 82.958954,82.017113 83.149261,91.803154 
	C83.058167,96.805817 83.058167,100.891518 83.058167,104.977211 
	C83.663681,104.964737 84.269188,104.952255 84.874702,104.939774 
	C84.874702,100.593521 84.874702,96.247276 84.874702,91.901024 
	C85.280556,83.476357 85.686401,75.051697 86.163551,65.146980 
	C89.827194,75.072556 87.304962,84.085190 89.102592,92.964684 
	C89.428146,92.253143 89.753708,91.541611 90.478348,90.342194 
	C91.860573,88.572655 92.843704,87.291000 93.826836,86.009346 
	C93.956085,87.804459 94.085327,89.599564 94.214577,91.394676 
	C94.499794,91.405579 94.785019,91.416481 95.070236,91.427383 
	C95.743683,79.378746 96.417130,67.330109 97.090569,55.281475 
	C97.415939,55.280933 97.741310,55.280396 98.066681,55.279854 
	C98.387703,62.387924 98.739449,69.494766 99.021713,76.604378 
	C99.352158,84.927460 99.684471,93.251411 99.888885,101.578117 
	C99.975861,105.120934 101.171646,106.242126 104.450562,104.336823 
	C110.631691,100.745117 116.956947,97.380951 122.949524,93.500916 
	C124.298523,92.627480 125.164589,90.027466 125.174942,88.216103 
	C125.305542,65.384232 125.232719,42.551228 125.225136,19.718510 
	C125.222992,13.257207 125.732109,12.773866 132.111084,14.077958 
	C148.847061,17.499395 164.297089,23.991293 177.232910,35.247997 
	C208.074799,62.086514 221.409988,95.878250 212.382111,136.068054 
	C203.187393,177.000671 176.721863,202.626465 136.144073,213.497833 
	C133.738937,214.142181 131.252457,214.482956 128.206375,214.577789 
	C127.386932,209.293564 127.229858,204.392487 126.924355,199.500671 
	C126.629143,194.773865 126.207382,190.096542 132.958237,189.698517 
	C133.342606,189.675858 133.672485,188.729141 134.027710,188.212479 
	C163.225266,178.573120 181.858932,159.098480 188.342422,128.848801 
	C194.565430,99.814331 181.573975,68.072975 157.232147,51.510849 
	C155.371933,50.245159 153.375504,48.264194 151.051041,51.728302 
	C150.398941,52.445248 150.024353,53.001610 150.023575,53.558491 
	C149.994202,74.795364 149.983917,96.032318 150.038361,117.269096 
	C150.041534,118.508400 150.605698,119.746254 150.908813,120.984787 
	C150.690903,124.701149 150.438049,128.415863 150.261917,132.134201 
	C149.811447,141.643768 149.395126,151.154938 147.963669,160.672668 
	C147.511612,150.548111 147.059555,140.423553 146.607513,130.298996 
	C146.206024,130.269516 145.804535,130.240021 145.403046,130.210541 
	C144.872635,141.356934 144.342224,152.503326 143.811813,163.649719 
	C143.300064,163.663300 142.788330,163.676880 142.276581,163.690475 
	C142.276581,153.741989 142.276581,143.793518 142.276581,133.845032 
	C141.508728,133.842712 140.740875,133.840393 139.973022,133.838074 
	C139.973022,136.598083 139.973022,139.358109 139.509491,142.449356 
	C138.439896,138.913971 137.833832,135.047348 137.227768,131.180710 
	C136.803299,131.126724 136.378845,131.072723 135.954376,131.018738 
	C135.652832,132.051880 135.351273,133.085022 135.049713,134.118164 
	C134.332901,146.145187 133.616074,158.172226 132.899261,170.199249 
	C132.687744,170.201279 132.476227,170.203293 132.264709,170.205307 
	C131.756424,159.513657 131.248138,148.822021 130.739868,138.130371 
	C130.321289,138.108932 129.902725,138.087509 129.484161,138.066071 
	C128.948441,149.600693 128.412720,161.135300 127.877007,172.669907 
	C127.640945,172.673553 127.404884,172.677185 127.168823,172.680832 
	C126.773506,167.314621 126.224350,161.954361 126.016983,156.580917 
	C125.657349,147.261826 125.546684,137.933426 125.256577,128.611252 
	C125.112129,123.969604 124.184174,123.394554 120.323692,125.568710 
	C114.386963,128.912170 108.431274,132.239426 102.684685,135.890030 
	C101.346313,136.740250 100.101250,138.834335 100.037445,140.405792 
	C99.747025,147.558838 99.893600,154.729630 99.394119,162.555054 
	C98.604790,164.295242 98.047104,165.373352 98.042778,166.453705 
	C97.983627,181.227631 97.981621,196.001938 98.039551,210.775864 
	C98.043747,211.846573 98.620514,212.915039 98.931068,213.984558 
M98.411079,138.483917 
	C98.411079,138.483917 98.519516,138.418335 98.411079,138.483917 
z"/>
<path fill="#E40006" opacity="1.000000" stroke="none" 
	d="
M99.271469,213.710083 
	C98.620514,212.915039 98.043747,211.846573 98.039551,210.775864 
	C97.981621,196.001938 97.983627,181.227631 98.042778,166.453705 
	C98.047104,165.373352 98.604790,164.295242 99.309418,162.995361 
	C99.679710,179.661621 99.645782,196.548615 99.271469,213.710083 
z"/>
<path fill="#E71A1D" opacity="1.000000" stroke="none" 
	d="
M93.893967,85.545204 
	C92.843704,87.291000 91.860573,88.572655 90.554993,89.934326 
	C90.706146,79.363556 91.179749,68.712776 91.653343,58.061993 
	C92.076004,58.069786 92.498657,58.077579 92.921318,58.085373 
	C93.267906,67.083939 93.614502,76.082497 93.893967,85.545204 
z"/>
<path fill="#E6161B" opacity="1.000000" stroke="none" 
	d="
M135.459442,134.258087 
	C135.351273,133.085022 135.652832,132.051880 135.954376,131.018738 
	C136.378845,131.072723 136.803299,131.126724 137.227768,131.180710 
	C137.833832,135.047348 138.439896,138.913971 139.425186,142.885529 
	C139.491806,149.624695 139.179199,156.258926 138.866592,162.893158 
	C138.399628,162.890030 137.932663,162.886917 137.465698,162.883804 
	C136.933517,153.388535 136.401337,143.893280 135.459442,134.258087 
z"/>
<path fill="#E60000" opacity="1.000000" stroke="none" 
	d="
M74.078537,106.490707 
	C74.440239,107.278755 74.961639,108.526672 74.964615,109.775826 
	C75.014618,130.822937 75.012939,151.870209 74.967842,172.917343 
	C74.965134,174.183929 74.501976,175.449539 73.887039,177.007446 
	C73.600044,160.669098 73.665703,144.038849 73.764580,127.408798 
	C73.805122,120.589363 73.917374,113.770355 74.078537,106.490707 
z"/>
<path fill="#E50000" opacity="1.000000" stroke="none" 
	d="
M150.995850,120.523941 
	C150.605698,119.746254 150.041534,118.508400 150.038361,117.269096 
	C149.983917,96.032318 149.994202,74.795364 150.023575,53.558491 
	C150.024353,53.001610 150.398941,52.445248 150.866058,52.048683 
	C151.116226,74.826843 151.099548,97.444962 150.995850,120.523941 
z"/>
<path fill="#E72528" opacity="1.000000" stroke="none" 
	d="
M133.642426,188.227859 
	C133.672485,188.729141 133.342606,189.675858 132.958237,189.698517 
	C126.207382,190.096542 126.629143,194.773865 126.924355,199.500671 
	C127.229858,204.392487 127.386932,209.293564 127.804314,214.557343 
	C127.049034,213.743256 125.335625,212.598999 125.276962,211.375397 
	C124.991081,205.412582 124.942871,199.416382 125.296600,193.460892 
	C125.381142,192.037582 127.096687,190.372559 128.484497,189.463715 
	C129.784332,188.612457 131.643890,188.615906 133.642426,188.227859 
z"/>
<path fill="#F08589" opacity="1.000000" stroke="none" 
	d="
M84.610504,91.910614 
	C84.874702,96.247276 84.874702,100.593521 84.874702,104.939774 
	C84.269188,104.952255 83.663681,104.964737 83.058167,104.977211 
	C83.058167,100.891518 83.058167,96.805817 83.178513,92.258057 
	C83.648003,91.837387 83.997154,91.878799 84.610504,91.910614 
z"/>
<path fill="#E60F18" opacity="1.000000" stroke="none" 
	d="
M81.351738,44.051701 
	C82.862625,43.145489 84.724403,42.221771 86.953293,41.492035 
	C85.447815,42.468742 83.575218,43.251469 81.351738,44.051701 
z"/>
<path fill="#E60F18" opacity="1.000000" stroke="none" 
	d="
M92.309570,14.513576 
	C90.630852,15.196936 88.567894,15.894565 86.258713,16.343521 
	C87.983437,15.572514 89.954384,15.050179 92.309570,14.513576 
z"/>
<path fill="#E60F18" opacity="1.000000" stroke="none" 
	d="
M91.535110,40.295620 
	C92.948517,39.690922 94.739830,39.063915 96.762283,38.687321 
	C95.299957,39.382923 93.606491,39.828121 91.535110,40.295620 
z"/>
<path fill="#E60F18" opacity="1.000000" stroke="none" 
	d="
M74.301590,47.771641 
	C75.196983,46.948914 76.404396,46.073765 77.978134,45.321800 
	C77.100853,46.203064 75.857224,46.961140 74.301590,47.771641 
z"/>
<path fill="#E60F18" opacity="1.000000" stroke="none" 
	d="
M99.006409,14.467590 
	C97.341820,14.830853 95.481972,14.842318 93.165482,14.731039 
	C94.742935,14.444128 96.777046,14.279961 99.006409,14.467590 
z"/>
<path fill="#E60F18" opacity="1.000000" stroke="none" 
	d="
M67.431099,52.217781 
	C68.289299,51.287704 69.457367,50.253532 70.982437,49.315506 
	C70.139946,50.312332 68.940460,51.213013 67.431099,52.217781 
z"/>
<path fill="#E60F18" opacity="1.000000" stroke="none" 
	d="
M87.925056,41.549515 
	C88.545662,41.107922 89.491501,40.602211 90.840057,40.170021 
	C90.245277,40.657490 89.247780,41.071442 87.925056,41.549515 
z"/>
<path fill="#E60F18" opacity="1.000000" stroke="none" 
	d="
M71.616760,49.350952 
	C71.755951,48.996582 72.195107,48.554882 72.987152,48.122635 
	C72.865601,48.509266 72.391159,48.886448 71.616760,49.350952 
z"/>
<path fill="#E60F18" opacity="1.000000" stroke="none" 
	d="
M78.654877,45.386703 
	C78.838791,45.029140 79.352074,44.587811 80.252098,44.179981 
	C80.087311,44.576633 79.535782,44.939785 78.654877,45.386703 
z"/>
<path fill="#E60F18" opacity="1.000000" stroke="none" 
	d="
M99.214546,37.920525 
	C99.029915,37.718182 99.140076,37.476749 99.495018,37.154556 
	C99.803543,37.369301 99.726723,37.638515 99.214546,37.920525 
z"/>
<path fill="#E60F18" opacity="1.000000" stroke="none" 
	d="
M99.807495,15.730856 
	C99.458115,15.816535 99.271286,15.575307 99.182053,15.021883 
	C99.409142,15.019047 99.639282,15.250467 99.807495,15.730856 
z"/>
<path fill="#E40006" opacity="1.000000" stroke="none" 
	d="
M98.465302,138.451126 
	C98.519516,138.418335 98.411079,138.483917 98.465302,138.451126 
z"/>
</svg>