<svg version="1.1" id="Layer_1" xmlns="http://www.w3.org/2000/svg" xmlns:xlink="http://www.w3.org/1999/xlink" x="0px" y="0px"
	 width="100%" viewBox="0 0 225 225" enable-background="new 0 0 225 225" xml:space="preserve">
<path fill="#FFFFFF" opacity="1.000000" stroke="none" 
	d="
M127.000000,226.000000 
	C84.666672,226.000000 42.833340,226.000000 1.000006,226.000000 
	C1.000004,151.000000 1.000004,76.000015 1.000002,1.000016 
	C75.999992,1.000010 150.999985,1.000010 225.999969,1.000005 
	C225.999985,75.999985 225.999985,150.999969 226.000000,225.999969 
	C193.166672,226.000000 160.333328,226.000000 127.000000,226.000000 
M166.981598,64.284088 
	C166.259933,63.839317 165.538284,63.394543 164.529144,62.994301 
	C164.529144,62.994301 164.242401,63.043365 163.848236,62.222889 
	C130.803879,62.157448 97.759529,62.086178 64.715157,62.068996 
	C64.063286,62.068657 63.411083,62.702427 62.469585,62.993580 
	C62.469585,62.993580 62.179573,62.950356 61.505035,62.899685 
	C60.914043,63.562595 60.323051,64.225502 59.114464,65.115273 
	C43.012409,81.171242 26.910349,97.227211 11.585041,112.508659 
	C27.822830,129.233612 43.778992,145.668488 60.033215,162.708466 
	C60.748192,163.155380 61.463173,163.602295 62.466988,164.006622 
	C62.466988,164.006622 62.754463,163.955658 63.148983,164.776291 
	C96.197250,164.842041 129.245529,164.913620 162.293808,164.931076 
	C162.946503,164.931427 163.599533,164.297348 164.532806,164.006454 
	C164.532806,164.006454 164.813599,164.051285 165.489258,164.099106 
	C166.082336,163.436615 166.675415,162.774124 167.886642,161.886292 
	C182.858124,146.929123 197.824234,131.966553 212.808014,117.021713 
	C214.639114,115.195374 216.554428,113.648376 213.784302,110.922340 
	C198.239685,95.625122 182.777756,80.243866 166.981598,64.284088 
z"/>
<path fill="#FEFBFA" opacity="1.000000" stroke="none" 
	d="
M164.813599,164.051285 
	C164.813599,164.051285 164.532806,164.006454 164.078552,163.823074 
	C161.500076,161.643951 159.315933,159.707794 157.261932,157.642242 
	C147.928955,148.256744 138.680328,138.786911 129.304688,129.444427 
	C123.950096,124.108780 118.410072,118.959206 112.972809,113.610718 
	C112.992065,113.495590 112.950386,113.265869 113.308258,113.240952 
	C114.498520,112.404327 115.337296,111.599037 116.162369,110.779953 
	C132.190018,94.868729 148.216049,78.955879 164.242401,63.043369 
	C164.242401,63.043365 164.529144,62.994301 164.758270,63.437267 
	C164.929474,97.270584 164.871536,130.660934 164.813599,164.051285 
z"/>
<path fill="#FFFBFB" opacity="1.000000" stroke="none" 
	d="
M112.950386,113.265869 
	C112.950386,113.265869 112.992065,113.495590 112.825684,113.921318 
	C96.024361,130.883255 79.389412,147.419464 62.754463,163.955658 
	C62.754463,163.955658 62.466988,164.006622 62.240135,163.562286 
	C62.068710,129.728760 62.124142,96.339554 62.179573,62.950356 
	C62.179573,62.950356 62.469585,62.993580 62.923500,63.163990 
	C79.901733,79.978226 96.426064,96.622047 112.950386,113.265869 
z"/>
<path fill="#E72A10" opacity="1.000000" stroke="none" 
	d="
M113.308258,113.240952 
	C96.426064,96.622047 79.901733,79.978226 63.068222,63.187378 
	C63.411083,62.702427 64.063286,62.068657 64.715157,62.068996 
	C97.759529,62.086178 130.803879,62.157448 164.045319,62.633133 
	C148.216049,78.955879 132.190018,94.868729 116.162369,110.779953 
	C115.337296,111.599037 114.498520,112.404327 113.308258,113.240952 
z"/>
<path fill="#E72A10" opacity="1.000000" stroke="none" 
	d="
M62.951725,164.365967 
	C79.389412,147.419464 96.024361,130.883255 112.806427,114.036453 
	C118.410072,118.959206 123.950096,124.108780 129.304688,129.444427 
	C138.680328,138.786911 147.928955,148.256744 157.261932,157.642242 
	C159.315933,159.707794 161.500076,161.643951 163.938354,163.799469 
	C163.599533,164.297348 162.946503,164.931427 162.293808,164.931076 
	C129.245529,164.913620 96.197250,164.842041 62.951725,164.365967 
z"/>
<path fill="#E7290F" opacity="1.000000" stroke="none" 
	d="
M59.735146,162.103363 
	C43.778992,145.668488 27.822830,129.233612 11.585041,112.508659 
	C26.910349,97.227211 43.012409,81.171242 59.769680,65.264091 
	C60.615936,66.371483 60.972969,67.329880 60.973934,68.288643 
	C61.004078,98.217560 61.015888,128.146545 60.946617,158.075333 
	C60.943508,159.418930 60.156841,160.760742 59.735146,162.103363 
z"/>
<path fill="#E7290F" opacity="1.000000" stroke="none" 
	d="
M167.287613,64.891304 
	C182.777756,80.243866 198.239685,95.625122 213.784302,110.922340 
	C216.554428,113.648376 214.639114,115.195374 212.808014,117.021713 
	C197.824234,131.966553 182.858124,146.929123 167.231049,161.736816 
	C166.384277,160.628601 166.027069,159.670044 166.026093,158.711121 
	C165.995956,128.776306 165.983902,98.841431 166.054398,68.906761 
	C166.057571,67.567314 166.858353,66.229752 167.287613,64.891304 
z"/>
<path fill="#E50000" opacity="1.000000" stroke="none" 
	d="
M59.884178,162.405914 
	C60.156841,160.760742 60.943508,159.418930 60.946617,158.075333 
	C61.015888,128.146545 61.004078,98.217560 60.973934,68.288643 
	C60.972969,67.329880 60.615936,66.371483 60.078476,65.150665 
	C60.323051,64.225502 60.914043,63.562595 61.842304,62.925018 
	C62.124142,96.339554 62.068710,129.728760 62.095715,163.583572 
	C61.463173,163.602295 60.748192,163.155380 59.884178,162.405914 
z"/>
<path fill="#E50000" opacity="1.000000" stroke="none" 
	d="
M167.134613,64.587692 
	C166.858353,66.229752 166.057571,67.567314 166.054398,68.906761 
	C165.983902,98.841431 165.995956,128.776306 166.026093,158.711121 
	C166.027069,159.670044 166.384277,160.628601 166.921967,161.849487 
	C166.675415,162.774124 166.082336,163.436615 165.151428,164.075195 
	C164.871536,130.660934 164.929474,97.270584 164.902008,63.415001 
	C165.538284,63.394543 166.259933,63.839317 167.134613,64.587692 
z"/>
</svg>