<svg version="1.1" id="Layer_1" xmlns="http://www.w3.org/2000/svg" xmlns:xlink="http://www.w3.org/1999/xlink" x="0px" y="0px"
	 width="100%" viewBox="0 0 1280 1280" enable-background="new 0 0 1280 1280" xml:space="preserve">
<path fill="#00561F" opacity="1.000000" stroke="none" 
	d="
M1.000000,692.000000 
	C1.000000,661.312439 1.000000,630.624878 1.360826,599.320679 
	C2.136805,597.496643 2.787128,596.316528 2.930772,595.077576 
	C4.382996,582.552063 5.297553,569.946472 7.226221,557.497070 
	C14.370052,511.384186 26.393188,466.532593 43.169899,422.985504 
	C55.261909,391.598419 69.511070,361.183380 86.104736,331.938965 
	C102.841965,302.441498 121.523521,274.193329 142.628159,247.585175 
	C162.979355,221.926926 184.458282,197.362320 208.379669,174.876236 
	C228.876755,155.609024 250.165405,137.398697 272.766693,120.679054 
	C297.120544,102.662994 322.673096,86.523598 349.423309,72.358345 
	C384.757507,53.647564 421.521332,38.343811 459.872437,26.846237 
	C501.057404,14.499096 543.008728,6.413595 585.857971,2.905377 
	C587.281067,2.788864 588.621216,1.658029 590.000000,1.000001 
	C625.354248,1.000000 660.708435,1.000000 696.681885,1.359793 
	C698.675720,2.139198 700.026428,2.800592 701.428955,2.940177 
	C712.659851,4.057897 723.953613,4.685691 735.128113,6.201036 
	C766.243164,10.420484 797.008850,16.382643 827.308899,24.800207 
	C862.326477,34.528328 896.194580,47.274319 928.862976,63.077068 
	C958.224731,77.280296 986.614197,93.382500 1012.664978,113.062660 
	C1033.692505,128.948044 1054.605835,145.183487 1074.026978,162.950150 
	C1103.865601,190.246719 1130.693604,220.446350 1154.177246,253.531876 
	C1171.338989,277.710785 1187.203857,302.627045 1200.119385,329.353119 
	C1200.796387,330.753967 1201.211670,332.281158 1202.039062,334.542969 
	C1198.590210,334.725830 1196.003906,334.982086 1193.417480,334.982788 
	C1112.925659,335.004791 1032.433716,335.042999 951.942200,334.902893 
	C946.998047,334.894287 944.628601,336.401459 942.923645,341.152252 
	C927.707520,383.551361 912.235474,425.858704 896.822876,468.187225 
	C885.569275,499.093811 874.286743,529.989868 863.041992,560.899658 
	C862.556946,562.233032 862.322632,563.657532 861.726257,566.004822 
	C865.069092,566.004822 867.669556,566.004822 870.269958,566.004822 
	C1001.256653,566.004944 1132.243286,566.004517 1263.229980,566.009155 
	C1265.562378,566.009277 1267.992188,565.684692 1270.191895,566.241150 
	C1271.601807,566.597900 1273.539185,568.147095 1273.756836,569.416138 
	C1275.383057,578.898315 1276.528687,588.461792 1278.060547,597.961792 
	C1278.768433,602.351746 1280.003784,606.656555 1281.000000,611.000000 
	C1281.000000,641.354248 1281.000000,671.708435 1280.641113,702.676270 
	C1279.864868,704.495972 1279.208740,705.675232 1279.069336,706.912598 
	C1278.271362,714.002014 1277.835693,721.139038 1276.838135,728.197937 
	C1272.465454,759.139343 1266.196899,789.662170 1257.350952,819.680908 
	C1245.282104,860.635254 1229.415894,899.983032 1209.676392,937.839844 
	C1192.578247,970.630981 1173.528442,1002.223328 1150.639893,1031.242554 
	C1133.587036,1052.863281 1116.080566,1074.312866 1096.912598,1094.026855 
	C1077.498047,1113.994751 1056.402344,1132.469360 1034.947021,1150.277832 
	C1003.922485,1176.028931 969.879517,1197.509644 933.987915,1215.872437 
	C903.015808,1231.718384 870.917786,1244.916992 837.566711,1255.034058 
	C796.909485,1267.367065 755.522827,1275.738159 713.141418,1279.095337 
	C711.719543,1279.208008 710.378662,1280.342041 709.000000,1281.000000 
	C672.979126,1281.000000 636.958191,1281.000000 600.322021,1280.638672 
	C598.331848,1279.858521 596.979858,1279.191162 595.578247,1279.061768 
	C586.982483,1278.268921 578.291382,1278.130371 569.788208,1276.786011 
	C544.389832,1272.770630 518.906494,1269.056885 493.743256,1263.841064 
	C446.532532,1254.055542 401.158630,1238.325806 357.595612,1217.746704 
	C319.025299,1199.526001 282.285522,1177.985229 248.658249,1151.626465 
	C230.115723,1137.091797 212.034912,1121.865845 194.732727,1105.883301 
	C180.827942,1093.038940 168.132507,1078.837280 155.396042,1064.788574 
	C138.857758,1046.546143 124.050499,1026.931641 111.285347,1005.831055 
	C110.575127,1004.657104 110.156624,1003.306641 109.305573,1001.359314 
	C112.614502,1001.214539 115.065781,1001.014221 117.517128,1001.013489 
	C180.011093,1000.995300 242.505219,1000.939697 304.998718,1001.112244 
	C309.800568,1001.125488 312.268402,999.488647 313.833649,995.198547 
	C319.073608,980.836853 324.469696,966.532104 329.818726,952.210327 
	C340.633728,923.253784 351.462677,894.302490 362.275665,865.345215 
	C373.903046,834.207275 385.527618,803.068298 397.113708,771.914978 
	C397.711914,770.306580 397.937561,768.559570 398.544617,766.000488 
	C395.062042,766.000488 392.443634,766.000488 389.825195,766.000488 
	C267.836975,766.000366 145.848740,766.000610 23.860510,765.997253 
	C21.694452,765.997192 19.404003,766.379517 17.401627,765.795105 
	C15.795284,765.326355 13.501180,763.831787 13.281111,762.500122 
	C9.685100,740.739807 6.397880,718.928711 2.942477,697.144592 
	C2.661250,695.371643 1.664354,693.712219 1.000000,692.000000 
M746.500000,244.000473 
	C720.002502,244.002335 693.504517,244.078156 667.007874,243.928299 
	C662.913269,243.905151 660.502380,245.169724 659.097473,249.074020 
	C644.806030,288.790985 630.414246,328.471741 616.088623,368.176392 
	C605.596619,397.255981 595.201782,426.370636 584.690979,455.443390 
	C569.490906,497.486694 554.196045,539.495789 538.996887,581.539429 
	C527.189453,614.200806 515.510315,646.908569 503.694122,679.566772 
	C490.008850,717.390747 476.199127,755.169678 462.511169,792.992676 
	C447.859772,833.478088 433.306458,873.998901 418.672607,914.490662 
	C410.651276,936.685547 402.532959,958.845337 394.500061,981.036011 
	C392.213287,987.353088 390.072601,993.723083 387.541138,1000.999573 
	C391.250458,1000.999573 393.875946,1000.999634 396.501434,1000.999634 
	C537.823608,1000.999695 679.145813,1001.039124 820.468018,1000.956238 
	C840.933838,1000.944214 861.406982,1000.589844 881.862732,999.948364 
	C901.455688,999.333862 920.003052,994.413208 936.760498,984.002808 
	C950.065002,975.737427 960.430603,964.711975 966.151245,949.834229 
	C976.172180,923.772400 986.363892,897.773132 996.064575,871.592224 
	C1002.288452,854.794678 1009.016235,838.020874 1013.191223,820.676331 
	C1016.834229,805.541687 1013.112305,790.812561 1001.007690,779.553650 
	C988.981812,768.367981 974.136047,763.248840 958.202698,763.169067 
	C883.043823,762.793030 807.882080,763.003479 732.721313,762.984741 
	C730.289368,762.984131 727.857422,762.767212 724.148682,762.590149 
	C786.207764,589.554077 847.969055,417.348145 910.139893,244.000473 
	C855.041382,244.000473 801.270691,244.000473 746.500000,244.000473 
M359.501770,328.000000 
	C336.864716,327.558990 315.042511,330.726868 295.352631,342.883698 
	C280.857391,351.833344 269.279144,363.428375 263.575256,379.896515 
	C254.436493,406.281952 245.357132,432.689270 236.479889,459.163513 
	C230.938995,475.687927 225.087769,492.165649 220.764801,509.020569 
	C217.959763,519.957153 219.720612,531.418396 225.404480,541.430603 
	C232.835007,554.519531 245.266205,559.860474 259.691284,559.903870 
	C327.843506,560.108826 395.996887,559.934448 464.149200,560.120789 
	C469.344360,560.135010 471.393402,557.970154 473.028229,553.597290 
	C485.246033,520.915955 497.613434,488.290436 509.959351,455.657043 
	C523.892700,418.827698 537.864075,382.012695 551.788025,345.179779 
	C553.807007,339.839142 555.654480,334.433685 557.960571,328.000000 
	C491.360901,328.000000 425.930969,328.000000 359.501770,328.000000 
z"/>
<path fill="#000000" opacity="1.000000" stroke="none" 
	d="
M1281.000000,610.531372 
	C1280.003784,606.656555 1278.768433,602.351746 1278.060547,597.961792 
	C1276.528687,588.461792 1275.383057,578.898315 1273.756836,569.416138 
	C1273.539185,568.147095 1271.601807,566.597900 1270.191895,566.241150 
	C1267.992188,565.684692 1265.562378,566.009277 1263.229980,566.009155 
	C1132.243286,566.004517 1001.256653,566.004944 870.269958,566.004822 
	C867.669556,566.004822 865.069092,566.004822 861.726257,566.004822 
	C862.322632,563.657532 862.556946,562.233032 863.041992,560.899658 
	C874.286743,529.989868 885.569275,499.093811 896.822876,468.187225 
	C912.235474,425.858704 927.707520,383.551361 942.923645,341.152252 
	C944.628601,336.401459 946.998047,334.894287 951.942200,334.902893 
	C1032.433716,335.042999 1112.925659,335.004791 1193.417480,334.982788 
	C1196.003906,334.982086 1198.590210,334.725830 1202.039062,334.542969 
	C1201.211670,332.281158 1200.796387,330.753967 1200.119385,329.353119 
	C1187.203857,302.627045 1171.338989,277.710785 1154.177246,253.531876 
	C1130.693604,220.446350 1103.865601,190.246719 1074.026978,162.950150 
	C1054.605835,145.183487 1033.692505,128.948044 1012.664978,113.062660 
	C986.614197,93.382500 958.224731,77.280296 928.862976,63.077068 
	C896.194580,47.274319 862.326477,34.528328 827.308899,24.800207 
	C797.008850,16.382643 766.243164,10.420484 735.128113,6.201036 
	C723.953613,4.685691 712.659851,4.057897 701.428955,2.940177 
	C700.026428,2.800592 698.675720,2.139198 697.150513,1.359793 
	C891.595337,1.000000 1086.190674,1.000000 1281.000000,1.000000 
	C1281.000000,204.020844 1281.000000,407.041779 1281.000000,610.531372 
z"/>
<path fill="#000000" opacity="1.000000" stroke="none" 
	d="
M1.000000,692.468628 
	C1.664354,693.712219 2.661250,695.371643 2.942477,697.144592 
	C6.397880,718.928711 9.685100,740.739807 13.281111,762.500122 
	C13.501180,763.831787 15.795284,765.326355 17.401627,765.795105 
	C19.404003,766.379517 21.694452,765.997192 23.860510,765.997253 
	C145.848740,766.000610 267.836975,766.000366 389.825195,766.000488 
	C392.443634,766.000488 395.062042,766.000488 398.544617,766.000488 
	C397.937561,768.559570 397.711914,770.306580 397.113708,771.914978 
	C385.527618,803.068298 373.903046,834.207275 362.275665,865.345215 
	C351.462677,894.302490 340.633728,923.253784 329.818726,952.210327 
	C324.469696,966.532104 319.073608,980.836853 313.833649,995.198547 
	C312.268402,999.488647 309.800568,1001.125488 304.998718,1001.112244 
	C242.505219,1000.939697 180.011093,1000.995300 117.517128,1001.013489 
	C115.065781,1001.014221 112.614502,1001.214539 109.305573,1001.359314 
	C110.156624,1003.306641 110.575127,1004.657104 111.285347,1005.831055 
	C124.050499,1026.931641 138.857758,1046.546143 155.396042,1064.788574 
	C168.132507,1078.837280 180.827942,1093.038940 194.732727,1105.883301 
	C212.034912,1121.865845 230.115723,1137.091797 248.658249,1151.626465 
	C282.285522,1177.985229 319.025299,1199.526001 357.595612,1217.746704 
	C401.158630,1238.325806 446.532532,1254.055542 493.743256,1263.841064 
	C518.906494,1269.056885 544.389832,1272.770630 569.788208,1276.786011 
	C578.291382,1278.130371 586.982483,1278.268921 595.578247,1279.061768 
	C596.979858,1279.191162 598.331848,1279.858521 599.853394,1280.638672 
	C400.406860,1281.000000 200.813721,1281.000000 1.000000,1281.000000 
	C1.000000,1084.979126 1.000000,888.958252 1.000000,692.468628 
z"/>
<path fill="#000000" opacity="1.000000" stroke="none" 
	d="
M589.531372,1.000001 
	C588.621216,1.658029 587.281067,2.788864 585.857971,2.905377 
	C543.008728,6.413595 501.057404,14.499096 459.872437,26.846237 
	C421.521332,38.343811 384.757507,53.647564 349.423309,72.358345 
	C322.673096,86.523598 297.120544,102.662994 272.766693,120.679054 
	C250.165405,137.398697 228.876755,155.609024 208.379669,174.876236 
	C184.458282,197.362320 162.979355,221.926926 142.628159,247.585175 
	C121.523521,274.193329 102.841965,302.441498 86.104736,331.938965 
	C69.511070,361.183380 55.261909,391.598419 43.169899,422.985504 
	C26.393188,466.532593 14.370052,511.384186 7.226221,557.497070 
	C5.297553,569.946472 4.382996,582.552063 2.930772,595.077576 
	C2.787128,596.316528 2.136805,597.496643 1.360826,598.852051 
	C1.000000,399.740143 1.000000,200.480255 1.000000,1.000000 
	C197.020844,1.000000 393.041748,1.000000 589.531372,1.000001 
z"/>
<path fill="#000000" opacity="1.000000" stroke="none" 
	d="
M709.468628,1281.000000 
	C710.378662,1280.342041 711.719543,1279.208008 713.141418,1279.095337 
	C755.522827,1275.738159 796.909485,1267.367065 837.566711,1255.034058 
	C870.917786,1244.916992 903.015808,1231.718384 933.987915,1215.872437 
	C969.879517,1197.509644 1003.922485,1176.028931 1034.947021,1150.277832 
	C1056.402344,1132.469360 1077.498047,1113.994751 1096.912598,1094.026855 
	C1116.080566,1074.312866 1133.587036,1052.863281 1150.639893,1031.242554 
	C1173.528442,1002.223328 1192.578247,970.630981 1209.676392,937.839844 
	C1229.415894,899.983032 1245.282104,860.635254 1257.350952,819.680908 
	C1266.196899,789.662170 1272.465454,759.139343 1276.838135,728.197937 
	C1277.835693,721.139038 1278.271362,714.002014 1279.069336,706.912598 
	C1279.208740,705.675232 1279.864868,704.495972 1280.641113,703.144958 
	C1281.000000,895.593384 1281.000000,1088.186768 1281.000000,1281.000000 
	C1090.645874,1281.000000 900.291565,1281.000000 709.468628,1281.000000 
z"/>
<path fill="#000000" opacity="1.000000" stroke="none" 
	d="
M747.000000,244.000473 
	C801.270691,244.000473 855.041382,244.000473 910.139893,244.000473 
	C847.969055,417.348145 786.207764,589.554077 724.148682,762.590149 
	C727.857422,762.767212 730.289368,762.984131 732.721313,762.984741 
	C807.882080,763.003479 883.043823,762.793030 958.202698,763.169067 
	C974.136047,763.248840 988.981812,768.367981 1001.007690,779.553650 
	C1013.112305,790.812561 1016.834229,805.541687 1013.191223,820.676331 
	C1009.016235,838.020874 1002.288452,854.794678 996.064575,871.592224 
	C986.363892,897.773132 976.172180,923.772400 966.151245,949.834229 
	C960.430603,964.711975 950.065002,975.737427 936.760498,984.002808 
	C920.003052,994.413208 901.455688,999.333862 881.862732,999.948364 
	C861.406982,1000.589844 840.933838,1000.944214 820.468018,1000.956238 
	C679.145813,1001.039124 537.823608,1000.999695 396.501434,1000.999634 
	C393.875946,1000.999634 391.250458,1000.999573 387.541138,1000.999573 
	C390.072601,993.723083 392.213287,987.353088 394.500061,981.036011 
	C402.532959,958.845337 410.651276,936.685547 418.672607,914.490662 
	C433.306458,873.998901 447.859772,833.478088 462.511169,792.992676 
	C476.199127,755.169678 490.008850,717.390747 503.694122,679.566772 
	C515.510315,646.908569 527.189453,614.200806 538.996887,581.539429 
	C554.196045,539.495789 569.490906,497.486694 584.690979,455.443390 
	C595.201782,426.370636 605.596619,397.255981 616.088623,368.176392 
	C630.414246,328.471741 644.806030,288.790985 659.097473,249.074020 
	C660.502380,245.169724 662.913269,243.905151 667.007874,243.928299 
	C693.504517,244.078156 720.002502,244.002335 747.000000,244.000473 
z"/>
<path fill="#000000" opacity="1.000000" stroke="none" 
	d="
M360.001404,328.000000 
	C425.930969,328.000000 491.360901,328.000000 557.960571,328.000000 
	C555.654480,334.433685 553.807007,339.839142 551.788025,345.179779 
	C537.864075,382.012695 523.892700,418.827698 509.959351,455.657043 
	C497.613434,488.290436 485.246033,520.915955 473.028229,553.597290 
	C471.393402,557.970154 469.344360,560.135010 464.149200,560.120789 
	C395.996887,559.934448 327.843506,560.108826 259.691284,559.903870 
	C245.266205,559.860474 232.835007,554.519531 225.404480,541.430603 
	C219.720612,531.418396 217.959763,519.957153 220.764801,509.020569 
	C225.087769,492.165649 230.938995,475.687927 236.479889,459.163513 
	C245.357132,432.689270 254.436493,406.281952 263.575256,379.896515 
	C269.279144,363.428375 280.857391,351.833344 295.352631,342.883698 
	C315.042511,330.726868 336.864716,327.558990 360.001404,328.000000 
z"/>
</svg>