<svg version="1.1" id="Layer_1" xmlns="http://www.w3.org/2000/svg" xmlns:xlink="http://www.w3.org/1999/xlink" x="0px" y="0px"
	 width="100%" viewBox="0 0 512 512" enable-background="new 0 0 512 512" xml:space="preserve">
<path fill="#FFFFFF" opacity="1.000000" stroke="none" 
	d="
M343.000000,513.000000 
	C228.694443,513.000000 114.888878,513.000000 1.041656,513.000000 
	C1.041656,342.402740 1.041656,171.805481 1.041656,1.104111 
	C171.555573,1.104111 342.111206,1.104111 512.833435,1.104111 
	C512.833435,171.666534 512.833435,342.333252 512.833435,513.000000 
	C456.472137,513.000000 399.986053,513.000000 343.000000,513.000000 
M378.214020,237.570602 
	C403.293610,197.500092 393.178558,142.227844 355.610992,113.786964 
	C328.636322,93.365517 298.834808,88.429008 266.913391,98.774567 
	C223.135391,112.962776 179.619370,127.958389 135.945328,142.470322 
	C132.974030,143.457611 132.771088,145.114487 132.775452,147.628952 
	C132.828537,178.279221 132.805069,208.929596 132.827560,239.579941 
	C132.828537,240.893387 133.082932,242.206635 132.911865,244.343674 
	C132.890366,277.164612 132.871857,309.985565 132.845566,342.806488 
	C132.837311,353.116333 134.971466,362.996582 139.298019,372.312836 
	C155.817764,407.884369 193.698120,423.581909 232.363174,410.748566 
	C264.706360,400.013489 296.997223,389.116943 329.236267,378.072998 
	C370.282532,364.011963 397.015259,320.468079 391.422211,277.855011 
	C389.545929,263.559937 384.667297,250.513870 378.214020,237.570602 
z"/>
<path fill="#1370E1" opacity="1.000000" stroke="none" 
	d="
M377.699768,238.082993 
	C384.667297,250.513870 389.545929,263.559937 391.422211,277.855011 
	C397.015259,320.468079 370.282532,364.011963 329.236267,378.072998 
	C296.997223,389.116943 264.706360,400.013489 232.363174,410.748566 
	C193.698120,423.581909 155.817764,407.884369 139.298019,372.312836 
	C134.971466,362.996582 132.837311,353.116333 132.845566,342.806488 
	C132.871857,309.985565 132.890366,277.164612 133.424805,243.791046 
	C134.741348,243.031067 135.561752,242.873459 136.346207,242.609192 
	C178.014206,228.572662 219.659393,214.468079 261.353729,200.510269 
	C279.201843,194.535309 297.384766,191.637909 316.166534,195.647141 
	C342.560974,201.281387 362.791992,215.812851 377.699768,238.082993 
z"/>
<path fill="#13CF36" opacity="1.000000" stroke="none" 
	d="
M377.956909,237.826797 
	C362.791992,215.812851 342.560974,201.281387 316.166534,195.647141 
	C297.384766,191.637909 279.201843,194.535309 261.353729,200.510269 
	C219.659393,214.468079 178.014206,228.572662 136.346207,242.609192 
	C135.561752,242.873459 134.741348,243.031067 133.578491,243.379211 
	C133.082932,242.206635 132.828537,240.893387 132.827560,239.579941 
	C132.805069,208.929596 132.828537,178.279221 132.775452,147.628952 
	C132.771088,145.114487 132.974030,143.457611 135.945328,142.470322 
	C179.619370,127.958389 223.135391,112.962776 266.913391,98.774567 
	C298.834808,88.429008 328.636322,93.365517 355.610992,113.786964 
	C393.178558,142.227844 403.293610,197.500092 377.956909,237.826797 
z"/>
</svg>