<svg version="1.1" id="Layer_1" xmlns="http://www.w3.org/2000/svg" xmlns:xlink="http://www.w3.org/1999/xlink" x="0px" y="0px"
	 width="100%" viewBox="0 0 225 225" enable-background="new 0 0 225 225" xml:space="preserve">
<path fill="#F9EED2" opacity="1.000000" stroke="none" 
	d="
M160.000000,226.000000 
	C107.032532,226.000000 54.065071,226.000000 1.048803,226.000000 
	C1.048803,151.078598 1.048803,76.157166 1.048803,1.117863 
	C75.999901,1.117863 150.999924,1.117863 225.999969,1.121855 
	C226.000000,35.438126 226.000000,69.750404 225.631165,104.527039 
	C214.292130,98.439835 203.262756,91.984787 192.369949,85.306984 
	C183.237076,79.708099 174.293716,73.800522 165.183640,68.163475 
	C163.961639,67.407341 162.254074,67.435936 160.489944,66.947632 
	C158.153152,65.150688 156.097794,63.507259 153.951355,61.637524 
	C153.638809,61.143585 153.354553,61.002037 152.874237,60.817593 
	C152.740952,60.648609 152.315872,60.580814 152.270172,60.603107 
	C152.224487,60.625401 152.296082,60.697605 152.166138,60.432472 
	C151.353485,59.790058 150.670776,59.412777 149.959930,58.845654 
	C149.931793,58.655811 149.855942,58.279549 149.884552,57.889320 
	C149.201538,56.309284 148.770950,54.534729 147.728317,54.033585 
	C143.777649,52.134705 139.735352,50.267727 135.530960,49.089520 
	C127.559616,46.855698 119.502403,44.850758 111.380127,43.267586 
	C107.649094,42.540344 104.268753,43.975662 102.953659,48.521366 
	C102.181496,48.859386 101.613556,48.987988 100.645821,49.071335 
	C96.565628,50.114578 92.885223,51.203075 88.841522,52.255447 
	C85.313286,54.140568 82.148354,56.061810 78.749344,57.984283 
	C78.323578,58.350731 78.131905,58.715950 77.965698,59.319786 
	C77.991150,59.558403 78.039528,60.035892 78.032043,60.275372 
	C78.024559,60.514851 78.011780,60.993870 77.717522,61.121277 
	C76.294540,62.171516 75.165810,63.094357 73.803062,63.803520 
	C73.045837,62.060169 72.522636,60.530491 71.836327,58.703529 
	C71.153549,58.043694 70.624382,57.354221 70.115700,57.369026 
	C64.878334,57.521500 63.981171,60.199879 66.956573,66.480927 
	C65.173759,68.769485 63.537792,70.768471 61.605797,72.942108 
	C59.669857,75.713379 58.029942,78.310013 56.168449,81.142395 
	C53.956299,86.577271 51.965721,91.776413 49.775368,97.286926 
	C48.999275,100.059898 48.422958,102.521500 47.453911,104.994553 
	C42.182095,105.163841 43.275040,109.761436 43.418137,111.727005 
	C43.655540,114.987915 43.175995,119.498894 47.916843,121.383446 
	C48.678207,123.838753 49.352798,125.927673 49.863007,128.294739 
	C51.451511,139.826355 56.953445,149.138672 64.736252,157.633057 
	C66.111359,159.110245 67.345406,160.297424 68.765762,161.749115 
	C70.445114,163.191574 71.938156,164.369522 73.646919,165.791382 
	C75.544579,167.109787 77.226517,168.184280 79.094391,169.535095 
	C82.507286,171.585602 85.734222,173.359787 89.036293,175.467773 
	C97.360512,181.422440 105.481728,187.243423 113.889359,192.616211 
	C125.820625,200.240738 137.962769,207.535278 150.050690,215.327209 
	C152.567627,218.231720 155.054306,220.774414 157.526657,223.330978 
	C158.369644,224.202698 159.176590,225.109329 160.000000,226.000000 
z"/>
<path fill="#F1DFAF" opacity="1.000000" stroke="none" 
	d="
M150.014801,214.970825 
	C137.962769,207.535278 125.820625,200.240738 113.889359,192.616211 
	C105.481728,187.243423 97.360512,181.422440 89.411545,175.463409 
	C92.139496,175.743240 94.567322,176.361237 97.292755,177.226868 
	C103.724434,177.979340 109.858505,178.484192 116.244804,179.036880 
	C116.666267,179.059494 116.835503,179.034256 117.401443,179.055161 
	C118.857277,179.021286 119.916412,178.941269 121.333221,178.902481 
	C122.800323,178.646210 123.909767,178.348694 125.400551,178.060211 
	C127.651604,177.450012 129.521317,176.830765 131.667770,176.200134 
	C132.315857,176.153259 132.687195,176.117752 133.443146,176.071259 
	C136.184830,175.338791 138.541901,174.617294 141.222717,173.772095 
	C145.363770,171.098419 149.181046,168.548447 153.361313,165.945755 
	C154.591644,165.082321 155.458984,164.271576 156.507690,163.235657 
	C160.907074,158.041245 165.125076,153.072037 169.593857,147.886963 
	C171.177032,144.757355 172.509430,141.843613 174.135880,138.718536 
	C175.380188,135.369263 176.330429,132.231308 177.505798,128.820511 
	C177.842148,127.374939 177.953369,126.202217 178.248001,124.735550 
	C178.559235,123.299164 178.687057,122.156700 178.911514,120.554443 
	C178.917664,114.762215 178.827194,109.429802 178.759338,103.749329 
	C178.187759,101.903313 177.593552,100.405342 177.131653,98.803116 
	C177.315720,98.599007 177.435028,98.469162 177.406509,98.404976 
	C177.323196,98.217354 177.180923,98.055923 177.077698,97.924889 
	C177.093613,97.965561 177.169220,97.921806 177.163910,97.526031 
	C174.525711,85.909668 169.159882,76.212196 160.919464,67.841309 
	C160.834824,67.430580 160.803085,67.265862 160.771362,67.101143 
	C162.254074,67.435936 163.961639,67.407341 165.183640,68.163475 
	C174.293716,73.800522 183.237076,79.708099 192.369949,85.306984 
	C203.262756,91.984787 214.292130,98.439835 225.631165,104.995697 
	C226.000000,145.235611 226.000000,185.471222 226.000000,226.000000 
	C206.313416,226.000000 186.625366,226.000000 166.413300,225.661316 
	C160.597778,221.872040 155.306290,218.421432 150.014801,214.970825 
z"/>
<path fill="#FCECCA" opacity="1.000000" stroke="none" 
	d="
M150.050690,215.327209 
	C155.306290,218.421432 160.597778,221.872040 165.944641,225.661316 
	C165.250000,226.000000 164.500000,226.000000 163.280243,225.849625 
	C162.540314,225.799500 162.270157,225.899750 162.000000,226.000000 
	C161.555557,226.000000 161.111099,226.000000 160.333328,226.000000 
	C159.176590,225.109329 158.369644,224.202698 157.526657,223.330978 
	C155.054306,220.774414 152.567627,218.231720 150.050690,215.327209 
z"/>
<path fill="#F9EED2" opacity="1.000000" stroke="none" 
	d="
M162.250000,226.000000 
	C162.270157,225.899750 162.540314,225.799500 162.905243,225.849625 
	C163.000000,226.000000 162.500000,226.000000 162.250000,226.000000 
z"/>
<path fill="#9D7829" opacity="1.000000" stroke="none" 
	d="
M50.027390,128.016602 
	C49.352798,125.927673 48.678207,123.838753 47.977356,120.956970 
	C47.971409,118.443733 47.991714,116.723335 48.350716,114.937294 
	C51.037167,113.444489 53.237709,111.632484 55.762024,110.666908 
	C61.809994,108.353470 67.104263,103.938469 74.420593,103.973373 
	C76.217529,103.985397 77.599792,103.991333 79.298096,104.063950 
	C80.745682,104.712540 81.877220,105.294449 83.152267,106.006065 
	C83.295761,106.135773 83.680321,106.177887 83.898621,106.438721 
	C85.729256,107.507324 87.341591,108.315094 88.852203,109.356628 
	C88.533089,110.046455 88.315689,110.502510 87.727165,110.928284 
	C85.907013,110.594948 84.457985,110.291916 82.820053,109.672417 
	C79.887566,109.378242 76.869614,108.666702 74.455200,109.569420 
	C68.714996,111.715607 63.354786,114.858833 57.664185,117.162292 
	C51.850727,119.515503 51.718861,119.370499 53.734001,125.271484 
	C53.323086,127.334785 53.178825,129.125687 52.752628,130.794266 
	C51.656261,129.786819 50.841827,128.901718 50.027390,128.016602 
z"/>
<path fill="#C9AF6F" opacity="1.000000" stroke="none" 
	d="
M89.204834,52.291573 
	C92.885223,51.203075 96.565628,50.114578 100.638382,49.483097 
	C101.344070,53.513607 102.316643,57.186405 101.797226,60.634453 
	C101.201355,64.589958 101.909836,67.442795 104.691330,69.822609 
	C102.528008,70.259842 100.762741,70.604561 98.602318,70.968765 
	C96.141716,71.287857 94.076271,71.587471 91.734558,71.633774 
	C90.643585,69.980171 89.196877,68.609833 89.128853,67.174171 
	C88.894379,62.225613 89.141281,57.254250 89.204834,52.291573 
z"/>
<path fill="#8B682C" opacity="1.000000" stroke="none" 
	d="
M47.846649,104.983101 
	C48.422958,102.521500 48.999275,100.059898 50.130878,97.250145 
	C51.784199,95.793060 52.754471,94.504959 54.006588,93.612114 
	C56.696953,91.693687 59.387894,89.587692 62.415043,88.468376 
	C63.131454,88.203491 65.168587,91.539909 66.613548,93.206398 
	C67.731956,94.496277 68.874329,95.765366 69.882462,97.305771 
	C69.368713,98.074928 68.955597,99.040108 68.591774,99.021866 
	C60.266060,98.604568 54.085278,102.988152 48.109314,107.616760 
	C47.984550,106.488747 47.915600,105.735924 47.846649,104.983101 
z"/>
<path fill="#DDCBA2" opacity="1.000000" stroke="none" 
	d="
M88.841522,52.255447 
	C89.141281,57.254250 88.894379,62.225613 89.128853,67.174171 
	C89.196877,68.609833 90.643585,69.980171 91.460091,71.893982 
	C87.992470,73.234016 84.523056,74.060524 80.958313,74.531845 
	C80.474037,71.444405 79.093452,68.340759 79.943039,66.072388 
	C81.045799,63.128071 79.917542,62.201756 78.011780,60.993870 
	C78.011780,60.993870 78.024559,60.514851 78.248909,60.159752 
	C78.750160,59.600708 78.927429,59.331211 79.002548,58.998001 
	C79.000023,58.999847 78.996040,59.004025 79.238037,58.992397 
	C79.729263,58.819538 79.978477,58.658310 80.227699,58.497086 
	C79.815605,58.328453 79.403511,58.159824 78.994980,57.994846 
	C78.998535,57.998497 78.983429,57.983055 78.983429,57.983055 
	C82.148354,56.061810 85.313286,54.140568 88.841522,52.255447 
z"/>
<path fill="#99772C" opacity="1.000000" stroke="none" 
	d="
M96.995148,176.979248 
	C94.567322,176.361237 92.139496,175.743240 89.336418,175.129608 
	C85.734222,173.359787 82.507286,171.585602 79.117523,169.222961 
	C78.964394,168.426071 78.974098,168.217606 79.135696,167.676025 
	C79.854942,162.261246 80.422279,157.179565 81.336281,152.110565 
	C82.800171,152.384354 83.917397,152.645447 85.366425,153.071381 
	C88.792435,154.177963 91.886642,155.119705 94.781387,156.292450 
	C93.720772,157.015823 92.859627,157.508179 91.673538,158.148117 
	C85.207527,159.310272 87.631790,164.365326 87.565689,167.616119 
	C87.529816,169.380615 90.420761,171.204605 92.147591,173.290863 
	C93.867500,174.713058 95.431328,175.846161 96.995148,176.979248 
z"/>
<path fill="#BA9A49" opacity="1.000000" stroke="none" 
	d="
M105.089394,69.730103 
	C101.909836,67.442795 101.201355,64.589958 101.797226,60.634453 
	C102.316643,57.186405 101.344070,53.513607 101.038177,49.528351 
	C101.613556,48.987988 102.181496,48.859386 103.386154,48.480850 
	C106.358437,48.183392 108.694008,48.135868 111.024750,48.315510 
	C111.019936,48.542679 111.016518,48.997108 110.666550,49.158169 
	C109.543831,50.774723 108.289673,52.170967 108.101677,53.698437 
	C107.744469,56.600689 108.165932,59.590191 107.954567,62.521141 
	C107.684135,66.271233 109.212975,68.084435 112.992088,68.243378 
	C113.069954,68.818642 113.077904,69.147987 112.776917,69.577194 
	C112.358482,69.762253 112.196800,69.848709 111.631989,69.915222 
	C110.153824,69.934441 109.078781,69.973610 107.646835,69.924988 
	C106.556412,69.801498 105.822906,69.765800 105.089394,69.730103 
z"/>
<path fill="#816434" opacity="1.000000" stroke="none" 
	d="
M70.006050,97.043701 
	C68.874329,95.765366 67.731956,94.496277 66.613548,93.206398 
	C65.168587,91.539909 63.131454,88.203491 62.415043,88.468376 
	C59.387894,89.587692 56.696953,91.693687 54.006588,93.612114 
	C52.754471,94.504959 51.784199,95.793060 50.330654,96.938774 
	C51.965721,91.776413 53.956299,86.577271 56.514404,81.091743 
	C59.897594,80.873535 63.067223,79.668701 65.121803,83.352341 
	C67.246590,88.124702 69.225121,92.544861 70.904320,96.985748 
	C70.405342,97.018867 70.205696,97.031281 70.006050,97.043701 
z"/>
<path fill="#F6E7BB" opacity="1.000000" stroke="none" 
	d="
M111.029572,48.088341 
	C108.694008,48.135868 106.358437,48.183392 103.590378,48.271431 
	C104.268753,43.975662 107.649094,42.540344 111.380127,43.267586 
	C119.502403,44.850758 127.559616,46.855698 135.530960,49.089520 
	C139.735352,50.267727 143.777649,52.134705 147.728317,54.033585 
	C148.770950,54.534729 149.201538,56.309284 149.557892,57.799088 
	C147.806931,57.371300 146.411240,56.643513 144.780487,55.648666 
	C139.383179,53.536804 134.220917,51.692005 128.757034,49.593117 
	C122.646797,48.922131 116.838188,48.505238 111.029572,48.088341 
z"/>
<path fill="#745832" opacity="1.000000" stroke="none" 
	d="
M49.863007,128.294739 
	C50.841827,128.901718 51.656261,129.786819 52.774841,131.096619 
	C53.106762,131.922607 53.134541,132.323883 53.142815,133.092041 
	C54.403370,134.650787 55.683426,135.842636 56.980728,137.393265 
	C59.665623,140.506241 62.333267,143.260437 64.850845,146.349899 
	C64.808258,150.116516 64.915749,153.547897 64.916580,157.070618 
	C64.809914,157.161972 64.595184,157.343033 64.595184,157.343033 
	C56.953445,149.138672 51.451511,139.826355 49.863007,128.294739 
z"/>
<path fill="#92702D" opacity="1.000000" stroke="none" 
	d="
M145.015533,55.915730 
	C146.411240,56.643513 147.806931,57.371300 149.529297,58.189316 
	C149.855942,58.279549 149.931793,58.655811 150.029251,59.174114 
	C150.849838,60.027481 151.572952,60.362545 152.296082,60.697609 
	C152.296082,60.697605 152.224487,60.625401 152.232941,60.801434 
	C152.496765,60.980503 152.752151,60.983540 153.007523,60.986576 
	C153.354553,61.002037 153.638809,61.143585 153.939774,62.051025 
	C155.359131,67.962898 153.300598,72.517578 150.730408,77.036621 
	C150.291031,77.071892 150.115646,77.090538 149.636353,76.942032 
	C148.010574,76.383621 146.688690,75.992363 145.115204,75.365005 
	C143.582077,74.671906 142.300552,74.214912 141.079330,73.476318 
	C148.050507,70.697815 149.267120,67.358772 145.963654,60.673256 
	C145.271805,59.273102 145.312439,57.511028 145.015533,55.915730 
z"/>
<path fill="#88652C" opacity="1.000000" stroke="none" 
	d="
M150.994431,77.019974 
	C153.300598,72.517578 155.359131,67.962898 154.030853,62.277336 
	C156.097794,63.507259 158.153152,65.150688 160.489944,66.947632 
	C160.803085,67.265862 160.834824,67.430580 160.930054,68.257233 
	C161.269379,73.710388 161.545227,78.501625 161.492950,83.203049 
	C159.421677,82.101891 157.678513,81.090546 155.651321,79.914978 
	C153.909668,78.840485 152.452057,77.930229 150.994431,77.019974 
z"/>
<path fill="#EFE7D3" opacity="1.000000" stroke="none" 
	d="
M71.999435,59.000813 
	C72.522636,60.530491 73.045837,62.060169 74.028687,64.100128 
	C74.991356,66.230568 75.858284,67.837372 75.918274,69.473770 
	C76.028076,72.469063 76.946335,74.542404 79.995972,75.442825 
	C77.585602,76.544983 75.296555,77.311462 72.960831,77.705635 
	C71.514030,74.670433 70.113899,72.007545 68.691208,69.011246 
	C69.387749,66.945610 70.106827,65.213387 70.965240,63.108513 
	C71.403343,61.490276 71.702133,60.244682 72.000458,58.999542 
	C72.000000,59.000000 71.999435,59.000813 71.999435,59.000813 
z"/>
<path fill="#F4E7BE" opacity="1.000000" stroke="none" 
	d="
M47.453911,104.994553 
	C47.915600,105.735924 47.984550,106.488747 48.019730,108.047997 
	C47.994644,110.903931 48.003334,112.953438 48.012020,115.002945 
	C47.991714,116.723335 47.971409,118.443733 47.890587,120.590591 
	C43.175995,119.498894 43.655540,114.987915 43.418137,111.727005 
	C43.275040,109.761436 42.182095,105.163841 47.453911,104.994553 
z"/>
<path fill="#E8DDC2" opacity="1.000000" stroke="none" 
	d="
M80.117294,75.107140 
	C76.946335,74.542404 76.028076,72.469063 75.918274,69.473770 
	C75.858284,67.837372 74.991356,66.230568 74.262711,64.313805 
	C75.165810,63.094357 76.294540,62.171516 77.717522,61.121277 
	C79.917542,62.201756 81.045799,63.128071 79.943039,66.072388 
	C79.093452,68.340759 80.474037,71.444405 80.725861,74.595154 
	C80.588737,75.013657 80.117294,75.107140 80.117294,75.107140 
z"/>
<path fill="#77592E" opacity="1.000000" stroke="none" 
	d="
M64.975548,83.000153 
	C63.067223,79.668701 59.897594,80.873535 56.735977,80.856003 
	C58.029942,78.310013 59.669857,75.713379 61.799950,73.226418 
	C63.300285,74.252670 64.310440,75.169250 65.309753,76.517670 
	C65.191124,78.966385 65.083336,80.983269 64.975548,83.000153 
z"/>
<path fill="#796446" opacity="1.000000" stroke="none" 
	d="
M65.320595,76.085831 
	C64.310440,75.169250 63.300285,74.252670 62.095978,73.051773 
	C63.537792,70.768471 65.173759,68.769485 67.254227,66.363708 
	C68.562271,65.203537 69.425812,64.450150 70.435272,63.672165 
	C70.581184,63.647568 70.825912,63.481159 70.825912,63.481159 
	C70.106827,65.213387 69.387749,66.945610 68.388977,69.198212 
	C67.179726,71.841003 66.250160,73.963417 65.320595,76.085831 
z"/>
<path fill="#EFE7D3" opacity="1.000000" stroke="none" 
	d="
M70.289352,63.696762 
	C69.425812,64.450150 68.562271,65.203537 67.401062,66.074142 
	C63.981171,60.199879 64.878334,57.521500 70.115700,57.369026 
	C70.624382,57.354221 71.153549,58.043694 71.836319,58.703529 
	C71.999435,59.000813 72.000000,59.000000 71.652512,59.044876 
	C68.227135,60.021496 69.562126,61.926125 70.289352,63.696762 
z"/>
<path fill="#745832" opacity="1.000000" stroke="none" 
	d="
M73.431198,165.547470 
	C71.938156,164.369522 70.445114,163.191574 68.873207,161.625870 
	C68.794342,161.238113 69.008705,160.991196 69.324829,161.023254 
	C70.424957,161.367752 71.208961,161.680191 72.129150,162.263214 
	C72.843231,163.356277 73.421120,164.178787 73.852852,165.133453 
	C73.706696,165.265640 73.431206,165.547470 73.431198,165.547470 
z"/>
<path fill="#745832" opacity="1.000000" stroke="none" 
	d="
M78.983803,168.009125 
	C78.974098,168.217606 78.964394,168.426071 78.931572,168.946655 
	C77.226517,168.184280 75.544579,167.109787 73.646927,165.791382 
	C73.431206,165.547470 73.706696,165.265640 74.181496,165.178223 
	C76.098801,166.063583 77.541306,167.036362 78.983803,168.009125 
z"/>
<path fill="#745832" opacity="1.000000" stroke="none" 
	d="
M68.686890,161.361359 
	C67.345406,160.297424 66.111359,159.110245 64.736252,157.633057 
	C64.595184,157.343033 64.809914,157.161972 65.254517,157.119568 
	C66.802307,158.381836 67.905510,159.686508 69.008705,160.991196 
	C69.008705,160.991196 68.794342,161.238113 68.686890,161.361359 
z"/>
<path fill="#88652C" opacity="1.000000" stroke="none" 
	d="
M152.166138,60.432472 
	C151.572952,60.362545 150.849838,60.027481 150.057388,59.363956 
	C150.670776,59.412777 151.353485,59.790058 152.166138,60.432472 
z"/>
<path fill="#DDCBA2" opacity="1.000000" stroke="none" 
	d="
M77.940231,59.081169 
	C78.131905,58.715950 78.323578,58.350731 78.749344,57.984283 
	C78.983429,57.983055 78.998535,57.998497 78.997749,58.248093 
	C78.996651,58.666466 78.996346,58.835243 78.996040,59.004025 
	C78.996040,59.004025 79.000023,58.999847 78.735123,59.004223 
	C78.293556,59.032787 78.116890,59.056980 77.940231,59.081169 
z"/>
<path fill="#E8DDC2" opacity="1.000000" stroke="none" 
	d="
M77.965691,59.319786 
	C78.116890,59.056980 78.293556,59.032787 78.737640,59.002380 
	C78.927429,59.331211 78.750160,59.600708 78.256393,59.920273 
	C78.039528,60.035892 77.991150,59.558403 77.965691,59.319786 
z"/>
<path fill="#88652C" opacity="1.000000" stroke="none" 
	d="
M152.874237,60.817593 
	C152.752151,60.983540 152.496765,60.980503 152.278625,60.779140 
	C152.315872,60.580814 152.740952,60.648609 152.874237,60.817593 
z"/>
<path fill="#A88225" opacity="1.000000" stroke="none" 
	d="
M91.998474,158.000534 
	C92.859627,157.508179 93.720772,157.015823 95.124664,156.260483 
	C96.125443,155.969574 96.583481,155.941635 97.032898,156.003876 
	C97.024284,156.094055 96.932426,156.250107 97.068230,156.590454 
	C99.770416,157.054886 102.336800,157.178986 105.312347,157.262787 
	C106.817238,157.188049 107.912979,157.153641 109.364914,157.209473 
	C110.446846,157.245804 111.172592,157.191910 112.166924,157.237900 
	C112.616539,157.398865 112.797554,157.459930 113.031082,157.768097 
	C113.057915,159.007980 113.032242,160.000778 113.004608,161.462036 
	C113.002289,165.828125 112.687630,169.762405 113.136215,173.607651 
	C113.355461,175.486938 114.995575,177.200470 115.992577,178.989029 
	C109.858505,178.484192 103.724434,177.979340 97.292755,177.226868 
	C95.431328,175.846161 93.867500,174.713058 92.398819,173.262054 
	C92.526138,172.157639 92.243347,170.933945 92.637535,170.649963 
	C99.022369,166.050186 92.103180,162.199615 91.998474,158.000534 
z"/>
<path fill="#9D792A" opacity="1.000000" stroke="none" 
	d="
M176.999329,98.907372 
	C177.593552,100.405342 178.187759,101.903313 178.543991,104.062912 
	C177.871490,107.484146 177.436966,110.243767 176.636826,113.048454 
	C169.957260,116.010048 163.534897,118.722565 157.402374,121.980629 
	C155.786179,122.839279 155.065582,125.383659 153.625824,127.003189 
	C148.563965,123.899979 143.810013,120.947525 139.304596,117.878235 
	C140.035339,117.500816 140.517563,117.240242 141.400970,116.988693 
	C142.618317,117.091011 143.631424,116.905922 144.219254,117.321861 
	C148.715363,120.503197 152.088608,118.909645 155.399826,115.255592 
	C156.473785,114.070442 158.475052,113.718674 160.061295,113.006065 
	C164.491531,111.015839 169.078430,109.298538 173.258652,106.877960 
	C174.378632,106.229408 174.638123,103.441078 174.602386,101.648827 
	C174.571533,100.101372 173.560211,98.573471 173.248947,97.022522 
	C173.693497,97.004028 173.871445,96.999939 174.352448,97.126205 
	C175.493408,97.478310 176.331314,97.700058 177.169220,97.921806 
	C177.169220,97.921806 177.093613,97.965561 177.084106,98.182205 
	C177.049515,98.568352 177.024429,98.737862 176.999329,98.907372 
z"/>
<path fill="#78582B" opacity="1.000000" stroke="none" 
	d="
M177.163910,97.526031 
	C176.331314,97.700058 175.493408,97.478310 174.290100,96.813278 
	C173.280807,95.584259 172.636932,94.798515 171.996536,94.006241 
	C172.000000,93.999710 171.987274,94.007820 171.850525,93.707108 
	C170.121490,91.638084 168.529190,89.869781 166.678955,87.908073 
	C165.069382,86.771950 163.717758,85.829231 162.283920,84.617126 
	C162.074829,83.996109 161.947937,83.644485 161.821060,83.292862 
	C161.545227,78.501625 161.269379,73.710388 160.982971,68.503227 
	C169.159882,76.212196 174.525711,85.909668 177.163910,97.526031 
z"/>
<path fill="#DECDA6" opacity="1.000000" stroke="none" 
	d="
M152.998322,165.998459 
	C149.181046,168.548447 145.363770,171.098419 141.236282,173.367859 
	C138.703949,167.218170 142.457031,160.058609 137.249695,154.638718 
	C140.322876,153.529495 143.142334,152.670471 146.297379,151.820435 
	C147.074188,151.767227 147.515411,151.705063 148.006226,152.060181 
	C148.057602,154.856979 148.464630,157.322449 147.981628,159.599121 
	C146.763275,165.341721 147.000565,165.822021 153.000504,166.000610 
	C153.000000,166.000000 152.998322,165.998459 152.998322,165.998459 
z"/>
<path fill="#8F6B2C" opacity="1.000000" stroke="none" 
	d="
M177.002441,113.003387 
	C177.436966,110.243767 177.871490,107.484146 178.521362,104.410957 
	C178.827194,109.429802 178.917664,114.762215 178.590958,120.634399 
	C178.137390,122.459267 178.100998,123.744377 178.064606,125.029488 
	C177.953369,126.202217 177.842148,127.374939 177.080643,128.794678 
	C174.470352,129.659576 172.321716,129.951843 170.586166,130.957230 
	C165.650436,133.816437 161.696609,133.620163 159.253418,129.774384 
	C161.654312,127.990005 163.798538,126.430771 165.947266,124.877777 
	C170.415558,121.648338 178.632935,121.910706 177.002441,113.003387 
z"/>
<path fill="#876633" opacity="1.000000" stroke="none" 
	d="
M158.998779,130.002380 
	C161.696609,133.620163 165.650436,133.816437 170.586166,130.957230 
	C172.321716,129.951843 174.470352,129.659576 176.855515,129.067520 
	C176.330429,132.231308 175.380188,135.369263 173.825974,138.579651 
	C169.330658,139.806244 165.439285,140.960388 161.384720,141.807892 
	C158.844482,137.005188 156.467453,132.509155 154.422607,128.046112 
	C156.169464,128.720200 157.584122,129.361282 158.998779,130.002380 
z"/>
<path fill="#D2BB85" opacity="1.000000" stroke="none" 
	d="
M136.995972,154.888931 
	C142.457031,160.058609 138.703949,167.218170 140.912537,173.491562 
	C138.541901,174.617294 136.184830,175.338791 133.426605,175.661163 
	C133.333130,169.510025 133.640823,163.758011 133.862259,157.766296 
	C133.521530,157.086487 133.267059,156.646362 133.317627,156.018906 
	C134.747101,155.517349 135.871536,155.203140 136.995972,154.888931 
z"/>
<path fill="#B4933F" opacity="1.000000" stroke="none" 
	d="
M113.006569,160.993576 
	C113.032242,160.000778 113.057915,159.007980 113.463600,157.684052 
	C116.186806,157.339966 118.529991,157.327026 120.898376,157.593628 
	C120.968979,158.244751 121.014389,158.616318 120.772568,159.037354 
	C120.648743,165.678284 120.812149,172.269760 120.975555,178.861252 
	C119.916412,178.941269 118.857277,179.021286 117.400238,178.586670 
	C117.000183,173.796432 116.935249,169.519592 117.018028,165.245636 
	C117.072800,162.417252 116.015411,160.835312 113.006569,160.993576 
z"/>
<path fill="#7F5F32" opacity="1.000000" stroke="none" 
	d="
M161.547928,142.114548 
	C165.439285,140.960388 169.330658,139.806244 173.531921,138.790985 
	C172.509430,141.843613 171.177032,144.757355 169.224976,147.886581 
	C166.371460,148.727249 164.137589,149.352432 161.845093,149.602783 
	C161.873795,148.477173 161.961151,147.726395 162.257812,146.828461 
	C162.319107,146.129486 162.171097,145.577667 161.921677,144.669983 
	C161.729477,143.580933 161.638702,142.847733 161.547928,142.114548 
z"/>
<path fill="#C4A55D" opacity="1.000000" stroke="none" 
	d="
M131.391037,176.211517 
	C129.521317,176.830765 127.651604,177.450012 125.394157,177.587143 
	C125.006752,171.056549 125.007072,165.008087 125.255890,158.711243 
	C126.668068,158.314224 127.831749,158.165573 128.997894,158.483398 
	C129.000305,163.064789 128.772964,167.198425 129.109222,171.285690 
	C129.248520,172.978760 130.594070,174.572571 131.391037,176.211517 
z"/>
<path fill="#BD9D4D" opacity="1.000000" stroke="none" 
	d="
M125.007393,158.959610 
	C125.007072,165.008087 125.006752,171.056549 125.012817,177.578094 
	C123.909767,178.348694 122.800323,178.646210 121.333221,178.902481 
	C120.812149,172.269760 120.648743,165.678284 121.165398,159.030563 
	C122.899437,158.969421 123.953415,158.964523 125.007393,158.959610 
z"/>
<path fill="#CBAE6C" opacity="1.000000" stroke="none" 
	d="
M131.667770,176.200150 
	C130.594070,174.572571 129.248520,172.978760 129.109222,171.285690 
	C128.772964,167.198425 129.000305,163.064789 129.411926,158.478088 
	C131.198471,158.006226 132.573502,158.006119 133.948517,158.006012 
	C133.640823,163.758011 133.333130,169.510025 133.041992,175.672119 
	C132.687195,176.117752 132.315857,176.153259 131.667770,176.200150 
z"/>
<path fill="#B08D31" opacity="1.000000" stroke="none" 
	d="
M113.004608,161.462036 
	C116.015411,160.835312 117.072800,162.417252 117.018028,165.245636 
	C116.935249,169.519592 117.000183,173.796432 117.003548,178.540527 
	C116.835503,179.034256 116.666267,179.059494 116.244804,179.036880 
	C114.995575,177.200470 113.355461,175.486938 113.136215,173.607651 
	C112.687630,169.762405 113.002289,165.828125 113.004608,161.462036 
z"/>
<path fill="#6E562F" opacity="1.000000" stroke="none" 
	d="
M161.903732,149.977631 
	C164.137589,149.352432 166.371460,148.727249 168.974213,148.102448 
	C165.125076,153.072037 160.907074,158.041245 156.553864,163.119995 
	C156.418671,163.229507 156.224823,163.069443 156.348267,162.810974 
	C156.564896,162.005768 156.658081,161.459030 156.925903,160.598389 
	C158.701614,156.848877 160.302673,153.413254 161.903732,149.977631 
z"/>
<path fill="#876633" opacity="1.000000" stroke="none" 
	d="
M178.248016,124.735550 
	C178.100998,123.744377 178.137390,122.459267 178.494339,121.094200 
	C178.687057,122.156700 178.559235,123.299164 178.248016,124.735550 
z"/>
<path fill="#DECDA6" opacity="1.000000" stroke="none" 
	d="
M156.224823,163.069443 
	C156.224823,163.069443 156.418671,163.229507 156.372498,163.345169 
	C155.458984,164.271576 154.591644,165.082321 153.361313,165.945755 
	C152.998322,165.998459 153.000000,166.000000 153.046509,165.653397 
	C154.136963,164.561005 155.180893,163.815231 156.224823,163.069443 
z"/>
<path fill="#78582B" opacity="1.000000" stroke="none" 
	d="
M177.131653,98.803116 
	C177.024429,98.737862 177.049515,98.568352 177.068192,98.141525 
	C177.180923,98.055923 177.323196,98.217354 177.406509,98.404976 
	C177.435028,98.469162 177.315720,98.599007 177.131653,98.803116 
z"/>
<path fill="#FEFEFC" opacity="1.000000" stroke="none" 
	d="
M79.995972,75.442825 
	C80.117294,75.107140 80.588737,75.013657 80.821182,74.950348 
	C84.523056,74.060524 87.992470,73.234016 91.736359,72.147308 
	C94.076271,71.587471 96.141716,71.287857 98.878960,71.221077 
	C102.368416,70.973534 105.186081,70.493156 108.003738,70.012779 
	C109.078781,69.973610 110.153824,69.934441 111.705109,70.319183 
	C112.534149,73.514709 112.886955,76.286324 113.181625,79.414078 
	C113.183601,80.487968 113.243713,81.205719 113.216904,82.325500 
	C113.211021,83.539452 113.292068,84.351364 113.324615,85.499344 
	C113.464600,86.894478 113.653084,87.953537 113.801971,89.420792 
	C113.772942,91.194496 113.783524,92.560013 113.627937,94.248428 
	C113.407379,96.301918 113.352982,98.032509 113.183472,100.134186 
	C113.194542,101.932831 113.320709,103.360390 113.502045,105.238953 
	C113.425995,108.062294 113.294785,110.434616 113.115967,112.824478 
	C113.068359,112.842010 113.039841,112.942947 112.976181,112.879913 
	C112.912529,112.816887 113.026054,112.678284 112.872055,112.584961 
	C112.472588,112.699188 112.227112,112.906746 111.612160,113.186905 
	C110.499367,113.170967 109.756042,113.082420 108.778572,112.746811 
	C107.043381,112.564972 105.542328,112.630196 103.758804,112.737671 
	C102.946289,112.607544 102.416267,112.435173 101.872711,111.872635 
	C99.906395,110.661949 97.953590,109.841431 95.661301,108.866898 
	C92.212624,107.809258 89.103439,106.905632 85.901527,105.847290 
	C85.527298,105.785728 85.245789,105.878883 84.640450,106.005760 
	C84.104515,106.085625 83.892418,106.131760 83.680321,106.177887 
	C83.680321,106.177887 83.295761,106.135773 83.163940,105.638237 
	C83.292137,103.725372 83.552147,102.310043 83.820808,100.847687 
	C77.589241,100.816338 74.261169,98.194153 71.018608,91.061462 
	C68.930840,86.469009 66.596115,81.874130 72.901062,78.551521 
	C72.993942,78.502579 72.974518,78.240532 73.007500,78.077942 
	C75.296555,77.311462 77.585602,76.544983 79.995972,75.442825 
z"/>
<path fill="#AA8427" opacity="1.000000" stroke="none" 
	d="
M53.162315,132.725174 
	C53.134541,132.323883 53.106762,131.922607 53.056774,131.218964 
	C53.178825,129.125687 53.323086,127.334785 54.139687,125.272064 
	C56.861938,124.506531 59.033016,124.292130 60.938572,123.465591 
	C66.199173,121.183792 71.501640,118.915939 76.478394,116.096817 
	C78.999557,114.668671 80.853401,112.062469 83.008942,109.988876 
	C84.457985,110.291916 85.907013,110.594948 88.144867,110.933578 
	C90.343941,110.912819 91.754189,110.856461 93.110199,110.836868 
	C93.055962,110.873650 93.110611,110.754524 93.290779,111.062157 
	C95.983757,112.246628 98.496567,113.123466 100.920105,114.361893 
	C100.176666,115.153244 99.575302,115.725136 98.860184,115.990822 
	C91.516731,118.719078 84.078415,121.208832 76.820473,124.145485 
	C70.113495,126.859230 63.594296,130.037079 56.656975,133.009155 
	C55.874092,133.004791 55.426632,133.001770 54.672523,132.978500 
	C53.964687,132.880554 53.563499,132.802856 53.162315,132.725174 
z"/>
<path fill="#A57E20" opacity="1.000000" stroke="none" 
	d="
M82.820053,109.672409 
	C80.853401,112.062469 78.999557,114.668671 76.478394,116.096817 
	C71.501640,118.915939 66.199173,121.183792 60.938572,123.465591 
	C59.033016,124.292130 56.861938,124.506531 54.406334,124.999664 
	C51.718861,119.370499 51.850727,119.515503 57.664185,117.162292 
	C63.354786,114.858833 68.714996,111.715607 74.455200,109.569420 
	C76.869614,108.666702 79.887566,109.378242 82.820053,109.672409 
z"/>
<path fill="#957029" opacity="1.000000" stroke="none" 
	d="
M48.350716,114.937294 
	C48.003334,112.953438 47.994644,110.903931 48.075539,108.423187 
	C54.085278,102.988152 60.266060,98.604568 68.591774,99.021866 
	C68.955597,99.040108 69.368713,98.074928 69.882462,97.305771 
	C70.205696,97.031281 70.405342,97.018867 71.125671,97.074806 
	C71.910812,97.360306 72.046478,97.639954 71.793953,98.107971 
	C71.523323,98.830368 71.297813,99.539612 71.541153,100.002251 
	C72.263718,101.376007 73.170906,102.652672 74.005920,103.967285 
	C67.104263,103.938469 61.809994,108.353470 55.762024,110.666908 
	C53.237709,111.632484 51.037167,113.444489 48.350716,114.937294 
z"/>
<path fill="#F8F4E4" opacity="1.000000" stroke="none" 
	d="
M72.053360,97.982101 
	C72.046478,97.639954 71.910812,97.360306 71.425003,97.054092 
	C69.225121,92.544861 67.246590,88.124702 65.121803,83.352341 
	C65.083336,80.983269 65.191124,78.966385 65.309753,76.517670 
	C66.250160,73.963417 67.179726,71.841003 68.411530,69.531616 
	C70.113899,72.007545 71.514030,74.670433 72.960831,77.705635 
	C72.974518,78.240532 72.993942,78.502579 72.901062,78.551521 
	C66.596115,81.874130 68.930840,86.469009 71.018608,91.061462 
	C74.261169,98.194153 77.589241,100.816338 83.820808,100.847687 
	C83.552147,102.310043 83.292137,103.725372 83.020447,105.508530 
	C81.877220,105.294449 80.745682,104.712540 79.127090,103.783783 
	C76.444489,101.618652 74.248924,99.800377 72.053360,97.982101 
z"/>
<path fill="#F9F4DF" opacity="1.000000" stroke="none" 
	d="
M85.994255,106.001999 
	C89.103439,106.905632 92.212624,107.809258 95.782379,109.138916 
	C96.484169,110.108994 96.725380,110.653038 96.579407,111.166656 
	C95.165009,111.009003 94.137810,110.881760 93.110611,110.754524 
	C93.110611,110.754524 93.055962,110.873650 92.890526,110.588577 
	C91.468033,109.909958 90.210976,109.516411 88.953918,109.122864 
	C87.341591,108.315094 85.729256,107.507324 83.898621,106.438721 
	C83.892418,106.131760 84.104515,106.085625 84.898041,106.016159 
	C85.651062,105.995888 85.822662,105.998940 85.994255,106.001999 
z"/>
<path fill="#816434" opacity="1.000000" stroke="none" 
	d="
M71.793953,98.107971 
	C74.248924,99.800377 76.444489,101.618652 78.811050,103.717102 
	C77.599792,103.991333 76.217529,103.985397 74.420593,103.973373 
	C73.170906,102.652672 72.263718,101.376007 71.541153,100.002251 
	C71.297813,99.539612 71.523323,98.830368 71.793953,98.107971 
z"/>
<path fill="#A69147" opacity="1.000000" stroke="none" 
	d="
M88.852203,109.356628 
	C90.210976,109.516411 91.468033,109.909958 92.944763,110.551796 
	C91.754189,110.856461 90.343941,110.912819 88.515984,110.963875 
	C88.315689,110.502510 88.533089,110.046455 88.852203,109.356628 
z"/>
<path fill="#E7DABB" opacity="1.000000" stroke="none" 
	d="
M107.646835,69.924988 
	C105.186081,70.493156 102.368416,70.973534 99.274117,71.201599 
	C100.762741,70.604561 102.528008,70.259842 104.691330,69.822609 
	C105.822906,69.765800 106.556412,69.801498 107.646835,69.924988 
z"/>
<path fill="#E8DDC2" opacity="1.000000" stroke="none" 
	d="
M79.238037,58.992397 
	C78.996346,58.835243 78.996651,58.666466 78.994186,58.244438 
	C79.403511,58.159824 79.815605,58.328453 80.227699,58.497086 
	C79.978477,58.658310 79.729263,58.819538 79.238037,58.992397 
z"/>
<path fill="#DCC99A" opacity="1.000000" stroke="none" 
	d="
M97.041512,155.913681 
	C96.583481,155.941635 96.125443,155.969574 95.324127,156.029480 
	C91.886642,155.119705 88.792435,154.177963 85.444412,152.732941 
	C85.684761,151.841415 86.122902,151.318863 86.681778,151.085739 
	C92.106888,148.822617 97.524094,146.535599 103.002403,144.406799 
	C106.280853,143.132828 109.663956,142.128159 113.050339,141.400391 
	C113.101334,142.868454 113.102013,143.938568 112.814606,145.203903 
	C108.597870,147.264664 104.577423,148.965454 100.786171,151.077606 
	C99.288582,151.911942 98.301384,153.662415 97.061859,155.224792 
	C97.041939,155.453842 97.041512,155.913681 97.041512,155.913681 
z"/>
<path fill="#916E2A" opacity="1.000000" stroke="none" 
	d="
M79.135696,167.676025 
	C77.541306,167.036362 76.098801,166.063583 74.327652,165.046051 
	C73.421120,164.178787 72.843231,163.356277 72.124077,161.881897 
	C71.986473,158.154099 71.990128,155.078217 72.243668,151.777496 
	C72.640106,150.468796 72.786674,149.384918 73.259674,148.262726 
	C74.424736,148.451813 75.263359,148.679199 76.375839,149.080017 
	C78.096336,150.201599 79.542984,151.149734 80.989624,152.097885 
	C80.422279,157.179565 79.854942,162.261246 79.135696,167.676025 
z"/>
<path fill="#D3BB83" opacity="1.000000" stroke="none" 
	d="
M81.336288,152.110565 
	C79.542984,151.149734 78.096336,150.201599 76.581009,148.840942 
	C77.340134,148.283936 78.167931,148.139420 79.449707,147.998352 
	C86.762131,148.509872 92.669518,146.721680 98.469925,142.624725 
	C102.584343,139.718613 108.105461,138.804077 113.045113,137.399078 
	C113.061035,138.865860 113.030533,139.934158 113.000023,141.002441 
	C109.663956,142.128159 106.280853,143.132828 103.002403,144.406799 
	C97.524094,146.535599 92.106888,148.822617 86.681778,151.085739 
	C86.122902,151.318863 85.684761,151.841415 85.112610,152.568100 
	C83.917397,152.645447 82.800171,152.384354 81.336288,152.110565 
z"/>
<path fill="#A07C25" opacity="1.000000" stroke="none" 
	d="
M91.673538,158.148117 
	C92.103180,162.199615 99.022369,166.050186 92.637535,170.649963 
	C92.243347,170.933945 92.526138,172.157639 92.242729,172.972931 
	C90.420761,171.204605 87.529816,169.380615 87.565689,167.616119 
	C87.631790,164.365326 85.207527,159.310272 91.673538,158.148117 
z"/>
<path fill="#AA8325" opacity="1.000000" stroke="none" 
	d="
M111.024750,48.315514 
	C116.838188,48.505238 122.646797,48.922131 128.766266,49.926476 
	C129.387955,51.340141 129.698792,52.166359 129.789948,53.242790 
	C128.880508,54.223404 127.556587,54.998955 127.604843,55.676811 
	C127.898163,59.796913 128.503998,63.894768 128.614639,68.002426 
	C125.815773,68.553955 123.407753,69.103119 120.667374,69.718948 
	C119.888329,69.853279 119.441643,69.920952 118.574539,69.907127 
	C116.447296,69.709953 114.740479,69.594269 113.033661,69.478592 
	C113.077904,69.147987 113.069954,68.818642 113.002686,67.775604 
	C112.997314,62.321320 113.139565,57.575150 112.909821,52.847046 
	C112.846123,51.536167 111.677956,50.278950 111.016518,48.997108 
	C111.016518,48.997108 111.019936,48.542679 111.024750,48.315514 
z"/>
<path fill="#B48F33" opacity="1.000000" stroke="none" 
	d="
M110.666550,49.158169 
	C111.677956,50.278950 112.846123,51.536167 112.909821,52.847046 
	C113.139565,57.575150 112.997314,62.321320 112.984955,67.528442 
	C109.212975,68.084435 107.684135,66.271233 107.954567,62.521141 
	C108.165932,59.590191 107.744469,56.600689 108.101677,53.698437 
	C108.289673,52.170967 109.543831,50.774723 110.666550,49.158169 
z"/>
<path fill="#E7DABB" opacity="1.000000" stroke="none" 
	d="
M112.776917,69.577194 
	C114.740479,69.594269 116.447296,69.709953 118.777084,70.176575 
	C121.592506,72.020218 123.784958,73.512917 125.869614,75.260864 
	C125.506546,76.007988 125.251282,76.499870 124.776047,77.236176 
	C123.706718,77.642960 122.857361,77.805313 121.771637,77.737640 
	C118.770103,78.024399 116.004929,78.541168 113.239761,79.057938 
	C112.886955,76.286324 112.534149,73.514709 112.108231,70.339127 
	C112.196800,69.848709 112.358482,69.762253 112.776917,69.577194 
z"/>
<path fill="#9C782A" opacity="1.000000" stroke="none" 
	d="
M130.009644,52.992577 
	C129.698792,52.166359 129.387955,51.340141 129.067886,50.180565 
	C134.220917,51.692005 139.383179,53.536804 144.780487,55.648666 
	C145.312439,57.511028 145.271805,59.273102 145.963654,60.673256 
	C149.267120,67.358772 148.050507,70.697815 140.768112,73.561653 
	C139.967087,73.933243 139.537552,73.937904 138.913208,73.646034 
	C137.140686,72.912476 135.563004,72.475464 133.670959,71.878021 
	C132.212646,71.525040 131.068665,71.332489 129.525085,71.071503 
	C126.416908,70.552818 123.708321,70.102554 120.999741,69.652283 
	C123.407753,69.103119 125.815773,68.553955 128.988617,68.053223 
	C134.458771,69.320122 137.387421,67.328499 137.992065,62.649662 
	C138.563431,58.228287 137.443863,54.778973 132.740570,53.015923 
	C132.497833,53.012211 132.012299,53.013641 131.678452,53.009705 
	C130.899612,53.001373 130.454636,52.996975 130.009644,52.992577 
z"/>
<path fill="#86632F" opacity="1.000000" stroke="none" 
	d="
M71.993790,152.002319 
	C71.990128,155.078217 71.986473,158.154099 71.987885,161.611328 
	C71.208961,161.680191 70.424957,161.367752 69.324829,161.023254 
	C67.905510,159.686508 66.802307,158.381836 65.361176,157.028198 
	C64.915749,153.547897 64.808258,150.116516 65.168625,146.514893 
	C67.174080,146.821976 68.711685,147.299316 70.221405,147.819977 
	C70.193520,147.863281 70.091255,147.875732 70.094734,148.217575 
	C70.730072,149.707047 71.361931,150.854691 71.993790,152.002319 
z"/>
<path fill="#7E5D23" opacity="1.000000" stroke="none" 
	d="
M70.249290,147.776657 
	C68.711685,147.299316 67.174080,146.821976 65.318695,146.179642 
	C62.333267,143.260437 59.665623,140.506241 57.020561,137.359314 
	C57.043140,136.966599 57.122665,136.900360 57.360626,137.032974 
	C58.080040,137.415085 58.561497,137.664597 59.271255,137.996994 
	C59.499561,138.079895 59.962658,138.226608 60.047829,138.410934 
	C60.297264,138.825256 60.515430,138.978516 60.955902,139.318237 
	C62.038342,140.401230 62.952374,141.221024 64.038498,142.332916 
	C66.277412,144.017105 68.344223,145.409210 70.381042,147.046906 
	C70.351051,147.292465 70.249290,147.776657 70.249290,147.776657 
z"/>
<path fill="#7E5D23" opacity="1.000000" stroke="none" 
	d="
M53.142815,133.092041 
	C53.563499,132.802856 53.964687,132.880554 54.806572,133.273529 
	C55.872402,134.692657 56.497536,135.796509 57.122665,136.900360 
	C57.122665,136.900360 57.043140,136.966599 57.003311,137.000549 
	C55.683426,135.842636 54.403370,134.650787 53.142815,133.092041 
z"/>
<path fill="#CFB87B" opacity="1.000000" stroke="none" 
	d="
M113.794098,93.925522 
	C113.783524,92.560013 113.772942,91.194496 114.185677,89.412964 
	C115.396645,88.784180 116.229179,88.671936 116.965172,88.343414 
	C126.440407,84.113945 135.901871,79.853615 145.366821,75.601105 
	C146.688690,75.992363 148.010574,76.383621 149.467133,77.237282 
	C138.329041,83.082878 127.060982,88.476112 115.769119,93.819023 
	C115.217484,94.080032 114.457214,93.900116 113.794098,93.925522 
z"/>
<path fill="#C8AE6A" opacity="1.000000" stroke="none" 
	d="
M113.627937,94.248428 
	C114.457214,93.900116 115.217484,94.080032 115.769119,93.819023 
	C127.060982,88.476112 138.329041,83.082878 149.771057,77.404427 
	C150.115646,77.090538 150.291031,77.071892 150.730408,77.036613 
	C152.452057,77.930229 153.909668,78.840485 155.396286,80.164154 
	C152.104416,81.944756 148.835129,83.457977 145.453217,84.652328 
	C134.397690,88.556679 122.664146,91.038971 113.883667,99.930946 
	C113.688622,99.874329 113.298584,99.763100 113.298584,99.763100 
	C113.352982,98.032509 113.407379,96.301918 113.627937,94.248428 
z"/>
<path fill="#D6C290" opacity="1.000000" stroke="none" 
	d="
M145.115204,75.365005 
	C135.901871,79.853615 126.440407,84.113945 116.965172,88.343414 
	C116.229179,88.671936 115.396645,88.784180 114.225281,89.004768 
	C113.653084,87.953537 113.464600,86.894478 113.622681,85.380035 
	C114.340919,83.954132 114.712585,82.983620 115.424240,81.850464 
	C117.505486,81.454025 119.246750,81.220253 121.399307,80.991386 
	C128.000641,79.685364 134.332214,78.721497 139.108032,73.942566 
	C139.537552,73.937904 139.967087,73.933243 140.707825,73.843246 
	C142.300552,74.214912 143.582077,74.671906 145.115204,75.365005 
z"/>
<path fill="#C3A65C" opacity="1.000000" stroke="none" 
	d="
M114.078705,99.987564 
	C122.664146,91.038971 134.397690,88.556679 145.453217,84.652328 
	C148.835129,83.457977 152.104416,81.944756 155.680313,80.328384 
	C157.678513,81.090546 159.421677,82.101891 161.492950,83.203049 
	C161.947937,83.644485 162.074829,83.996109 161.850342,84.649178 
	C156.709656,83.638275 152.721878,85.748802 148.655548,87.804115 
	C147.259705,88.509651 145.564545,88.623039 143.602325,89.004425 
	C136.985474,91.316048 130.709930,93.480804 124.598396,96.037643 
	C122.823021,96.780380 121.516937,98.644852 119.648132,100.041252 
	C117.823906,100.730080 116.347275,101.372780 114.625969,101.851898 
	C114.280434,101.121399 114.179573,100.554482 114.078705,99.987564 
z"/>
<path fill="#F9EED2" opacity="1.000000" stroke="none" 
	d="
M70.435272,63.672165 
	C69.562126,61.926125 68.227135,60.021496 71.652977,59.044418 
	C71.702133,60.244682 71.403343,61.490276 70.965240,63.108513 
	C70.825912,63.481159 70.581184,63.647568 70.435272,63.672165 
z"/>
<path fill="#E7DABB" opacity="1.000000" stroke="none" 
	d="
M97.081779,154.995728 
	C98.301384,153.662415 99.288582,151.911942 100.786171,151.077606 
	C104.577423,148.965454 108.597870,147.264664 113.038315,145.488388 
	C113.682472,147.048859 113.814835,148.520050 113.933105,150.389740 
	C113.903061,151.849716 113.887108,152.911209 113.627251,154.167679 
	C112.888344,155.287781 112.393341,156.212891 111.898331,157.138000 
	C111.172592,157.191910 110.446846,157.245804 109.296967,156.857605 
	C105.449745,151.729431 101.062187,155.053268 97.081779,154.995728 
z"/>
<path fill="#FCF9E5" opacity="1.000000" stroke="none" 
	d="
M112.166931,157.237885 
	C112.393341,156.212891 112.888344,155.287781 114.051132,154.229156 
	C122.233101,153.624252 129.985275,154.086487 137.153778,152.259094 
	C140.386627,151.434967 142.877625,150.260895 145.961807,151.811462 
	C143.142334,152.670471 140.322876,153.529495 137.249695,154.638718 
	C135.871536,155.203140 134.747101,155.517349 132.888550,155.956390 
	C128.394012,156.492188 124.633598,156.903137 120.873184,157.314087 
	C118.529991,157.327026 116.186806,157.339966 113.411095,157.436951 
	C112.797554,157.459930 112.616539,157.398865 112.166931,157.237885 
z"/>
<path fill="#EADCBB" opacity="1.000000" stroke="none" 
	d="
M97.061859,155.224792 
	C101.062187,155.053268 105.449745,151.729431 108.940765,156.767365 
	C107.912979,157.153641 106.817238,157.188049 104.912476,157.162674 
	C101.713104,156.818634 99.322769,156.534363 96.932426,156.250107 
	C96.932426,156.250107 97.024284,156.094055 97.032898,156.003876 
	C97.041512,155.913681 97.041939,155.453842 97.061859,155.224792 
z"/>
<path fill="#99772C" opacity="1.000000" stroke="none" 
	d="
M97.068230,156.590454 
	C99.322769,156.534363 101.713104,156.818634 104.503311,157.203003 
	C102.336800,157.178986 99.770416,157.054886 97.068230,156.590454 
z"/>
<path fill="#AC8627" opacity="1.000000" stroke="none" 
	d="
M140.999771,116.979668 
	C140.517563,117.240242 140.035339,117.500816 139.062195,117.582664 
	C135.382996,116.574417 132.194717,115.744896 128.934097,114.575073 
	C127.786880,112.508224 125.567581,110.688049 129.057327,109.197937 
	C132.314682,107.807068 135.577698,106.403191 138.921753,105.246513 
	C149.923157,101.441238 160.962509,97.745583 171.987274,94.007820 
	C171.987274,94.007820 172.000000,93.999710 171.997070,94.378952 
	C171.992493,95.504036 171.990829,96.249886 171.627350,97.007462 
	C170.939850,97.070145 170.524017,97.009102 170.301575,97.188240 
	C162.595230,103.394569 154.971207,109.522430 144.365845,110.273048 
	C141.045410,110.508064 139.538071,113.430595 140.999771,116.979668 
z"/>
<path fill="#A67F21" opacity="1.000000" stroke="none" 
	d="
M141.400970,116.988693 
	C139.538071,113.430595 141.045410,110.508064 144.365845,110.273048 
	C154.971207,109.522430 162.595230,103.394569 170.301575,97.188240 
	C170.524017,97.009102 170.939850,97.070145 171.875748,97.016838 
	C172.485977,97.014473 172.982346,97.036926 172.982346,97.036926 
	C173.560211,98.573471 174.571533,100.101372 174.602386,101.648827 
	C174.638123,103.441078 174.378632,106.229408 173.258652,106.877960 
	C169.078430,109.298538 164.491531,111.015839 160.061295,113.006065 
	C158.475052,113.718674 156.473785,114.070442 155.399826,115.255592 
	C152.088608,118.909645 148.715363,120.503197 144.219254,117.321861 
	C143.631424,116.905922 142.618317,117.091011 141.400970,116.988693 
z"/>
<path fill="#F9F4DF" opacity="1.000000" stroke="none" 
	d="
M129.006439,114.915367 
	C132.194717,115.744896 135.382996,116.574417 138.813660,117.699509 
	C143.810013,120.947525 148.563965,123.899979 153.637299,127.223038 
	C153.956696,127.593651 154.090408,128.013123 154.090408,128.013123 
	C156.467453,132.509155 158.844482,137.005188 161.384720,141.807892 
	C161.638702,142.847733 161.729477,143.580933 161.859314,144.993057 
	C161.948441,146.106537 161.998474,146.541077 162.048508,146.975616 
	C161.961151,147.726395 161.873795,148.477173 161.845093,149.602783 
	C160.302673,153.413254 158.701614,156.848877 156.668823,160.430634 
	C156.783646,155.995651 154.729492,152.366348 152.016266,148.607407 
	C153.087311,147.468155 154.247772,146.819687 155.160538,145.919937 
	C156.457016,144.641953 158.869812,142.527725 158.554840,141.899826 
	C156.333862,137.472122 154.049759,132.876617 150.793671,129.217560 
	C146.631210,124.539940 141.091263,121.360733 134.781937,120.263374 
	C128.902115,119.240723 122.936806,118.709511 116.947617,117.634796 
	C115.969315,116.890114 115.052544,116.472610 114.107178,115.665176 
	C114.068176,114.753075 114.057762,114.230911 114.380432,113.632263 
	C115.389801,113.639732 116.066086,113.723686 117.133545,113.890701 
	C118.053970,113.956314 118.583229,113.938858 119.497856,113.925354 
	C120.905571,113.906578 121.927902,113.883850 123.320946,113.972549 
	C125.463249,114.361107 127.234840,114.638237 129.006439,114.915367 
z"/>
<path fill="#97712A" opacity="1.000000" stroke="none" 
	d="
M154.422607,128.046112 
	C154.090408,128.013123 153.956696,127.593651 153.945206,127.373795 
	C155.065582,125.383659 155.786179,122.839279 157.402374,121.980629 
	C163.534897,118.722565 169.957260,116.010048 176.636841,113.048454 
	C178.632935,121.910706 170.415558,121.648338 165.947266,124.877777 
	C163.798538,126.430771 161.654312,127.990005 159.253418,129.774384 
	C157.584122,129.361282 156.169464,128.720200 154.422607,128.046112 
z"/>
<path fill="#B08D34" opacity="1.000000" stroke="none" 
	d="
M173.248947,97.022522 
	C172.982346,97.036926 172.485977,97.014473 172.237579,97.005096 
	C171.990829,96.249886 171.992493,95.504036 171.993622,94.385483 
	C172.636932,94.798515 173.280807,95.584259 173.987030,96.682922 
	C173.871445,96.999939 173.693497,97.004028 173.248947,97.022522 
z"/>
<path fill="#B08D34" opacity="1.000000" stroke="none" 
	d="
M128.934097,114.575073 
	C127.234840,114.638237 125.463249,114.361107 123.042984,113.733353 
	C121.173309,113.318565 119.952293,113.254395 118.542358,113.199036 
	C118.353439,113.207855 117.984123,113.126106 117.988098,112.728668 
	C118.036461,110.232109 117.577591,108.663589 121.143402,108.384811 
	C124.981514,108.084747 128.663651,105.616379 132.384033,104.024345 
	C137.902893,101.662727 143.516144,99.478462 148.864792,96.774727 
	C154.060898,94.148102 158.974121,90.961853 164.272919,88.132584 
	C165.335129,88.196373 166.136002,88.148933 166.936874,88.101486 
	C168.529190,89.869781 170.121490,91.638084 171.850525,93.707108 
	C160.962509,97.745583 149.923157,101.441238 138.921753,105.246513 
	C135.577698,106.403191 132.314682,107.807068 129.057327,109.197937 
	C125.567581,110.688049 127.786880,112.508224 128.934097,114.575073 
z"/>
<path fill="#BB9B4B" opacity="1.000000" stroke="none" 
	d="
M166.678955,87.908081 
	C166.136002,88.148933 165.335129,88.196373 163.826202,88.125519 
	C158.121506,87.380363 153.941116,89.189598 149.540573,91.506134 
	C141.112137,95.943039 132.340500,99.761642 123.554649,103.465294 
	C120.954086,104.561554 117.828903,104.413277 114.935684,104.483215 
	C114.908379,103.425911 114.889511,102.720695 114.870644,102.015480 
	C116.347275,101.372780 117.823906,100.730080 120.052490,100.043320 
	C121.945808,99.905540 123.215843,100.104927 124.207253,99.669670 
	C129.859665,97.188110 135.482224,94.629890 141.025055,91.914276 
	C142.209305,91.334084 143.022186,89.995926 144.006134,89.006943 
	C145.564545,88.623039 147.259705,88.509651 148.655548,87.804115 
	C152.721878,85.748802 156.709656,83.638275 161.932556,84.918579 
	C163.717758,85.829231 165.069382,86.771950 166.678955,87.908081 
z"/>
<path fill="#FEFEFD" opacity="1.000000" stroke="none" 
	d="
M117.009132,117.961967 
	C122.936806,118.709511 128.902115,119.240723 134.781937,120.263374 
	C141.091263,121.360733 146.631210,124.539940 150.793671,129.217560 
	C154.049759,132.876617 156.333862,137.472122 158.554840,141.899826 
	C158.869812,142.527725 156.457016,144.641953 155.160538,145.919937 
	C154.247772,146.819687 153.087311,147.468155 151.682556,148.647552 
	C150.203995,149.925156 149.080322,150.784027 147.956650,151.642883 
	C147.515411,151.705063 147.074188,151.767227 146.297379,151.820435 
	C142.877625,150.260895 140.386627,151.434967 137.153778,152.259094 
	C129.985275,154.086487 122.233101,153.624252 114.295036,154.034149 
	C113.887108,152.911209 113.903061,151.849716 114.349548,150.371582 
	C115.506210,149.229263 116.934875,148.411346 116.853531,147.791672 
	C115.545914,137.831009 119.631859,127.905090 117.009132,117.961967 
z"/>
<path fill="#EDE2CB" opacity="1.000000" stroke="none" 
	d="
M148.006226,152.060181 
	C149.080322,150.784027 150.203995,149.925156 151.661377,149.026154 
	C154.729492,152.366348 156.783646,155.995651 156.494156,160.744537 
	C156.658081,161.459030 156.564896,162.005768 156.348267,162.810974 
	C155.180893,163.815231 154.136963,164.561005 153.047028,165.654007 
	C147.000565,165.822021 146.763275,165.341721 147.981628,159.599121 
	C148.464630,157.322449 148.057602,154.856979 148.006226,152.060181 
z"/>
<path fill="#C1AB75" opacity="1.000000" stroke="none" 
	d="
M120.898376,157.593628 
	C124.633598,156.903137 128.394012,156.492188 132.583496,156.143738 
	C133.267059,156.646362 133.521530,157.086487 133.862259,157.766296 
	C132.573502,158.006119 131.198471,158.006226 129.409439,158.011627 
	C127.831749,158.165573 126.668068,158.314224 125.255890,158.711243 
	C123.953415,158.964523 122.899437,158.969421 121.452637,158.981110 
	C121.014389,158.616318 120.968979,158.244751 120.898376,157.593628 
z"/>
<path fill="#6E562F" opacity="1.000000" stroke="none" 
	d="
M162.257812,146.828461 
	C161.998474,146.541077 161.948441,146.106537 161.960754,145.348923 
	C162.171097,145.577667 162.319107,146.129486 162.257812,146.828461 
z"/>
<path fill="#B69540" opacity="1.000000" stroke="none" 
	d="
M114.944122,104.835312 
	C117.828903,104.413277 120.954086,104.561554 123.554649,103.465294 
	C132.340500,99.761642 141.112137,95.943039 149.540573,91.506134 
	C153.941116,89.189598 158.121506,87.380363 163.564865,88.014282 
	C158.974121,90.961853 154.060898,94.148102 148.864792,96.774727 
	C143.516144,99.478462 137.902893,101.662727 132.384033,104.024345 
	C128.663651,105.616379 124.981514,108.084747 121.143402,108.384811 
	C117.577591,108.663589 118.036461,110.232109 117.778961,112.838554 
	C117.261902,113.447235 116.987404,113.601158 116.742378,113.807640 
	C116.066086,113.723686 115.389801,113.639732 114.200211,113.367447 
	C113.512466,113.055046 113.338013,112.930992 113.163567,112.806946 
	C113.294785,110.434616 113.425995,108.062294 113.875648,105.297821 
	C114.444099,104.882217 114.694115,104.858765 114.944122,104.835312 
z"/>
<path fill="#A69147" opacity="1.000000" stroke="none" 
	d="
M93.290779,111.062157 
	C94.137810,110.881760 95.165009,111.009003 96.856094,111.401642 
	C98.975395,111.865623 100.430817,112.064217 101.886238,112.262802 
	C102.416267,112.435173 102.946289,112.607544 104.160461,112.854851 
	C106.233978,112.951149 107.623352,112.972511 109.012718,112.993866 
	C109.756042,113.082420 110.499367,113.170967 111.920013,113.189468 
	C112.740234,112.972374 112.883148,112.825325 113.026054,112.678284 
	C113.026054,112.678284 112.912529,112.816887 112.926674,113.254318 
	C112.597939,115.130318 112.255066,116.568886 111.571548,117.927902 
	C109.494926,117.231247 107.758942,116.614136 105.933609,115.635704 
	C104.232628,114.849693 102.621002,114.424995 101.009377,114.000305 
	C98.496567,113.123466 95.983757,112.246628 93.290779,111.062157 
z"/>
<path fill="#E1D2A8" opacity="1.000000" stroke="none" 
	d="
M120.988007,80.986481 
	C119.246750,81.220253 117.505486,81.454025 115.124931,81.836845 
	C114.091698,81.965073 113.697754,81.944267 113.303818,81.923462 
	C113.243713,81.205719 113.183601,80.487968 113.181625,79.414078 
	C116.004929,78.541168 118.770103,78.024399 121.642975,78.034012 
	C121.496452,79.369102 121.242233,80.177788 120.988007,80.986481 
z"/>
<path fill="#E7DABB" opacity="1.000000" stroke="none" 
	d="
M111.912186,118.007462 
	C112.255066,116.568886 112.597939,115.130318 112.990326,113.317352 
	C113.039841,112.942947 113.068359,112.842010 113.115967,112.824478 
	C113.338013,112.930992 113.512466,113.055046 113.867142,113.443924 
	C114.057762,114.230911 114.068176,114.753075 114.071777,116.119507 
	C113.920113,119.410454 113.775253,121.857140 113.452499,124.234268 
	C113.274597,124.164719 112.915329,124.028732 112.839882,123.686142 
	C112.475098,122.223549 112.185753,121.103546 111.948776,119.655899 
	C111.971489,118.887993 111.941841,118.447731 111.912186,118.007462 
z"/>
<path fill="#FCF9E5" opacity="1.000000" stroke="none" 
	d="
M101.872711,111.872635 
	C100.430817,112.064217 98.975395,111.865623 97.243286,111.432060 
	C96.725380,110.653038 96.484169,110.108994 96.121872,109.292938 
	C97.953590,109.841431 99.906395,110.661949 101.872711,111.872635 
z"/>
<path fill="#E7DABB" opacity="1.000000" stroke="none" 
	d="
M114.935684,104.483215 
	C114.694115,104.858765 114.444099,104.882217 113.820480,104.846809 
	C113.320709,103.360390 113.194542,101.932831 113.183479,100.134186 
	C113.298584,99.763100 113.688622,99.874329 113.883667,99.930946 
	C114.179573,100.554482 114.280434,101.121399 114.625969,101.851898 
	C114.889511,102.720695 114.908379,103.425911 114.935684,104.483215 
z"/>
<path fill="#E7DABB" opacity="1.000000" stroke="none" 
	d="
M113.216904,82.325500 
	C113.697754,81.944267 114.091698,81.965073 114.784943,81.999496 
	C114.712585,82.983620 114.340919,83.954132 113.671181,85.043961 
	C113.292068,84.351364 113.211021,83.539452 113.216904,82.325500 
z"/>
<path fill="#FCF9E5" opacity="1.000000" stroke="none" 
	d="
M108.778572,112.746803 
	C107.623352,112.972511 106.233978,112.951149 104.442947,112.812607 
	C105.542328,112.630196 107.043381,112.564972 108.778572,112.746803 
z"/>
<path fill="#F8F4E4" opacity="1.000000" stroke="none" 
	d="
M85.901527,105.847290 
	C85.822662,105.998940 85.651062,105.995888 85.221878,105.982437 
	C85.245789,105.878883 85.527298,105.785728 85.901527,105.847290 
z"/>
<path fill="#FCF9E5" opacity="1.000000" stroke="none" 
	d="
M112.872055,112.584961 
	C112.883148,112.825325 112.740234,112.972374 112.289474,113.116859 
	C112.227112,112.906746 112.472588,112.699188 112.872055,112.584961 
z"/>
<path fill="#B7933B" opacity="1.000000" stroke="none" 
	d="
M111.571548,117.927902 
	C111.941841,118.447731 111.971489,118.887993 111.574905,119.662689 
	C108.425018,121.320786 105.681328,122.605148 102.984146,123.980705 
	C100.878403,125.054626 98.855118,126.290482 96.747467,127.360359 
	C95.489334,127.999008 94.168282,128.548538 92.823486,128.973450 
	C90.801826,129.612213 88.692116,129.985199 86.694031,130.683456 
	C78.123695,133.678467 70.584442,139.849182 60.787498,139.055069 
	C60.515430,138.978516 60.297264,138.825256 59.999840,138.228027 
	C59.592106,137.878555 59.317528,137.896332 59.042950,137.914093 
	C58.561497,137.664597 58.080040,137.415085 57.360626,137.032974 
	C56.497536,135.796509 55.872402,134.692657 55.113220,133.293793 
	C55.426632,133.001770 55.874092,133.004791 56.853851,133.334351 
	C59.559166,134.054214 61.931511,135.197372 63.863430,134.683792 
	C67.812019,133.634109 71.492661,131.612198 75.340996,130.140625 
	C80.163506,128.296524 85.303108,127.096840 89.831833,124.716995 
	C95.249939,121.869781 102.241356,121.849548 106.022964,115.997025 
	C107.758942,116.614136 109.494926,117.231247 111.571548,117.927902 
z"/>
<path fill="#B18B2D" opacity="1.000000" stroke="none" 
	d="
M105.933609,115.635704 
	C102.241356,121.849548 95.249939,121.869781 89.831833,124.716995 
	C85.303108,127.096840 80.163506,128.296524 75.340996,130.140625 
	C71.492661,131.612198 67.812019,133.634109 63.863430,134.683792 
	C61.931511,135.197372 59.559166,134.054214 57.189278,133.335709 
	C63.594296,130.037079 70.113495,126.859230 76.820473,124.145485 
	C84.078415,121.208832 91.516731,118.719078 98.860184,115.990822 
	C99.575302,115.725136 100.176666,115.153244 100.920105,114.361893 
	C102.621002,114.424995 104.232628,114.849693 105.933609,115.635704 
z"/>
<path fill="#FEFDF6" opacity="1.000000" stroke="none" 
	d="
M113.630386,124.303825 
	C113.775253,121.857140 113.920113,119.410454 114.100372,116.509438 
	C115.052544,116.472610 115.969315,116.890114 116.947617,117.634796 
	C119.631859,127.905090 115.545914,137.831009 116.853531,147.791672 
	C116.934875,148.411346 115.506210,149.229263 114.363632,149.973083 
	C113.814835,148.520050 113.682472,147.048859 113.326401,145.293182 
	C113.102013,143.938568 113.101334,142.868454 113.050339,141.400391 
	C113.030533,139.934158 113.061035,138.865860 113.116928,137.070938 
	C113.124329,135.898117 113.106331,135.451935 113.129623,134.762299 
	C113.170914,134.518829 113.100395,134.030136 113.158241,133.764679 
	C113.216904,133.318069 113.217728,133.136948 113.458130,132.650574 
	C113.674942,130.452072 113.652176,128.558823 113.626312,126.369125 
	C113.625603,125.483078 113.627998,124.893448 113.630386,124.303825 
z"/>
<path fill="#C6A861" opacity="1.000000" stroke="none" 
	d="
M70.221405,147.819977 
	C70.249290,147.776657 70.351051,147.292465 70.461960,146.830032 
	C71.386597,145.287094 71.973907,143.677032 73.052460,143.215897 
	C78.295685,140.974106 83.670441,139.040009 89.402779,136.997986 
	C91.521065,136.550171 93.291794,136.250473 94.939064,135.625412 
	C100.609566,133.473724 106.236908,131.208313 111.921432,129.360168 
	C111.926422,130.483780 111.890671,131.233429 111.480042,131.998627 
	C108.069237,133.675293 105.033318,135.336426 101.749039,136.999283 
	C101.500679,137.001007 101.003960,137.005280 100.599297,137.003052 
	C95.315018,138.677673 90.398201,140.258881 85.593033,142.127228 
	C84.808517,142.432251 84.516869,144.004852 83.630302,144.994110 
	C81.840706,145.996048 80.418221,146.995483 78.995728,147.994919 
	C78.167931,148.139420 77.340134,148.283936 76.307159,148.667511 
	C75.263359,148.679199 74.424736,148.451813 72.915710,148.145386 
	C71.527290,148.002808 70.809273,147.939270 70.091255,147.875732 
	C70.091255,147.875732 70.193520,147.863281 70.221405,147.819977 
z"/>
<path fill="#7E5D23" opacity="1.000000" stroke="none" 
	d="
M70.094734,148.217575 
	C70.809273,147.939270 71.527290,148.002808 72.589279,148.183685 
	C72.786674,149.384918 72.640106,150.468796 72.243668,151.777496 
	C71.361931,150.854691 70.730072,149.707047 70.094734,148.217575 
z"/>
<path fill="#CDB676" opacity="1.000000" stroke="none" 
	d="
M79.449699,147.998352 
	C80.418221,146.995483 81.840706,145.996048 83.874855,145.251556 
	C85.742462,145.452469 87.165237,145.763351 88.224495,145.279114 
	C92.105705,143.504715 95.906342,141.538315 99.635780,139.461838 
	C100.331940,139.074219 100.559914,137.845718 101.003952,137.005280 
	C101.003960,137.005280 101.500679,137.001007 102.141113,136.999924 
	C105.860237,136.003937 108.938927,135.009018 112.143242,134.230530 
	C112.542023,134.633224 112.815178,134.819489 113.088333,135.005753 
	C113.106331,135.451935 113.124329,135.898117 113.070511,136.672440 
	C108.105461,138.804077 102.584343,139.718613 98.469925,142.624725 
	C92.669518,146.721680 86.762131,148.509872 79.449699,147.998352 
z"/>
<path fill="#A57D23" opacity="1.000000" stroke="none" 
	d="
M129.789948,53.242790 
	C130.454636,52.996975 130.899612,53.001373 131.769257,53.157185 
	C132.457047,53.212276 132.720169,53.115955 132.983307,53.019634 
	C137.443863,54.778973 138.563431,58.228287 137.992065,62.649662 
	C137.387421,67.328499 134.458771,69.320122 129.379471,68.050850 
	C128.503998,63.894768 127.898163,59.796913 127.604843,55.676811 
	C127.556587,54.998955 128.880508,54.223404 129.789948,53.242790 
z"/>
<path fill="#E6DAB6" opacity="1.000000" stroke="none" 
	d="
M120.667374,69.718948 
	C123.708321,70.102554 126.416908,70.552818 129.272400,71.304001 
	C128.272018,72.738487 127.124718,73.872055 125.977417,75.005623 
	C123.784958,73.512917 121.592506,72.020218 119.197502,70.258072 
	C119.441643,69.920952 119.888329,69.853279 120.667374,69.718948 
z"/>
<path fill="#DDC89B" opacity="1.000000" stroke="none" 
	d="
M121.399307,80.991386 
	C121.242233,80.177788 121.496452,79.369102 121.879333,78.264038 
	C122.857361,77.805313 123.706718,77.642960 125.204041,77.240326 
	C129.875778,77.497986 133.176941,76.811378 133.985306,72.038445 
	C135.563004,72.475464 137.140686,72.912476 138.913208,73.646027 
	C134.332214,78.721497 128.000641,79.685364 121.399307,80.991386 
z"/>
<path fill="#E1D2A8" opacity="1.000000" stroke="none" 
	d="
M133.670959,71.878021 
	C133.176941,76.811378 129.875778,77.497986 125.424011,76.995895 
	C125.251282,76.499870 125.506546,76.007988 125.869614,75.260864 
	C127.124718,73.872055 128.272018,72.738487 129.672012,71.372429 
	C131.068665,71.332489 132.212646,71.525040 133.670959,71.878021 
z"/>
<path fill="#AA8325" opacity="1.000000" stroke="none" 
	d="
M132.740570,53.015923 
	C132.720169,53.115955 132.457047,53.212276 132.103104,53.161118 
	C132.012299,53.013641 132.497833,53.012211 132.740570,53.015923 
z"/>
<path fill="#BD9B4A" opacity="1.000000" stroke="none" 
	d="
M60.955902,139.318237 
	C70.584442,139.849182 78.123695,133.678467 86.694031,130.683456 
	C88.692116,129.985199 90.801826,129.612213 92.823486,128.973450 
	C94.168282,128.548538 95.489334,127.999008 96.747467,127.360359 
	C98.855118,126.290482 100.878403,125.054626 102.984146,123.980705 
	C105.681328,122.605148 108.425018,121.320786 111.522537,119.990326 
	C112.185753,121.103546 112.475098,122.223549 112.557617,123.814514 
	C111.568192,124.526077 110.785591,124.766701 109.626678,125.055389 
	C98.973251,129.418610 88.767166,133.915756 78.386810,137.966293 
	C73.726341,139.784897 68.717278,140.710190 63.866402,142.040833 
	C62.952374,141.221024 62.038342,140.401230 60.955902,139.318237 
z"/>
<path fill="#C0A054" opacity="1.000000" stroke="none" 
	d="
M64.038498,142.332916 
	C68.717278,140.710190 73.726341,139.784897 78.386810,137.966293 
	C88.767166,133.915756 98.973251,129.418610 109.558121,125.394806 
	C105.210892,128.087463 100.531281,130.442688 95.911125,132.909271 
	C93.551941,134.168777 91.299377,135.627991 88.998627,136.996948 
	C83.670441,139.040009 78.295685,140.974106 73.052460,143.215897 
	C71.973907,143.677032 71.386597,145.287094 70.491951,146.584473 
	C68.344223,145.409210 66.277412,144.017105 64.038498,142.332916 
z"/>
<path fill="#BD9B4A" opacity="1.000000" stroke="none" 
	d="
M59.271255,137.996994 
	C59.317528,137.896332 59.592106,137.878555 59.914673,138.043701 
	C59.962658,138.226608 59.499561,138.079895 59.271255,137.996994 
z"/>
<path fill="#C1A154" opacity="1.000000" stroke="none" 
	d="
M143.602325,89.004425 
	C143.022186,89.995926 142.209305,91.334084 141.025055,91.914276 
	C135.482224,94.629890 129.859665,97.188110 124.207253,99.669670 
	C123.215843,100.104927 121.945808,99.905540 120.400085,99.997185 
	C121.516937,98.644852 122.823021,96.780380 124.598396,96.037643 
	C130.709930,93.480804 136.985474,91.316048 143.602325,89.004425 
z"/>
<path fill="#B69540" opacity="1.000000" stroke="none" 
	d="
M118.731285,113.190224 
	C119.952293,113.254395 121.173309,113.318565 122.672279,113.621933 
	C121.927902,113.883850 120.905571,113.906578 119.396042,113.745987 
	C118.908844,113.562675 118.731285,113.190224 118.731285,113.190224 
z"/>
<path fill="#E7DABB" opacity="1.000000" stroke="none" 
	d="
M118.542358,113.199036 
	C118.731285,113.190224 118.908844,113.562675 119.010666,113.742035 
	C118.583229,113.938858 118.053970,113.956314 117.133545,113.890701 
	C116.987404,113.601158 117.261902,113.447235 117.774994,113.235992 
	C117.984123,113.126106 118.353439,113.207855 118.542358,113.199036 
z"/>
<path fill="#C1A458" opacity="1.000000" stroke="none" 
	d="
M89.402779,136.997986 
	C91.299377,135.627991 93.551941,134.168777 95.911125,132.909271 
	C100.531281,130.442688 105.210892,128.087463 109.934441,125.346741 
	C110.785591,124.766701 111.568192,124.526077 112.633064,124.157097 
	C112.915329,124.028732 113.274597,124.164719 113.452492,124.234268 
	C113.627998,124.893448 113.625603,125.483078 113.351517,126.504257 
	C112.680115,127.619278 112.280403,128.302750 111.880699,128.986221 
	C106.236908,131.208313 100.609566,133.473724 94.939064,135.625412 
	C93.291794,136.250473 91.521065,136.550171 89.402779,136.997986 
z"/>
<path fill="#CAB06D" opacity="1.000000" stroke="none" 
	d="
M112.017624,134.014099 
	C108.938927,135.009018 105.860237,136.003937 102.389473,136.998199 
	C105.033318,135.336426 108.069237,133.675293 111.647728,132.237579 
	C112.533051,132.625931 112.875801,132.790863 113.218552,132.955811 
	C113.217728,133.136948 113.216904,133.318069 112.887344,133.756531 
	C112.378281,134.013947 112.197952,134.014038 112.017624,134.014099 
z"/>
<path fill="#E7DABB" opacity="1.000000" stroke="none" 
	d="
M113.458130,132.650574 
	C112.875801,132.790863 112.533051,132.625931 112.022614,132.222046 
	C111.890671,131.233429 111.926422,130.483780 111.921432,129.360168 
	C112.280403,128.302750 112.680115,127.619278 113.354614,126.800682 
	C113.652176,128.558823 113.674942,130.452072 113.458130,132.650574 
z"/>
<path fill="#D3BB83" opacity="1.000000" stroke="none" 
	d="
M112.143242,134.230545 
	C112.197952,134.014038 112.378281,134.013947 112.829498,134.022003 
	C113.100395,134.030136 113.170914,134.518829 113.129623,134.762299 
	C112.815178,134.819489 112.542023,134.633224 112.143242,134.230545 
z"/>
<path fill="#CAB06D" opacity="1.000000" stroke="none" 
	d="
M100.599289,137.003052 
	C100.559914,137.845718 100.331940,139.074219 99.635780,139.461838 
	C95.906342,141.538315 92.105705,143.504715 88.224495,145.279114 
	C87.165237,145.763351 85.742462,145.452469 84.241966,145.249039 
	C84.516869,144.004852 84.808517,142.432251 85.593033,142.127228 
	C90.398201,140.258881 95.315018,138.677673 100.599289,137.003052 
z"/>
</svg>