<svg version="1.1" id="Layer_1" xmlns="http://www.w3.org/2000/svg" xmlns:xlink="http://www.w3.org/1999/xlink" x="0px" y="0px"
	 width="100%" viewBox="0 0 250 250" enable-background="new 0 0 250 250" xml:space="preserve">
<path fill="#000000" opacity="1.000000" stroke="none" 
	d="
M1.000000,91.000000 
	C1.000000,60.666672 1.000000,30.833344 1.000000,1.000012 
	C84.333313,1.000008 167.666626,1.000008 250.999954,1.000004 
	C250.999969,84.333298 250.999969,167.666595 250.999985,250.999908 
	C167.666718,250.999939 84.333435,250.999939 1.000075,250.999969 
	C1.000000,197.833328 1.000000,144.666672 1.000000,91.000000 
M44.995922,218.494995 
	C48.337227,221.169052 51.600750,223.947693 55.032726,226.499832 
	C74.088799,240.670563 95.689255,247.914902 119.248962,248.836624 
	C128.093307,249.182632 137.050720,248.026413 145.885254,246.962646 
	C168.261490,244.268250 188.122391,235.004837 204.802078,220.353058 
	C227.974930,199.997559 243.620270,174.907974 247.095352,143.387497 
	C249.161835,124.643631 248.490799,106.150146 242.920135,88.004013 
	C235.915298,65.186157 222.378036,46.607647 204.505798,31.336870 
	C196.710876,24.676546 187.835098,18.750423 178.533066,14.496161 
	C159.638626,5.854835 139.747086,2.008242 118.571922,3.727682 
	C101.722443,5.095871 85.598396,8.178874 70.634445,15.874514 
	C56.660862,23.060833 44.198868,32.297668 33.846848,44.446617 
	C23.689287,56.367355 15.393374,69.217010 9.930746,83.895462 
	C1.939664,105.368057 1.153181,127.494499 5.231469,149.678711 
	C10.236944,176.906448 22.917021,200.096039 44.995922,218.494995 
z"/>
<path fill="#2147A5" opacity="1.000000" stroke="none" 
	d="
M44.741150,218.242569 
	C22.917021,200.096039 10.236944,176.906448 5.231469,149.678711 
	C1.153181,127.494499 1.939664,105.368057 9.930746,83.895462 
	C15.393374,69.217010 23.689287,56.367355 33.846848,44.446617 
	C44.198868,32.297668 56.660862,23.060833 70.634445,15.874514 
	C85.598396,8.178874 101.722443,5.095871 118.571922,3.727682 
	C139.747086,2.008242 159.638626,5.854835 178.533066,14.496161 
	C187.835098,18.750423 196.710876,24.676546 204.505798,31.336870 
	C222.378036,46.607647 235.915298,65.186157 242.920135,88.004013 
	C248.490799,106.150146 249.161835,124.643631 247.095352,143.387497 
	C243.620270,174.907974 227.974930,199.997559 204.802078,220.353058 
	C188.122391,235.004837 168.261490,244.268250 145.885254,246.962646 
	C137.050720,248.026413 128.093307,249.182632 119.248962,248.836624 
	C95.689255,247.914902 74.088799,240.670563 55.032726,226.499832 
	C51.600750,223.947693 48.337227,221.169052 44.741150,218.242569 
M220.907059,74.674599 
	C214.149261,61.611137 204.219452,50.934906 193.057144,41.914497 
	C165.378830,19.547277 133.554382,13.044477 99.151726,21.552053 
	C67.199303,29.453701 44.267834,49.433575 29.060608,78.191612 
	C19.253527,96.737549 16.267769,116.626953 18.796362,137.630325 
	C20.573397,152.390976 24.202477,166.278961 31.602905,179.181412 
	C43.063831,199.163239 59.836800,213.662430 80.088051,223.731247 
	C100.050301,233.656342 121.332787,235.913452 143.614792,232.230469 
	C171.038757,227.697556 193.022049,214.265015 210.044540,193.117752 
	C227.455276,171.488144 235.717789,146.542648 233.138535,118.280365 
	C231.755600,103.126945 228.168060,88.835144 220.907059,74.674599 
z"/>
<path fill="#000000" opacity="1.000000" stroke="none" 
	d="
M221.008606,75.033730 
	C228.168060,88.835144 231.755600,103.126945 233.138535,118.280365 
	C235.717789,146.542648 227.455276,171.488144 210.044540,193.117752 
	C193.022049,214.265015 171.038757,227.697556 143.614792,232.230469 
	C121.332787,235.913452 100.050301,233.656342 80.088051,223.731247 
	C59.836800,213.662430 43.063831,199.163239 31.602905,179.181412 
	C24.202477,166.278961 20.573397,152.390976 18.796362,137.630325 
	C16.267769,116.626953 19.253527,96.737549 29.060608,78.191612 
	C44.267834,49.433575 67.199303,29.453701 99.151726,21.552053 
	C133.554382,13.044477 165.378830,19.547277 193.057144,41.914497 
	C204.219452,50.934906 214.149261,61.611137 221.008606,75.033730 
M106.485764,54.000000 
	C97.398247,54.000000 88.310730,54.000000 78.729660,54.000000 
	C78.729660,65.087730 78.729660,75.448448 78.729660,86.526016 
	C73.979858,82.926231 69.900520,79.834564 66.083183,76.941475 
	C60.232533,82.253693 54.760544,87.064560 49.535538,92.130180 
	C48.718975,92.921814 48.351303,95.304741 48.931934,96.212532 
	C51.352001,99.996185 54.213787,103.497307 56.971272,107.179077 
	C60.881996,104.236832 64.503258,101.512367 67.411217,99.324562 
	C71.413712,101.676849 74.797562,103.665565 78.641136,105.924461 
	C78.641136,110.013985 78.641136,115.394600 78.641136,121.287010 
	C73.709297,117.864235 69.254829,114.772758 64.961044,111.792801 
	C59.040295,117.680481 53.612030,123.078430 48.184875,128.475266 
	C56.640591,137.747101 56.640591,137.747101 64.578224,131.361099 
	C70.403564,130.855591 71.160202,142.102646 78.746246,136.586594 
	C78.746246,139.735977 78.746246,142.653076 78.746246,146.102951 
	C70.440239,146.102951 62.374023,146.102951 54.385635,146.102951 
	C54.385635,152.040787 54.385635,157.427277 54.385635,163.167725 
	C62.704899,163.167725 70.641716,163.167725 78.667191,163.167725 
	C78.667191,168.263519 78.667191,172.979095 78.667191,178.238983 
	C70.282448,178.238983 62.222870,178.238983 54.280155,178.238983 
	C54.280155,184.060059 54.280155,189.327911 54.280155,194.663177 
	C76.608620,194.663177 98.655312,194.663177 120.600311,194.663177 
	C120.600311,188.929916 120.600311,183.542419 120.600311,177.804428 
	C111.933426,177.804428 103.664261,177.804428 95.346786,177.804428 
	C95.346786,172.709747 95.346786,167.992935 95.346786,162.733307 
	C103.746956,162.733307 111.810387,162.733307 119.705910,162.733307 
	C119.705910,156.911270 119.705910,151.642807 119.705910,145.878784 
	C111.006256,145.878784 102.588631,145.878784 93.555458,145.878784 
	C94.074783,143.083862 93.712761,139.911209 95.034554,138.864120 
	C99.257195,135.519012 104.104668,132.962662 108.530632,130.213730 
	C111.181831,133.559235 113.464012,136.439087 116.247940,139.952103 
	C119.110573,136.822586 121.608559,134.360779 123.734764,131.611435 
	C124.416779,130.729523 124.742508,128.570816 124.167648,127.875130 
	C119.151947,121.805222 113.894661,115.934937 108.798752,110.107895 
	C103.826248,113.514992 99.221519,116.670097 94.197586,120.112442 
	C93.533463,105.557922 94.209869,104.523460 108.896858,97.862823 
	C110.626190,100.108940 112.644135,102.729927 114.665375,105.355194 
	C118.431458,101.311310 121.758278,97.739098 125.664284,93.544968 
	C120.602455,88.693909 115.588821,84.099274 110.845901,79.240379 
	C108.941566,77.289482 107.631851,77.351257 105.544502,78.858932 
	C102.035858,81.393181 98.284279,83.591103 94.251541,86.176270 
	C94.251541,80.618904 94.251541,76.008652 94.251541,70.866753 
	C102.495903,70.444435 110.514427,70.033691 118.691132,69.614845 
	C118.691132,64.453400 118.691132,59.403645 118.691132,54.000000 
	C114.750336,54.000000 111.114227,54.000000 106.485764,54.000000 
M192.995697,160.260300 
	C192.995697,144.652222 192.995697,129.044144 192.995697,113.323593 
	C172.085159,113.323593 151.705292,113.323593 131.385101,113.323593 
	C131.385101,119.374359 131.385101,125.094704 131.385101,131.169830 
	C136.373444,131.169830 140.980042,131.169830 145.667404,131.169830 
	C145.667404,135.930557 145.667404,140.314301 145.667404,145.242188 
	C140.616043,145.242188 135.886108,145.242188 131.277283,145.242188 
	C131.277283,162.056381 131.277283,178.319702 131.277283,194.665726 
	C151.269913,194.665726 170.983475,194.665726 190.602966,194.665726 
	C190.602966,188.936691 190.602966,183.548782 190.602966,177.811996 
	C176.274475,177.811996 162.340210,177.811996 148.341736,177.811996 
	C148.341736,172.719925 148.341736,168.003296 148.341736,162.999725 
	C161.988922,162.999725 175.296951,163.054871 188.603119,162.921417 
	C190.065826,162.906738 191.517700,161.810440 192.995697,160.260300 
M191.000000,93.456535 
	C191.000000,80.378845 191.000000,67.301155 191.000000,54.383041 
	C189.943054,54.167248 189.623581,54.045326 189.303925,54.044891 
	C173.483185,54.023361 157.662430,54.008812 141.841675,54.001137 
	C130.000000,53.995392 130.000000,53.999996 130.000000,65.773483 
	C130.000000,78.042694 130.000000,90.311905 130.000000,102.677406 
	C150.588959,102.677406 170.629135,102.677406 191.000000,102.677406 
	C191.000000,99.719536 191.000000,97.080925 191.000000,93.456535 
z"/>
<path fill="#FF0000" opacity="1.000000" stroke="none" 
	d="
M106.981934,54.000000 
	C111.114227,54.000000 114.750336,54.000000 118.691132,54.000000 
	C118.691132,59.403645 118.691132,64.453400 118.691132,69.614845 
	C110.514427,70.033691 102.495903,70.444435 94.251541,70.866753 
	C94.251541,76.008652 94.251541,80.618904 94.251541,86.176270 
	C98.284279,83.591103 102.035858,81.393181 105.544502,78.858932 
	C107.631851,77.351257 108.941566,77.289482 110.845901,79.240379 
	C115.588821,84.099274 120.602455,88.693909 125.664284,93.544968 
	C121.758278,97.739098 118.431458,101.311310 114.665375,105.355194 
	C112.644135,102.729927 110.626190,100.108940 108.896858,97.862823 
	C94.209869,104.523460 93.533463,105.557922 94.197586,120.112442 
	C99.221519,116.670097 103.826248,113.514992 108.798752,110.107895 
	C113.894661,115.934937 119.151947,121.805222 124.167648,127.875130 
	C124.742508,128.570816 124.416779,130.729523 123.734764,131.611435 
	C121.608559,134.360779 119.110573,136.822586 116.247940,139.952103 
	C113.464012,136.439087 111.181831,133.559235 108.530632,130.213730 
	C104.104668,132.962662 99.257195,135.519012 95.034554,138.864120 
	C93.712761,139.911209 94.074783,143.083862 93.555458,145.878784 
	C102.588631,145.878784 111.006256,145.878784 119.705910,145.878784 
	C119.705910,151.642807 119.705910,156.911270 119.705910,162.733307 
	C111.810387,162.733307 103.746956,162.733307 95.346786,162.733307 
	C95.346786,167.992935 95.346786,172.709747 95.346786,177.804428 
	C103.664261,177.804428 111.933426,177.804428 120.600311,177.804428 
	C120.600311,183.542419 120.600311,188.929916 120.600311,194.663177 
	C98.655312,194.663177 76.608620,194.663177 54.280155,194.663177 
	C54.280155,189.327911 54.280155,184.060059 54.280155,178.238983 
	C62.222870,178.238983 70.282448,178.238983 78.667191,178.238983 
	C78.667191,172.979095 78.667191,168.263519 78.667191,163.167725 
	C70.641716,163.167725 62.704899,163.167725 54.385635,163.167725 
	C54.385635,157.427277 54.385635,152.040787 54.385635,146.102951 
	C62.374023,146.102951 70.440239,146.102951 78.746246,146.102951 
	C78.746246,142.653076 78.746246,139.735977 78.746246,136.586594 
	C71.160202,142.102646 70.403564,130.855591 64.578224,131.361099 
	C56.640591,137.747101 56.640591,137.747101 48.184875,128.475266 
	C53.612030,123.078430 59.040295,117.680481 64.961044,111.792801 
	C69.254829,114.772758 73.709297,117.864235 78.641136,121.287010 
	C78.641136,115.394600 78.641136,110.013985 78.641136,105.924461 
	C74.797562,103.665565 71.413712,101.676849 67.411217,99.324562 
	C64.503258,101.512367 60.881996,104.236832 56.971272,107.179077 
	C54.213787,103.497307 51.352001,99.996185 48.931934,96.212532 
	C48.351303,95.304741 48.718975,92.921814 49.535538,92.130180 
	C54.760544,87.064560 60.232533,82.253693 66.083183,76.941475 
	C69.900520,79.834564 73.979858,82.926231 78.729660,86.526016 
	C78.729660,75.448448 78.729660,65.087730 78.729660,54.000000 
	C88.310730,54.000000 97.398247,54.000000 106.981934,54.000000 
z"/>
<path fill="#FF0000" opacity="1.000000" stroke="none" 
	d="
M192.985138,160.738052 
	C191.517700,161.810440 190.065826,162.906738 188.603119,162.921417 
	C175.296951,163.054871 161.988922,162.999725 148.341736,162.999725 
	C148.341736,168.003296 148.341736,172.719925 148.341736,177.811996 
	C162.340210,177.811996 176.274475,177.811996 190.602966,177.811996 
	C190.602966,183.548782 190.602966,188.936691 190.602966,194.665726 
	C170.983475,194.665726 151.269913,194.665726 131.277283,194.665726 
	C131.277283,178.319702 131.277283,162.056381 131.277283,145.242188 
	C135.886108,145.242188 140.616043,145.242188 145.667404,145.242188 
	C145.667404,140.314301 145.667404,135.930557 145.667404,131.169830 
	C140.980042,131.169830 136.373444,131.169830 131.385101,131.169830 
	C131.385101,125.094704 131.385101,119.374359 131.385101,113.323593 
	C151.705292,113.323593 172.085159,113.323593 192.995697,113.323593 
	C192.995697,129.044144 192.995697,144.652222 192.985138,160.738052 
M175.974670,131.777649 
	C175.351959,131.192703 174.748550,130.127411 174.103363,130.101471 
	C170.182205,129.943771 166.251541,130.022812 162.359436,130.022812 
	C162.359436,135.339569 162.359436,140.049255 162.359436,144.591248 
	C167.106461,144.591248 171.487656,144.591248 175.995667,144.591248 
	C175.995667,140.364655 175.995667,136.546234 175.974670,131.777649 
z"/>
<path fill="#FF0000" opacity="1.000000" stroke="none" 
	d="
M191.000000,93.949432 
	C191.000000,97.080925 191.000000,99.719536 191.000000,102.677406 
	C170.629135,102.677406 150.588959,102.677406 130.000000,102.677406 
	C130.000000,90.311905 130.000000,78.042694 130.000000,65.773483 
	C130.000000,53.999996 130.000000,53.995392 141.841675,54.001137 
	C157.662430,54.008812 173.483185,54.023361 189.303925,54.044891 
	C189.623581,54.045326 189.943054,54.167248 191.000000,54.383041 
	C191.000000,67.301155 191.000000,80.378845 191.000000,93.949432 
M153.557648,85.000000 
	C160.965240,85.000000 168.372833,85.000000 175.758362,85.000000 
	C175.758362,79.671547 175.758362,75.077652 175.758362,70.000000 
	C170.585709,70.000000 165.642181,70.000000 160.698654,70.000000 
	C155.597198,70.000000 150.495728,70.000000 145.333771,70.000000 
	C145.333771,75.277061 145.333771,79.986694 145.333771,85.000000 
	C147.969528,85.000000 150.274155,85.000000 153.557648,85.000000 
z"/>
<path fill="#000000" opacity="1.000000" stroke="none" 
	d="
M175.985168,132.252731 
	C175.995667,136.546234 175.995667,140.364655 175.995667,144.591248 
	C171.487656,144.591248 167.106461,144.591248 162.359436,144.591248 
	C162.359436,140.049255 162.359436,135.339569 162.359436,130.022812 
	C166.251541,130.022812 170.182205,129.943771 174.103363,130.101471 
	C174.748550,130.127411 175.351959,131.192703 175.985168,132.252731 
z"/>
<path fill="#000000" opacity="1.000000" stroke="none" 
	d="
M153.068222,85.000000 
	C150.274155,85.000000 147.969528,85.000000 145.333771,85.000000 
	C145.333771,79.986694 145.333771,75.277061 145.333771,70.000000 
	C150.495728,70.000000 155.597198,70.000000 160.698654,70.000000 
	C165.642181,70.000000 170.585709,70.000000 175.758362,70.000000 
	C175.758362,75.077652 175.758362,79.671547 175.758362,85.000000 
	C168.372833,85.000000 160.965240,85.000000 153.068222,85.000000 
z"/>
</svg>