<svg version="1.1" id="Layer_1" xmlns="http://www.w3.org/2000/svg" xmlns:xlink="http://www.w3.org/1999/xlink" x="0px" y="0px"
	 width="100%" viewBox="0 0 184 176" enable-background="new 0 0 184 176" xml:space="preserve">
<path fill="#E61C11" opacity="1.000000" stroke="none" 
	d="
M82.000000,0.999999 
	C89.687576,1.000000 97.375153,1.000000 105.713608,1.352240 
	C147.544052,7.480800 178.714264,40.388672 181.874542,81.424026 
	C186.210831,137.729477 136.076569,183.267761 80.135132,173.836609 
	C39.938442,167.059875 8.773597,131.279022 8.013046,91.032097 
	C7.196811,47.838497 35.679501,11.533090 77.142303,2.842375 
	C78.816704,2.491418 80.383217,1.625818 82.000000,0.999999 
M104.382751,54.071312 
	C80.333771,54.071312 56.284798,54.071312 32.400101,54.071312 
	C32.400101,60.972416 32.400101,67.042770 32.400101,73.640839 
	C50.109093,73.640839 67.486282,73.640839 85.270699,73.640839 
	C85.270699,93.087151 85.270699,112.000420 85.270699,131.221176 
	C91.920227,131.221176 98.150314,131.221176 104.790932,131.221176 
	C104.790932,129.122681 104.790932,127.328125 104.790932,125.533577 
	C104.790932,105.888206 104.768311,86.242790 104.809204,66.597504 
	C104.817833,62.455097 105.059288,58.313183 106.059280,54.125187 
	C112.781303,54.125187 119.503319,54.125187 125.986801,54.125187 
	C125.986801,46.430347 125.986801,39.549305 125.986801,32.695007 
	C118.724976,32.695007 111.876259,32.695007 105.334877,32.695007 
	C105.334877,40.176041 105.334877,47.245464 104.382751,54.071312 
M155.494995,92.939323 
	C159.306396,92.939323 163.117798,92.939323 167.234955,92.939323 
	C167.234955,86.378349 167.234955,80.142120 167.234955,73.658798 
	C152.715393,73.658798 138.490601,73.658798 124.282425,73.658798 
	C124.282425,93.034653 124.282425,112.095276 124.282425,131.225296 
	C130.705826,131.225296 136.798721,131.225296 143.469788,131.225296 
	C143.469788,118.368919 143.469788,105.799080 143.469788,92.939323 
	C147.536621,92.939323 151.022018,92.939323 155.494995,92.939323 
M65.997742,95.688667 
	C64.882072,94.752693 63.788124,93.037186 62.647263,93.005394 
	C54.323177,92.773430 45.989662,92.879738 37.659126,92.879349 
	C34.251816,92.879196 30.844507,92.879333 27.428833,92.879333 
	C27.428833,99.651680 27.428833,105.591499 27.428833,112.154099 
	C33.842426,112.154099 40.053692,112.154099 46.757675,112.154099 
	C46.757675,118.855614 46.757675,124.943329 46.757675,131.262848 
	C53.377777,131.262848 59.474255,131.262848 65.998634,131.262848 
	C65.998634,119.577499 65.998634,108.119255 65.997742,95.688667 
z"/>
<path fill="#FEFDFD" opacity="1.000000" stroke="none" 
	d="
M81.531342,0.999999 
	C80.383217,1.625818 78.816704,2.491418 77.142303,2.842375 
	C35.679501,11.533090 7.196811,47.838497 8.013046,91.032097 
	C8.773597,131.279022 39.938442,167.059875 80.135132,173.836609 
	C136.076569,183.267761 186.210831,137.729477 181.874542,81.424026 
	C178.714264,40.388672 147.544052,7.480800 106.182251,1.352240 
	C132.316772,1.000000 158.633530,1.000000 184.975159,1.000000 
	C184.975159,59.613182 184.975159,118.226372 184.975159,176.919785 
	C123.758820,176.919785 62.517506,176.919785 1.138093,176.919785 
	C1.138093,118.333542 1.138093,59.666821 1.138093,1.000000 
	C27.762743,1.000000 54.412712,1.000000 81.531342,0.999999 
z"/>
<path fill="#FEF9F9" opacity="1.000000" stroke="none" 
	d="
M105.193459,54.171040 
	C105.059288,58.313183 104.817833,62.455097 104.809204,66.597504 
	C104.768311,86.242790 104.790932,105.888206 104.790932,125.533577 
	C104.790932,127.328125 104.790932,129.122681 104.790932,131.221176 
	C98.150314,131.221176 91.920227,131.221176 85.270699,131.221176 
	C85.270699,112.000420 85.270699,93.087151 85.270699,73.640839 
	C67.486282,73.640839 50.109093,73.640839 32.400101,73.640839 
	C32.400101,67.042770 32.400101,60.972416 32.400101,54.071312 
	C56.284798,54.071312 80.333771,54.071312 104.818954,54.161575 
	C105.255150,54.251835 105.193459,54.171040 105.193459,54.171040 
z"/>
<path fill="#FEF9F8" opacity="1.000000" stroke="none" 
	d="
M155.001205,92.939323 
	C151.022018,92.939323 147.536621,92.939323 143.469788,92.939323 
	C143.469788,105.799080 143.469788,118.368919 143.469788,131.225296 
	C136.798721,131.225296 130.705826,131.225296 124.282425,131.225296 
	C124.282425,112.095276 124.282425,93.034653 124.282425,73.658798 
	C138.490601,73.658798 152.715393,73.658798 167.234955,73.658798 
	C167.234955,80.142120 167.234955,86.378349 167.234955,92.939323 
	C163.117798,92.939323 159.306396,92.939323 155.001205,92.939323 
z"/>
<path fill="#FEFCFB" opacity="1.000000" stroke="none" 
	d="
M65.998184,96.174835 
	C65.998634,108.119255 65.998634,119.577499 65.998634,131.262848 
	C59.474255,131.262848 53.377777,131.262848 46.757675,131.262848 
	C46.757675,124.943329 46.757675,118.855614 46.757675,112.154099 
	C40.053692,112.154099 33.842426,112.154099 27.428833,112.154099 
	C27.428833,105.591499 27.428833,99.651680 27.428833,92.879333 
	C30.844507,92.879333 34.251816,92.879196 37.659126,92.879349 
	C45.989662,92.879738 54.323177,92.773430 62.647263,93.005394 
	C63.788124,93.037186 64.882072,94.752693 65.998184,96.174835 
z"/>
<path fill="#FEFBFA" opacity="1.000000" stroke="none" 
	d="
M105.295013,54.283363 
	C105.334877,47.245464 105.334877,40.176041 105.334877,32.695007 
	C111.876259,32.695007 118.724976,32.695007 125.986801,32.695007 
	C125.986801,39.549305 125.986801,46.430347 125.986801,54.125187 
	C119.503319,54.125187 112.781303,54.125187 105.626373,54.148113 
	C105.193459,54.171040 105.255150,54.251835 105.295013,54.283363 
z"/>
</svg>