<svg version="1.1" id="Layer_1" xmlns="http://www.w3.org/2000/svg" xmlns:xlink="http://www.w3.org/1999/xlink" x="0px" y="0px"
	 width="100%" viewBox="0 0 1280 1189" enable-background="new 0 0 1280 1189" xml:space="preserve">
<path fill="#D80C18" opacity="1.000000" stroke="none" 
	d="
M604.000000,1190.000000 
	C460.641754,1190.000000 317.283508,1190.000000 173.459793,1189.531372 
	C172.994324,989.180298 172.994324,789.297791 172.994324,589.000000 
	C115.236122,589.000000 58.118061,589.000000 1.000000,589.000000 
	C1.000000,393.091614 1.000000,197.183258 1.000000,1.000000 
	C108.024742,1.000000 215.049728,1.000000 322.537354,1.468657 
	C323.000000,51.520912 323.000000,101.104507 323.000000,151.127533 
	C265.331390,151.127533 208.410019,151.127533 151.370346,151.127533 
	C151.370346,246.940262 151.370346,342.309387 151.370346,438.119781 
	C208.661041,438.119781 265.582611,438.119781 323.108551,438.119781 
	C323.108551,639.258606 323.108551,839.956482 323.108551,1040.999878 
	C325.189819,1040.999878 326.665588,1040.999878 328.141327,1040.999878 
	C399.136108,1041.000000 470.131042,1041.069702 541.125488,1040.909180 
	C549.665771,1040.889771 558.328369,1040.309448 566.714966,1038.783569 
	C581.969788,1036.008057 597.174133,1032.772949 612.193054,1028.923706 
	C637.091125,1022.542480 660.385681,1012.104370 682.454712,999.005188 
	C705.987488,985.037292 726.933350,967.945618 744.619202,946.928650 
	C757.720398,931.359741 768.148254,914.252197 775.005554,895.094421 
	C781.416138,877.185059 784.231812,858.785583 783.189026,839.621826 
	C782.495911,826.885071 780.734802,814.508484 777.123047,802.325195 
	C767.965820,771.435364 748.754517,747.629456 723.654297,728.507751 
	C706.078064,715.117981 687.116394,703.598022 666.526855,695.292175 
	C637.457092,683.565491 608.201782,672.296265 578.977661,660.955444 
	C557.051208,652.446716 535.000061,644.304077 514.352112,632.804016 
	C483.286621,615.501709 454.595184,595.177002 430.941254,568.364990 
	C422.138641,558.387085 413.030518,548.532410 405.441223,537.658691 
	C385.206055,508.666382 369.796539,477.253418 359.512054,443.265869 
	C350.201965,412.498474 344.685486,381.093201 343.225708,349.129364 
	C342.042023,323.210571 342.722748,297.271637 347.809631,271.539154 
	C353.171234,244.416946 361.356903,218.251846 373.465027,193.545059 
	C381.503052,177.143311 391.235718,161.495026 401.123352,146.096069 
	C413.757812,126.419220 429.389618,109.176567 446.310944,92.985474 
	C461.692810,78.267387 478.186768,65.099976 496.011902,53.558987 
	C518.245544,39.163681 541.906128,27.624218 566.935669,18.964005 
	C590.204285,10.913038 614.026489,5.251260 638.592163,2.915277 
	C639.447754,2.833915 640.199768,1.663069 641.000000,1.000008 
	C854.248474,1.000000 1067.496948,1.000000 1281.000000,1.000000 
	C1281.000000,144.024796 1281.000000,287.049744 1280.531372,430.537354 
	C1231.477783,431.000000 1182.892944,431.000000 1133.870117,431.000000 
	C1133.870117,337.330322 1133.870117,244.409744 1133.870117,150.999390 
	C1131.311035,150.999390 1129.186768,150.999390 1127.062622,150.999390 
	C975.570312,150.999573 824.077759,150.901535 672.585999,151.194977 
	C661.035522,151.217331 649.356873,153.355911 637.974731,155.674133 
	C621.740540,158.980576 606.240540,164.952225 592.129150,173.623688 
	C580.438904,180.807358 568.789734,188.418549 558.464355,197.385605 
	C538.547852,214.682068 522.626648,235.316330 511.220184,259.343781 
	C500.961609,280.953125 494.443115,303.525696 494.205048,327.435883 
	C494.069275,341.069427 495.593842,354.767639 497.093781,368.356934 
	C498.883484,384.571503 503.925232,400.025635 510.496399,414.887054 
	C522.001526,440.907043 538.414062,463.468567 560.836792,481.067902 
	C572.774109,490.437347 585.431030,499.116486 598.602905,506.636200 
	C621.311829,519.600403 646.786926,525.982178 671.078918,535.202515 
	C693.231873,543.610962 715.280579,552.413391 736.864685,562.171570 
	C765.264526,575.011108 792.559570,590.084412 817.767700,608.520142 
	C830.605957,617.909241 843.056702,627.946777 854.860107,638.602234 
	C869.723633,652.020203 883.175415,666.857666 894.816772,683.267578 
	C905.016113,697.644653 913.854309,712.835632 920.838745,728.949707 
	C928.452271,746.515381 934.494446,764.715393 937.314819,783.759399 
	C939.164917,796.251892 941.248718,808.792969 941.787903,821.374084 
	C942.383667,835.273987 942.007629,849.301880 940.822083,863.168579 
	C939.525024,878.337830 937.769104,893.593872 934.530762,908.445251 
	C927.381592,941.232361 915.368286,972.296021 898.828369,1001.592773 
	C885.638733,1024.955444 870.159546,1046.689697 851.971436,1066.321777 
	C830.294617,1089.719482 806.509094,1110.738770 779.544189,1128.110596 
	C753.822388,1144.681641 726.749084,1158.317871 697.934937,1168.518677 
	C678.173279,1175.514771 658.036804,1181.124756 637.231506,1184.047974 
	C627.158508,1185.463379 617.052490,1186.644043 606.981506,1188.072876 
	C605.917969,1188.223877 604.990540,1189.334595 604.000000,1190.000000 
z"/>
<path fill="#000000" opacity="1.000000" stroke="none" 
	d="
M604.468628,1190.000000 
	C604.990540,1189.334595 605.917969,1188.223877 606.981506,1188.072876 
	C617.052490,1186.644043 627.158508,1185.463379 637.231506,1184.047974 
	C658.036804,1181.124756 678.173279,1175.514771 697.934937,1168.518677 
	C726.749084,1158.317871 753.822388,1144.681641 779.544189,1128.110596 
	C806.509094,1110.738770 830.294617,1089.719482 851.971436,1066.321777 
	C870.159546,1046.689697 885.638733,1024.955444 898.828369,1001.592773 
	C915.368286,972.296021 927.381592,941.232361 934.530762,908.445251 
	C937.769104,893.593872 939.525024,878.337830 940.822083,863.168579 
	C942.007629,849.301880 942.383667,835.273987 941.787903,821.374084 
	C941.248718,808.792969 939.164917,796.251892 937.314819,783.759399 
	C934.494446,764.715393 928.452271,746.515381 920.838745,728.949707 
	C913.854309,712.835632 905.016113,697.644653 894.816772,683.267578 
	C883.175415,666.857666 869.723633,652.020203 854.860107,638.602234 
	C843.056702,627.946777 830.605957,617.909241 817.767700,608.520142 
	C792.559570,590.084412 765.264526,575.011108 736.864685,562.171570 
	C715.280579,552.413391 693.231873,543.610962 671.078918,535.202515 
	C646.786926,525.982178 621.311829,519.600403 598.602905,506.636200 
	C585.431030,499.116486 572.774109,490.437347 560.836792,481.067902 
	C538.414062,463.468567 522.001526,440.907043 510.496399,414.887054 
	C503.925232,400.025635 498.883484,384.571503 497.093781,368.356934 
	C495.593842,354.767639 494.069275,341.069427 494.205048,327.435883 
	C494.443115,303.525696 500.961609,280.953125 511.220184,259.343781 
	C522.626648,235.316330 538.547852,214.682068 558.464355,197.385605 
	C568.789734,188.418549 580.438904,180.807358 592.129150,173.623688 
	C606.240540,164.952225 621.740540,158.980576 637.974731,155.674133 
	C649.356873,153.355911 661.035522,151.217331 672.585999,151.194977 
	C824.077759,150.901535 975.570312,150.999573 1127.062622,150.999390 
	C1129.186768,150.999390 1131.311035,150.999390 1133.870117,150.999390 
	C1133.870117,244.409744 1133.870117,337.330322 1133.870117,431.000000 
	C1182.892944,431.000000 1231.477783,431.000000 1280.531372,431.000000 
	C1281.000000,683.922913 1281.000000,936.845886 1281.000000,1190.000000 
	C1055.645874,1190.000000 830.291565,1190.000000 604.468628,1190.000000 
M951.000000,326.498413 
	C919.119812,310.027161 886.361206,295.637238 851.876343,285.512878 
	C838.564453,281.604614 825.128784,277.982819 811.562561,275.115112 
	C798.920471,272.442810 786.042542,270.862000 773.245361,268.955109 
	C761.983948,267.277039 750.757385,266.174713 739.292908,267.881073 
	C717.537537,271.119110 700.582825,281.846832 688.590881,299.995789 
	C678.609680,315.101593 674.403992,331.728333 676.852600,350.087708 
	C678.941040,365.746094 685.012329,379.158173 695.384033,390.982208 
	C708.324219,405.734375 725.653931,413.071716 743.525574,418.572357 
	C769.761047,426.647308 796.551575,433.017792 821.455078,444.905457 
	C839.485779,453.512329 857.690369,461.913025 875.002930,471.827881 
	C899.190491,485.680084 922.066284,501.676849 942.781006,520.441345 
	C957.195557,533.498901 971.554138,546.695618 984.974976,560.749512 
	C996.866699,573.202209 1007.802612,586.629211 1018.487976,600.157288 
	C1032.819336,618.301392 1045.163574,637.821106 1056.053345,658.236084 
	C1069.210449,682.901489 1079.709595,708.629456 1087.284546,735.562805 
	C1093.078857,756.164856 1096.437622,777.201843 1097.830566,798.472168 
	C1098.725098,812.132202 1098.499512,825.921143 1097.875977,839.611328 
	C1097.050781,857.728210 1096.081299,875.897949 1093.809326,893.872559 
	C1091.596924,911.377258 1088.349243,928.825134 1084.319824,946.008118 
	C1078.826416,969.434937 1070.971191,992.157593 1061.416748,1014.309570 
	C1050.936646,1038.608032 1038.763062,1061.945312 1024.432983,1084.190063 
	C1010.172607,1106.326538 994.540588,1127.411011 976.149963,1146.282715 
	C964.155334,1158.591309 951.558899,1170.314575 939.182922,1182.249023 
	C937.387146,1183.980591 935.316162,1185.426880 933.372559,1187.005127 
	C933.549133,1187.336914 933.725769,1187.668701 933.902405,1188.000488 
	C935.692444,1188.000488 937.482422,1188.000366 939.272461,1188.000366 
	C994.271545,1188.000366 1049.270630,1188.000488 1104.269775,1188.000366 
	C1120.238647,1188.000366 1120.251465,1188.012329 1131.046265,1176.402466 
	C1132.496582,1174.842651 1133.743164,1173.093018 1135.077881,1171.426392 
	C1145.045776,1158.978516 1155.636719,1146.972290 1164.844849,1133.985596 
	C1182.362183,1109.280151 1196.975586,1082.793335 1207.940552,1054.553833 
	C1216.337769,1032.927124 1224.307617,1011.035095 1230.694824,988.752930 
	C1238.679932,960.896729 1244.344971,932.425049 1247.042725,903.470154 
	C1248.691895,885.767029 1251.286255,868.089905 1251.765503,850.355408 
	C1252.389160,827.272705 1251.987549,804.110840 1250.788818,781.047363 
	C1249.895752,763.861816 1248.036011,746.587585 1244.809814,729.696167 
	C1240.463745,706.941040 1235.395630,684.215149 1228.763062,662.037292 
	C1222.683105,641.707153 1214.556152,621.941467 1206.539062,602.249573 
	C1194.626831,572.990601 1179.657104,545.177551 1161.811157,519.186035 
	C1146.053467,496.235962 1129.414795,473.749115 1111.472778,452.485687 
	C1097.287720,435.674744 1081.021118,420.500610 1064.770142,405.589996 
	C1051.479858,393.395966 1037.055054,382.396301 1022.763123,371.345764 
	C1000.555603,354.174774 976.400940,340.029053 951.000000,326.498413 
z"/>
<path fill="#000000" opacity="1.000000" stroke="none" 
	d="
M640.531372,1.000008 
	C640.199768,1.663069 639.447754,2.833915 638.592163,2.915277 
	C614.026489,5.251260 590.204285,10.913038 566.935669,18.964005 
	C541.906128,27.624218 518.245544,39.163681 496.011902,53.558987 
	C478.186768,65.099976 461.692810,78.267387 446.310944,92.985474 
	C429.389618,109.176567 413.757812,126.419220 401.123352,146.096069 
	C391.235718,161.495026 381.503052,177.143311 373.465027,193.545059 
	C361.356903,218.251846 353.171234,244.416946 347.809631,271.539154 
	C342.722748,297.271637 342.042023,323.210571 343.225708,349.129364 
	C344.685486,381.093201 350.201965,412.498474 359.512054,443.265869 
	C369.796539,477.253418 385.206055,508.666382 405.441223,537.658691 
	C413.030518,548.532410 422.138641,558.387085 430.941254,568.364990 
	C454.595184,595.177002 483.286621,615.501709 514.352112,632.804016 
	C535.000061,644.304077 557.051208,652.446716 578.977661,660.955444 
	C608.201782,672.296265 637.457092,683.565491 666.526855,695.292175 
	C687.116394,703.598022 706.078064,715.117981 723.654297,728.507751 
	C748.754517,747.629456 767.965820,771.435364 777.123047,802.325195 
	C780.734802,814.508484 782.495911,826.885071 783.189026,839.621826 
	C784.231812,858.785583 781.416138,877.185059 775.005554,895.094421 
	C768.148254,914.252197 757.720398,931.359741 744.619202,946.928650 
	C726.933350,967.945618 705.987488,985.037292 682.454712,999.005188 
	C660.385681,1012.104370 637.091125,1022.542480 612.193054,1028.923706 
	C597.174133,1032.772949 581.969788,1036.008057 566.714966,1038.783569 
	C558.328369,1040.309448 549.665771,1040.889771 541.125488,1040.909180 
	C470.131042,1041.069702 399.136108,1041.000000 328.141327,1040.999878 
	C326.665588,1040.999878 325.189819,1040.999878 323.108551,1040.999878 
	C323.108551,839.956482 323.108551,639.258606 323.108551,438.119781 
	C265.582611,438.119781 208.661041,438.119781 151.370346,438.119781 
	C151.370346,342.309387 151.370346,246.940262 151.370346,151.127533 
	C208.410019,151.127533 265.331390,151.127533 323.000000,151.127533 
	C323.000000,101.104507 323.000000,51.520912 323.000000,1.468657 
	C428.687561,1.000000 534.375122,1.000000 640.531372,1.000008 
z"/>
<path fill="#000000" opacity="1.000000" stroke="none" 
	d="
M1.000000,589.468628 
	C58.118061,589.000000 115.236122,589.000000 172.994324,589.000000 
	C172.994324,789.297791 172.994324,989.180298 172.997162,1189.531372 
	C115.699127,1190.000000 58.398251,1190.000000 1.000000,1190.000000 
	C1.000000,989.979126 1.000000,789.958191 1.000000,589.468628 
z"/>
<path fill="#D80C18" opacity="1.000000" stroke="none" 
	d="
M951.317261,326.702240 
	C976.400940,340.029053 1000.555603,354.174774 1022.763123,371.345764 
	C1037.055054,382.396301 1051.479858,393.395966 1064.770142,405.589996 
	C1081.021118,420.500610 1097.287720,435.674744 1111.472778,452.485687 
	C1129.414795,473.749115 1146.053467,496.235962 1161.811157,519.186035 
	C1179.657104,545.177551 1194.626831,572.990601 1206.539062,602.249573 
	C1214.556152,621.941467 1222.683105,641.707153 1228.763062,662.037292 
	C1235.395630,684.215149 1240.463745,706.941040 1244.809814,729.696167 
	C1248.036011,746.587585 1249.895752,763.861816 1250.788818,781.047363 
	C1251.987549,804.110840 1252.389160,827.272705 1251.765503,850.355408 
	C1251.286255,868.089905 1248.691895,885.767029 1247.042725,903.470154 
	C1244.344971,932.425049 1238.679932,960.896729 1230.694824,988.752930 
	C1224.307617,1011.035095 1216.337769,1032.927124 1207.940552,1054.553833 
	C1196.975586,1082.793335 1182.362183,1109.280151 1164.844849,1133.985596 
	C1155.636719,1146.972290 1145.045776,1158.978516 1135.077881,1171.426392 
	C1133.743164,1173.093018 1132.496582,1174.842651 1131.046265,1176.402466 
	C1120.251465,1188.012329 1120.238647,1188.000366 1104.269775,1188.000366 
	C1049.270630,1188.000488 994.271545,1188.000366 939.272461,1188.000366 
	C937.482422,1188.000366 935.692444,1188.000488 933.902405,1188.000488 
	C933.725769,1187.668701 933.549133,1187.336914 933.372559,1187.005127 
	C935.316162,1185.426880 937.387146,1183.980591 939.182922,1182.249023 
	C951.558899,1170.314575 964.155334,1158.591309 976.149963,1146.282715 
	C994.540588,1127.411011 1010.172607,1106.326538 1024.432983,1084.190063 
	C1038.763062,1061.945312 1050.936646,1038.608032 1061.416748,1014.309570 
	C1070.971191,992.157593 1078.826416,969.434937 1084.319824,946.008118 
	C1088.349243,928.825134 1091.596924,911.377258 1093.809326,893.872559 
	C1096.081299,875.897949 1097.050781,857.728210 1097.875977,839.611328 
	C1098.499512,825.921143 1098.725098,812.132202 1097.830566,798.472168 
	C1096.437622,777.201843 1093.078857,756.164856 1087.284546,735.562805 
	C1079.709595,708.629456 1069.210449,682.901489 1056.053345,658.236084 
	C1045.163574,637.821106 1032.819336,618.301392 1018.487976,600.157288 
	C1007.802612,586.629211 996.866699,573.202209 984.974976,560.749512 
	C971.554138,546.695618 957.195557,533.498901 942.781006,520.441345 
	C922.066284,501.676849 899.190491,485.680084 875.002930,471.827881 
	C857.690369,461.913025 839.485779,453.512329 821.455078,444.905457 
	C796.551575,433.017792 769.761047,426.647308 743.525574,418.572357 
	C725.653931,413.071716 708.324219,405.734375 695.384033,390.982208 
	C685.012329,379.158173 678.941040,365.746094 676.852600,350.087708 
	C674.403992,331.728333 678.609680,315.101593 688.590881,299.995789 
	C700.582825,281.846832 717.537537,271.119110 739.292908,267.881073 
	C750.757385,266.174713 761.983948,267.277039 773.245361,268.955109 
	C786.042542,270.862000 798.920471,272.442810 811.562561,275.115112 
	C825.128784,277.982819 838.564453,281.604614 851.876343,285.512878 
	C886.361206,295.637238 919.119812,310.027161 951.317261,326.702240 
z"/>
</svg>