<svg version="1.1" id="Layer_1" xmlns="http://www.w3.org/2000/svg" xmlns:xlink="http://www.w3.org/1999/xlink" x="0px" y="0px"
	 width="100%" viewBox="0 0 227 222" enable-background="new 0 0 227 222" xml:space="preserve">
<path fill="#018E6A" opacity="1.000000" stroke="none" 
	d="
M104.000000,1.000000 
	C104.750000,1.000000 105.500000,1.000000 106.860298,1.360939 
	C125.347603,1.769252 143.224609,1.816626 161.459381,1.924844 
	C167.039383,3.464353 169.272995,7.143465 169.301727,12.338052 
	C169.347641,20.642485 169.319229,28.947334 169.321075,37.252007 
	C169.322250,42.497929 169.321304,47.743855 169.321304,53.048576 
	C171.601486,53.341763 173.227753,53.592991 174.862869,53.754795 
	C199.068710,56.150127 218.418884,71.993805 225.533783,95.245193 
	C226.327438,97.838829 227.176590,100.415474 228.000000,103.000000 
	C228.000000,108.688042 228.000000,114.376083 227.655548,120.686935 
	C223.173279,140.837463 212.791595,155.862350 194.414322,164.149384 
	C186.733643,167.612915 178.117691,169.002396 169.320160,171.507690 
	C169.320160,184.007523 169.361862,197.439758 169.302338,210.871567 
	C169.273209,217.443893 167.365906,219.926682 160.582367,222.077271 
	C145.414062,222.013153 130.713638,221.981903 116.013756,222.057037 
	C114.340942,222.065582 112.671181,222.671219 111.000000,223.000000 
	C107.638710,223.000000 104.277428,223.000000 100.304337,222.635742 
	C97.904510,221.916229 96.118942,221.548004 94.328087,221.207596 
	C49.754356,212.734467 20.227690,186.975159 5.887318,143.953720 
	C3.829050,137.778870 2.608328,131.324829 1.000000,125.000000 
	C1.000000,116.645767 1.000000,108.291534 1.358673,99.305298 
	C1.801067,98.351883 1.913456,98.034958 1.964449,97.708443 
	C9.320964,50.604313 41.146027,15.370423 86.248276,4.535034 
	C92.110275,3.126744 98.080116,2.167332 104.000000,1.000000 
M151.041870,131.023346 
	C163.605942,131.023346 176.170013,131.023346 188.746948,131.023346 
	C188.746948,117.855507 188.746948,105.293579 188.746948,92.242035 
	C179.074844,92.242035 169.639984,92.176208 160.206894,92.276810 
	C156.786835,92.313271 153.371002,92.747597 149.502945,93.693596 
	C149.395142,105.547737 149.274109,117.401810 149.220200,129.256195 
	C149.217621,129.825058 149.807343,130.396606 151.041870,131.023346 
M159.422028,169.635178 
	C158.207809,169.154968 157.027084,168.550583 155.774460,168.212753 
	C124.764725,159.849747 107.086555,132.984879 111.916054,101.519615 
	C115.440552,78.556747 135.979477,57.633850 158.387756,55.003319 
	C159.261871,54.692406 160.136002,54.381493 161.010117,54.070580 
	C160.892029,53.731842 160.773956,53.393105 160.655869,53.054367 
	C159.768082,53.353493 158.880295,53.652622 157.056030,53.964691 
	C142.054306,53.895203 127.052597,53.825710 111.813141,53.521191 
	C111.531929,53.630013 111.250710,53.738834 110.108490,53.999332 
	C86.914108,55.489525 69.511589,66.340698 59.558681,87.328186 
	C49.868324,107.762016 52.103947,127.840057 65.332413,146.194244 
	C75.973305,160.958237 91.120537,168.171097 109.690506,170.497055 
	C125.685768,170.582642 141.681015,170.673599 157.676392,170.725418 
	C158.115631,170.726852 158.556259,170.307297 159.422028,169.635178 
z"/>
<path fill="#FDFEFE" opacity="1.000000" stroke="none" 
	d="
M161.050415,222.141663 
	C167.365906,219.926682 169.273209,217.443893 169.302338,210.871567 
	C169.361862,197.439758 169.320160,184.007523 169.320160,171.507690 
	C178.117691,169.002396 186.733643,167.612915 194.414322,164.149384 
	C212.791595,155.862350 223.173279,140.837463 227.655548,121.154877 
	C228.000000,154.911758 228.000000,188.823517 228.000000,223.000000 
	C205.979813,223.000000 183.958572,223.000000 161.466888,222.784576 
	C160.996475,222.569138 161.050415,222.141663 161.050415,222.141663 
z"/>
<path fill="#FDFEFE" opacity="1.000000" stroke="none" 
	d="
M228.000000,102.531342 
	C227.176590,100.415474 226.327438,97.838829 225.533783,95.245193 
	C218.418884,71.993805 199.068710,56.150127 174.862869,53.754795 
	C173.227753,53.592991 171.601486,53.341763 169.321304,53.048576 
	C169.321304,47.743855 169.322250,42.497929 169.321075,37.252007 
	C169.319229,28.947334 169.347641,20.642485 169.301727,12.338052 
	C169.272995,7.143465 167.039383,3.464353 161.423309,1.710082 
	C161.029449,1.434477 161.000000,1.000000 161.000000,1.000000 
	C183.275375,1.000000 205.550735,1.000000 228.000000,1.000000 
	C228.000000,34.687363 228.000000,68.375023 228.000000,102.531342 
z"/>
<path fill="#FEFEFE" opacity="1.000000" stroke="none" 
	d="
M103.531342,1.000000 
	C98.080116,2.167332 92.110275,3.126744 86.248276,4.535034 
	C41.146027,15.370423 9.320964,50.604313 1.964449,97.708443 
	C1.913456,98.034958 1.801067,98.351883 1.358673,98.836639 
	C1.000000,66.404579 1.000000,33.809158 1.000000,1.000000 
	C35.020596,1.000000 69.041641,1.000000 103.531342,1.000000 
z"/>
<path fill="#FDFEFE" opacity="1.000000" stroke="none" 
	d="
M1.000000,125.468658 
	C2.608328,131.324829 3.829050,137.778870 5.887318,143.953720 
	C20.227690,186.975159 49.754356,212.734467 94.328087,221.207596 
	C96.118942,221.548004 97.904510,221.916229 99.846268,222.635742 
	C67.073441,223.000000 34.146877,223.000000 1.000000,223.000000 
	C1.000000,190.646103 1.000000,158.291718 1.000000,125.468658 
z"/>
<path fill="#92C5B4" opacity="1.000000" stroke="none" 
	d="
M160.531342,1.000000 
	C161.000000,1.000000 161.029449,1.434477 161.065521,1.649239 
	C143.224609,1.816626 125.347603,1.769252 107.235298,1.360939 
	C124.687561,1.000000 142.375122,1.000000 160.531342,1.000000 
z"/>
<path fill="#C1DED5" opacity="1.000000" stroke="none" 
	d="
M160.582367,222.077271 
	C161.050415,222.141663 160.996475,222.569138 160.998230,222.784576 
	C144.645767,223.000000 128.291550,223.000000 111.468658,223.000000 
	C112.671181,222.671219 114.340942,222.065582 116.013756,222.057037 
	C130.713638,221.981903 145.414062,222.013153 160.582367,222.077271 
z"/>
<path fill="#FDFEFE" opacity="1.000000" stroke="none" 
	d="
M157.733948,54.845139 
	C135.979477,57.633850 115.440552,78.556747 111.916054,101.519615 
	C107.086555,132.984879 124.764725,159.849747 155.774460,168.212753 
	C157.027084,168.550583 158.207809,169.154968 158.744324,169.793762 
	C141.709473,169.984375 125.352318,170.016418 108.995163,170.048462 
	C91.120537,168.171097 75.973305,160.958237 65.332413,146.194244 
	C52.103947,127.840057 49.868324,107.762016 59.558681,87.328186 
	C69.511589,66.340698 86.914108,55.489525 110.815048,53.968159 
	C111.698029,53.876732 111.874451,53.816475 112.050880,53.756222 
	C127.052597,53.825710 142.054306,53.895203 157.423981,54.171234 
	C157.791946,54.377773 157.733948,54.845139 157.733948,54.845139 
z"/>
<path fill="#FCFDFD" opacity="1.000000" stroke="none" 
	d="
M149.953247,93.000381 
	C153.371002,92.747597 156.786835,92.313271 160.206894,92.276810 
	C169.639984,92.176208 179.074844,92.242035 188.746948,92.242035 
	C188.746948,105.293579 188.746948,117.855507 188.746948,131.023346 
	C176.170013,131.023346 163.605942,131.023346 150.551620,130.529327 
	C150.025330,117.690323 149.989288,105.345352 149.953247,93.000381 
z"/>
<path fill="#00865F" opacity="1.000000" stroke="none" 
	d="
M109.342834,170.272766 
	C125.352318,170.016418 141.709473,169.984375 158.531433,170.018188 
	C158.556259,170.307297 158.115631,170.726852 157.676392,170.725418 
	C141.681015,170.673599 125.685768,170.582642 109.342834,170.272766 
z"/>
<path fill="#00865E" opacity="1.000000" stroke="none" 
	d="
M149.728088,93.346985 
	C149.989288,105.345352 150.025330,117.690323 150.091309,130.501099 
	C149.807343,130.396606 149.217621,129.825058 149.220200,129.256195 
	C149.274109,117.401810 149.395142,105.547737 149.728088,93.346985 
z"/>
<path fill="#3FA184" opacity="1.000000" stroke="none" 
	d="
M158.060852,54.924229 
	C157.733948,54.845139 157.791946,54.377773 157.892227,54.164761 
	C158.880295,53.652622 159.768082,53.353493 160.655869,53.054367 
	C160.773956,53.393105 160.892029,53.731842 161.010117,54.070580 
	C160.136002,54.381493 159.261871,54.692406 158.060852,54.924229 
z"/>
<path fill="#3FA184" opacity="1.000000" stroke="none" 
	d="
M111.932007,53.638706 
	C111.874451,53.816475 111.698029,53.876732 111.245544,53.892319 
	C111.250710,53.738834 111.531929,53.630013 111.932007,53.638706 
z"/>
</svg>